<svg width="41" height="45" viewBox="0 0 41 45" fill="none" xmlns="http://www.w3.org/2000/svg">
<path fill-rule="evenodd" clip-rule="evenodd" d="M9.5699 0C4.28461 0 0 4.2846 0 9.56993V30.45C0 35.7353 4.28462 40.0199 9.5699 40.0199H15.0984L18.2728 44.2781C18.9765 45.2222 20.3952 45.2092 21.0816 44.2524L24.1177 40.0199H30.45C35.7353 40.0199 40.0199 35.7353 40.0199 30.45V9.56993C40.0199 4.28461 35.7353 0 30.45 0H9.5699Z" fill="#FFC400"/>
<path d="M18.3648 29L18.3395 19.0644C18.3395 18.627 18.3395 18.1813 18.3395 17.7272C18.3564 17.2562 18.3648 16.7769 18.3648 16.2891C17.8097 16.7937 17.1958 17.2394 16.523 17.6263C15.8502 17.9963 15.1438 18.2486 14.4037 18.3832L14 14.8005C14.4373 14.7669 14.8999 14.6575 15.3876 14.4725C15.8922 14.2875 16.3884 14.0604 16.8762 13.7913C17.364 13.5222 17.8013 13.2363 18.1882 12.9335C18.575 12.6139 18.8694 12.3028 19.0712 12H22.5277V29H18.3648Z" fill="#00324D"/>
</svg>
