<svg width="23" height="21" viewBox="0 0 23 21" fill="none" xmlns="http://www.w3.org/2000/svg">
<path d="M4.13737 7.683V15.4938C4.13737 16.2703 4.45348 17.0155 5.01678 17.5641C5.58455 18.1162 6.34574 18.4242 7.13764 18.4224H15.1377C15.9335 18.4224 16.6962 18.1136 17.2586 17.5641C17.5359 17.2952 17.7566 16.9735 17.9076 16.6179C18.0587 16.2623 18.137 15.8801 18.138 15.4938V7.683M4.13737 7.683C3.30851 7.683 2.6377 7.02689 2.6377 6.21824V4.26554C2.6377 3.45689 3.30942 2.80078 4.13737 2.80078H18.138C18.9669 2.80078 19.6377 3.45689 19.6377 4.26554V6.21824C19.6377 7.02689 18.966 7.683 18.138 7.683M4.13737 7.683H18.138" stroke="white" stroke-width="1.8746" stroke-linecap="round" stroke-linejoin="round"/>
<path d="M11.1377 15.2059V10.6113" stroke="white" stroke-width="1.17162" stroke-miterlimit="10" stroke-linecap="round"/>
<path d="M9.03027 13.2715L10.8378 15.079C10.8771 15.1185 10.9237 15.1498 10.9752 15.1711C11.0266 15.1925 11.0817 15.2035 11.1374 15.2035C11.193 15.2035 11.2481 15.1925 11.2996 15.1711C11.351 15.1498 11.3976 15.1185 11.4369 15.079L13.2444 13.2715" stroke="white" stroke-width="1.17162" stroke-linecap="round" stroke-linejoin="round"/>
</svg>
