<svg width="1920" height="1080" viewBox="0 0 1920 1080" fill="none" xmlns="http://www.w3.org/2000/svg">
<g clip-path="url(#clip0_132_637)">
<rect width="1920" height="1080" fill="#00AA00"/>
<g opacity="0.3">
<mask id="mask0_132_637" style="mask-type:alpha" maskUnits="userSpaceOnUse" x="0" y="40" width="1920" height="1040">
<rect x="1920" y="1080" width="1920" height="1040" transform="rotate(-180 1920 1080)" fill="url(#paint0_linear_132_637)"/>
</mask>
<g mask="url(#mask0_132_637)">
<path d="M1.78466 32.3099L0.000455277 -57.0013C1248.64 492.896 1906.88 582.731 1906.88 582.731L1907.1 593.414C1907.1 593.414 1561.52 533.055 880.939 339.831C617.224 264.965 306.008 166.284 1.78466 32.3099Z" fill="url(#paint1_linear_132_637)" fill-opacity="0.3"/>
<path d="M5.34142 210.906L3.55721 121.603C277.345 242.181 604.048 324.93 886.477 386.541C1560.05 533.474 1907.3 604.094 1907.3 604.094L1907.52 614.77C1907.52 614.77 1550.31 537.15 892.058 433.269C587.513 385.212 248.714 318.087 5.34142 210.906Z" fill="url(#paint2_linear_132_637)" fill-opacity="0.3"/>
<path d="M8.90183 389.514L7.11762 300.211C220.065 393.988 568.096 446.409 897.61 479.983C1534.06 544.855 1907.73 625.454 1907.73 625.454L1907.95 636.137C1907.95 636.137 1513.76 556.758 903.17 526.703C546.726 509.162 191.434 469.894 8.91221 389.514L8.90183 389.514Z" fill="url(#paint3_linear_132_637)" fill-opacity="0.3"/>
<path d="M12.4565 568.13L10.6723 478.819C162.779 545.81 524.575 574.027 908.706 573.432C1492.08 572.533 1908.15 646.829 1908.15 646.829L1908.37 657.512C1908.37 657.512 1471.39 591.467 914.266 620.153C503.019 641.339 134.148 621.717 12.4565 568.13Z" fill="url(#paint4_linear_132_637)" fill-opacity="0.2"/>
<path d="M15.9448 743.216L14.1398 652.701C105.406 692.899 483.364 706.46 919.726 662.156C1453.43 607.959 1908.49 663.47 1908.49 663.47L1908.72 675.357C1908.72 675.357 1439.76 631.75 925.306 710.073C466.953 779.856 76.7957 770.01 15.9552 743.216L15.9448 743.216Z" fill="url(#paint5_linear_132_637)" fill-opacity="0.1"/>
<path d="M19.5854 926.17L17.7597 834.646C48.1851 848.043 454.442 856.027 930.887 758.935C1430.92 657.025 1908.97 688.174 1908.97 688.174L1909.23 701.07C1909.23 701.07 1426.97 682.254 936.489 807.868C446.009 933.483 19.5854 926.17 19.5854 926.17Z" fill="url(#paint6_linear_132_637)" fill-opacity="0.05"/>
<path d="M19.845 939.121L19.7205 932.7C19.7205 932.7 441.019 929.158 928.48 824.995C1415.94 720.833 1909.97 737.811 1909.97 737.811L1910.7 774.443C1910.7 774.443 1404.88 759.302 920.441 842.021C436.019 924.731 19.845 939.121 19.845 939.121Z" fill="url(#paint7_linear_132_637)" fill-opacity="0.1"/>
<path d="M20.1144 952.558L19.9795 945.684C19.9795 945.684 431.029 920.431 912.432 859.165C1393.84 797.906 1911.43 811.201 1911.43 811.201L1912.17 848.287C1912.17 848.287 1382.8 836.829 904.434 876.644C426.05 916.459 20.1247 952.558 20.1247 952.558L20.1144 952.558Z" fill="url(#paint8_linear_132_637)" fill-opacity="0.2"/>
<path d="M20.5476 974.531L20.2676 960.54C20.2676 960.54 421.079 913.577 896.424 895.215C1371.77 876.86 1912.92 886.471 1912.92 886.471L1913.8 930.673C1913.8 930.673 1360.89 922.9 888.561 919.81C416.255 916.721 20.5476 974.539 20.5476 974.539L20.5476 974.531Z" fill="url(#paint9_linear_132_637)" fill-opacity="0.25"/>
<path d="M20.9869 996.244L20.8625 990.246C20.8625 990.246 411.445 921.573 880.732 946.107C1350.02 970.656 1914.72 976.591 1914.72 976.591L1915.45 1012.8C1915.45 1012.8 1338.96 1008.69 872.693 962.718C406.445 916.725 20.9869 996.252 20.9869 996.252L20.9869 996.244Z" fill="url(#paint10_linear_132_637)" fill-opacity="0.2"/>
<path d="M21.2543 1009.83L21.1194 1002.87C21.1194 1002.87 401.464 912.484 864.682 979.936C1327.91 1047.37 1916.18 1049.63 1916.18 1049.63L1916.92 1086.8C1916.92 1086.8 1316.87 1086.38 856.684 997.493C396.474 908.597 21.2543 1009.84 21.2543 1009.84L21.2543 1009.83Z" fill="url(#paint11_linear_132_637)" fill-opacity="0.1"/>
<path d="M22.0643 1050.5L21.4004 1016.98C21.4004 1016.98 391.496 904.89 848.666 1015.24C1305.85 1125.58 1917.67 1124.15 1917.67 1124.15L1917.9 1136.15C1917.9 1136.15 1295.29 1130.7 854.538 1035.51C413.768 940.317 47.1682 1050.86 22.0643 1050.49L22.0643 1050.5Z" fill="url(#paint12_linear_132_637)" fill-opacity="0.3"/>
<path d="M23.424 1118.46L22.7394 1084.31C72.9679 1085.04 436.061 976.043 860.41 1056.09C1284.75 1136.12 1918.14 1148.46 1918.14 1148.46L1918.39 1161.11C1918.39 1161.11 1274.22 1141.9 866.271 1077.01C458.343 1012.11 98.7667 1119.55 23.4136 1118.46L23.424 1118.46Z" fill="url(#paint13_linear_132_637)" fill-opacity="0.3"/>
<path d="M24.8137 1188.32L24.1083 1153.08C124.565 1154.55 480.636 1048.66 872.152 1098.4C1263.68 1148.15 1918.66 1174.24 1918.66 1174.24L1918.93 1187.96C1918.93 1187.96 1253.17 1155 878.065 1120.4C502.949 1085.81 150.385 1190.14 24.8033 1188.32L24.8137 1188.32Z" fill="url(#paint14_linear_132_637)" fill-opacity="0.3"/>
</g>
</g>
</g>
<rect x="0.5" y="0.5" width="1919" height="1079" stroke="black"/>
<defs>
<linearGradient id="paint0_linear_132_637" x1="1920" y1="1600" x2="3840" y2="1600" gradientUnits="userSpaceOnUse">
<stop stop-color="#81217D"/>
<stop offset="1" stop-color="#70026B"/>
</linearGradient>
<linearGradient id="paint1_linear_132_637" x1="1907.09" y1="268.203" x2="0.000600955" y2="268.202" gradientUnits="userSpaceOnUse">
<stop stop-color="white"/>
<stop offset="0.2" stop-color="#F3F3F3"/>
<stop offset="0.5" stop-color="#E9E9E9"/>
<stop offset="0.86" stop-color="#E6E6E6"/>
<stop offset="0.92" stop-color="#E8E8E8"/>
<stop offset="0.97" stop-color="#F1F1F1"/>
<stop offset="1" stop-color="white"/>
</linearGradient>
<linearGradient id="paint2_linear_132_637" x1="1907.51" y1="368.186" x2="3.55734" y2="368.186" gradientUnits="userSpaceOnUse">
<stop stop-color="white"/>
<stop offset="0.2" stop-color="#F3F3F3"/>
<stop offset="0.5" stop-color="#E9E9E9"/>
<stop offset="0.86" stop-color="#E6E6E6"/>
<stop offset="0.92" stop-color="#E8E8E8"/>
<stop offset="0.97" stop-color="#F1F1F1"/>
<stop offset="1" stop-color="white"/>
</linearGradient>
<linearGradient id="paint3_linear_132_637" x1="1907.94" y1="468.182" x2="7.11762" y2="468.182" gradientUnits="userSpaceOnUse">
<stop stop-color="white"/>
<stop offset="0.2" stop-color="#F3F3F3"/>
<stop offset="0.5" stop-color="#E9E9E9"/>
<stop offset="0.86" stop-color="#E6E6E6"/>
<stop offset="0.92" stop-color="#E8E8E8"/>
<stop offset="0.97" stop-color="#F1F1F1"/>
<stop offset="1" stop-color="white"/>
</linearGradient>
<linearGradient id="paint4_linear_132_637" x1="1908.36" y1="568.169" x2="10.6723" y2="568.169" gradientUnits="userSpaceOnUse">
<stop stop-color="white"/>
<stop offset="0.2" stop-color="#F3F3F3"/>
<stop offset="0.5" stop-color="#E9E9E9"/>
<stop offset="0.86" stop-color="#E6E6E6"/>
<stop offset="0.92" stop-color="#E8E8E8"/>
<stop offset="0.97" stop-color="#F1F1F1"/>
<stop offset="1" stop-color="white"/>
</linearGradient>
<linearGradient id="paint5_linear_132_637" x1="1908.72" y1="700.899" x2="14.1398" y2="700.899" gradientUnits="userSpaceOnUse">
<stop stop-color="white"/>
<stop offset="0.2" stop-color="#F3F3F3"/>
<stop offset="0.5" stop-color="#E9E9E9"/>
<stop offset="0.86" stop-color="#E6E6E6"/>
<stop offset="0.92" stop-color="#E8E8E8"/>
<stop offset="0.97" stop-color="#F1F1F1"/>
<stop offset="1" stop-color="white"/>
</linearGradient>
<linearGradient id="paint6_linear_132_637" x1="1909.23" y1="804.975" x2="17.77" y2="804.975" gradientUnits="userSpaceOnUse">
<stop stop-color="white"/>
<stop offset="0.2" stop-color="#F3F3F3"/>
<stop offset="0.5" stop-color="#E9E9E9"/>
<stop offset="0.86" stop-color="#E6E6E6"/>
<stop offset="0.92" stop-color="#E8E8E8"/>
<stop offset="0.97" stop-color="#F1F1F1"/>
<stop offset="1" stop-color="white"/>
</linearGradient>
<linearGradient id="paint7_linear_132_637" x1="1910.7" y1="837.954" x2="19.7205" y2="837.954" gradientUnits="userSpaceOnUse">
<stop stop-color="white"/>
<stop offset="0.2" stop-color="#F3F3F3"/>
<stop offset="0.5" stop-color="#E9E9E9"/>
<stop offset="0.86" stop-color="#E6E6E6"/>
<stop offset="0.92" stop-color="#E8E8E8"/>
<stop offset="0.97" stop-color="#F1F1F1"/>
<stop offset="1" stop-color="white"/>
</linearGradient>
<linearGradient id="paint8_linear_132_637" x1="1912.17" y1="881.266" x2="19.9795" y2="881.266" gradientUnits="userSpaceOnUse">
<stop stop-color="white"/>
<stop offset="0.2" stop-color="#F3F3F3"/>
<stop offset="0.5" stop-color="#E9E9E9"/>
<stop offset="0.86" stop-color="#E6E6E6"/>
<stop offset="0.92" stop-color="#E8E8E8"/>
<stop offset="0.97" stop-color="#F1F1F1"/>
<stop offset="1" stop-color="white"/>
</linearGradient>
<linearGradient id="paint9_linear_132_637" x1="1913.8" y1="929.242" x2="20.2676" y2="929.242" gradientUnits="userSpaceOnUse">
<stop stop-color="white"/>
<stop offset="0.2" stop-color="#F3F3F3"/>
<stop offset="0.5" stop-color="#E9E9E9"/>
<stop offset="0.86" stop-color="#E6E6E6"/>
<stop offset="0.92" stop-color="#E8E8E8"/>
<stop offset="0.97" stop-color="#F1F1F1"/>
<stop offset="1" stop-color="white"/>
</linearGradient>
<linearGradient id="paint10_linear_132_637" x1="1915.45" y1="976.81" x2="20.8624" y2="976.81" gradientUnits="userSpaceOnUse">
<stop stop-color="white"/>
<stop offset="0.2" stop-color="#F3F3F3"/>
<stop offset="0.5" stop-color="#E9E9E9"/>
<stop offset="0.86" stop-color="#E6E6E6"/>
<stop offset="0.92" stop-color="#E8E8E8"/>
<stop offset="0.97" stop-color="#F1F1F1"/>
<stop offset="1" stop-color="white"/>
</linearGradient>
<linearGradient id="paint11_linear_132_637" x1="1916.92" y1="1020.87" x2="21.1194" y2="1020.87" gradientUnits="userSpaceOnUse">
<stop stop-color="white"/>
<stop offset="0.2" stop-color="#F3F3F3"/>
<stop offset="0.5" stop-color="#E9E9E9"/>
<stop offset="0.86" stop-color="#E6E6E6"/>
<stop offset="0.92" stop-color="#E8E8E8"/>
<stop offset="0.97" stop-color="#F1F1F1"/>
<stop offset="1" stop-color="white"/>
</linearGradient>
<linearGradient id="paint12_linear_132_637" x1="1917.9" y1="1051.4" x2="21.4004" y2="1051.4" gradientUnits="userSpaceOnUse">
<stop stop-color="white"/>
<stop offset="0.2" stop-color="#F3F3F3"/>
<stop offset="0.5" stop-color="#E9E9E9"/>
<stop offset="0.86" stop-color="#E6E6E6"/>
<stop offset="0.92" stop-color="#E8E8E8"/>
<stop offset="0.97" stop-color="#F1F1F1"/>
<stop offset="1" stop-color="white"/>
</linearGradient>
<linearGradient id="paint13_linear_132_637" x1="1918.4" y1="1093.91" x2="22.7394" y2="1093.91" gradientUnits="userSpaceOnUse">
<stop stop-color="white"/>
<stop offset="0.2" stop-color="#F3F3F3"/>
<stop offset="0.5" stop-color="#E9E9E9"/>
<stop offset="0.86" stop-color="#E6E6E6"/>
<stop offset="0.92" stop-color="#E8E8E8"/>
<stop offset="0.97" stop-color="#F1F1F1"/>
<stop offset="1" stop-color="white"/>
</linearGradient>
<linearGradient id="paint14_linear_132_637" x1="1918.93" y1="1136.72" x2="24.1083" y2="1136.72" gradientUnits="userSpaceOnUse">
<stop stop-color="white"/>
<stop offset="0.2" stop-color="#F3F3F3"/>
<stop offset="0.5" stop-color="#E9E9E9"/>
<stop offset="0.86" stop-color="#E6E6E6"/>
<stop offset="0.92" stop-color="#E8E8E8"/>
<stop offset="0.97" stop-color="#F1F1F1"/>
<stop offset="1" stop-color="white"/>
</linearGradient>
<clipPath id="clip0_132_637">
<rect width="1920" height="1080" fill="white"/>
</clipPath>
</defs>
</svg>
