<svg width="17" height="15" viewBox="0 0 17 15" fill="none" xmlns="http://www.w3.org/2000/svg">
<path d="M12.2227 6.8002C10.2897 6.8002 8.72266 8.36722 8.72266 10.3002C8.72266 12.2332 10.2897 13.8002 12.2227 13.8002C14.1556 13.8002 15.7227 12.2332 15.7227 10.3002C15.7227 8.36722 14.1556 6.8002 12.2227 6.8002ZM12.2227 6.8002V5.4002M12.2227 5.4002V4.8402C12.2227 4.05613 12.2227 3.66408 12.0701 3.36461C11.9359 3.10118 11.7217 2.88701 11.4583 2.75279C11.1588 2.6002 10.7667 2.6002 9.98266 2.6002H3.96266C3.17859 2.6002 2.78654 2.6002 2.48707 2.75279C2.22364 2.88701 2.00947 3.10118 1.87525 3.36461C1.72266 3.66408 1.72266 4.05613 1.72266 4.8402V5.4002M12.2227 5.4002H1.72266M1.72266 5.4002V10.1602C1.72266 10.9443 1.72266 11.3363 1.87525 11.6358C2.00947 11.8992 2.22364 12.1134 2.48707 12.2476C2.78654 12.4002 3.17859 12.4002 3.96266 12.4002H9.42266M3.82266 1.2002V2.6002M10.1227 1.2002V2.6002M10.8227 10.3002H12.2227M12.2227 10.3002H13.6227M12.2227 10.3002V8.9002M12.2227 10.3002V11.7002" stroke="white" stroke-width="1.5" stroke-linecap="round" stroke-linejoin="round"/>
</svg>
