<svg width="22" height="22" viewBox="0 0 22 22" fill="none" xmlns="http://www.w3.org/2000/svg">
<path d="M1.19922 9.53333H20.3992M16.1326 1V5.26667M5.46589 1V5.26667M16.1326 3.13333H5.46589C4.3343 3.13333 3.24905 3.58286 2.4489 4.38301C1.64874 5.18317 1.19922 6.26841 1.19922 7.4V16.7333C1.19922 17.8649 1.64874 18.9502 2.4489 19.7503C3.24905 20.5505 4.3343 21 5.46589 21H16.1326C17.2641 21 18.3494 20.5505 19.1495 19.7503C19.9497 18.9502 20.3992 17.8649 20.3992 16.7333V7.4C20.3992 6.26841 19.9497 5.18317 19.1495 4.38301C18.3494 3.58286 17.2641 3.13333 16.1326 3.13333Z" stroke="#002C4D" stroke-width="1.5" stroke-linecap="round" stroke-linejoin="round"/>
</svg>
