<svg width="25" height="25" viewBox="0 0 25 25" fill="none" xmlns="http://www.w3.org/2000/svg">
<path d="M11.8269 0.0292969C12.3468 0.0292969 12.8667 0.0292969 13.3865 0.0292969C13.4477 0.0598769 13.5088 0.0598767 13.57 0.0598767C15.9858 0.243357 18.157 1.0996 20.053 2.59802C22.4076 4.46341 23.8755 6.87922 24.4259 9.84551C24.5177 10.3042 24.5788 10.7935 24.64 11.2827C24.64 11.8026 24.64 12.3225 24.64 12.8423C24.5483 13.4233 24.4871 14.0044 24.3648 14.5548C22.7746 22.2304 14.2428 26.3587 7.23994 22.842C2.37771 20.3956 -0.2216 15.197 0.756961 9.78432C1.6132 5.1056 5.40513 1.22192 10.0533 0.273937C10.6649 0.182197 11.2459 0.121037 11.8269 0.0292969ZM12.622 2.72034C7.45399 2.72034 3.26453 6.90981 3.26453 12.0778C3.26453 17.2459 7.45399 21.4659 12.622 21.4659C17.8206 21.4659 22.0101 17.2765 22.0101 12.0778C21.9795 6.90981 17.79 2.68976 12.622 2.72034Z" fill="white"/>
<path d="M14.4649 12.0367C15.1682 12.7094 15.8103 13.3516 16.4525 13.9938C16.6666 14.2078 16.9113 14.4219 17.1253 14.6665C17.6452 15.217 17.6452 16.0426 17.1253 16.5625C16.6054 17.0824 15.7798 17.0824 15.2599 16.5625C14.4649 15.7674 13.6698 14.9723 12.8747 14.1772C12.8135 14.1161 12.7523 14.0243 12.6606 13.8714C12.4465 14.0855 12.2937 14.269 12.1408 14.4219C11.4374 15.1252 10.7035 15.8591 10.0001 16.5625C9.57204 16.9906 8.99101 17.0518 8.47113 16.8071C7.98188 16.5625 7.67608 16.0426 7.70664 15.5228C7.73723 15.1558 7.89013 14.85 8.16533 14.6054C9.02157 13.7797 9.84725 12.9235 10.7035 12.0672C10.6423 11.9755 10.5506 11.9143 10.4894 11.8532C9.69435 11.0581 8.86867 10.263 8.07359 9.43733C7.70664 9.03978 7.58433 8.58109 7.73723 8.09184C7.89013 7.60255 8.25708 7.29675 8.74637 7.20501C9.23565 7.11326 9.6332 7.26616 10.0001 7.60255C10.7646 8.36704 11.5292 9.13153 12.2937 9.89605C12.3854 9.98777 12.4465 10.0795 12.5383 10.2019C12.6606 10.0795 12.7218 10.0184 12.8135 9.95721C13.6086 9.16212 14.4037 8.33645 15.2293 7.54136C15.5963 7.17441 16.055 7.05211 16.5749 7.20501C17.0642 7.3579 17.4005 7.72485 17.4923 8.24473C17.584 8.73399 17.4005 9.16212 17.0642 9.49851C16.2996 10.263 15.5351 11.0275 14.7401 11.792C14.6789 11.8837 14.6177 11.9449 14.4649 12.0367Z" fill="white"/>
</svg>
