<svg width="44" height="45" viewBox="0 0 44 45" fill="none" xmlns="http://www.w3.org/2000/svg">
<path d="M22.0429 44.5C26.3923 44.4915 30.6415 43.194 34.2537 40.7715C37.866 38.3489 40.6791 34.91 42.3376 30.8893C43.9962 26.8686 44.4257 22.4465 43.572 18.1817C42.7183 13.917 40.6196 10.001 37.5412 6.92851C34.4627 3.85604 30.5426 1.765 26.2762 0.919603C22.0098 0.0742016 17.5885 0.512377 13.571 2.17876C9.55357 3.84514 6.12017 6.66496 3.70467 10.2819C1.28918 13.8989 -2.51917e-05 18.1506 -3.62556e-05 22.5C0.00278306 25.3919 0.575179 28.2549 1.68447 30.9256C2.79375 33.5963 4.4182 36.0223 6.46508 38.0652C8.51196 40.1081 10.9412 41.7278 13.614 42.8319C16.2869 43.936 19.151 44.5028 22.0429 44.5ZM10.7317 24.5175L18.6302 16.4258C19.0594 15.9881 19.5697 15.6382 20.1327 15.3956C20.6934 15.1746 21.2899 15.0582 21.8927 15.0522C22.4881 15.0608 23.0771 15.1772 23.6312 15.3956C24.1924 15.6318 24.7025 15.9744 25.1336 16.4044L33.2897 24.5175C33.6895 24.9197 33.9139 25.4637 33.9139 26.0307C33.9139 26.5977 33.6895 27.1417 33.2897 27.5439C32.8876 27.9436 32.3436 28.168 31.7766 28.168C31.2095 28.168 30.6655 27.9436 30.2634 27.5439L21.957 19.3449L13.8653 27.5224C13.4669 27.938 12.9196 28.1782 12.344 28.1903C11.7684 28.2024 11.2116 27.9853 10.7961 27.5868C10.3805 27.1883 10.1403 26.6411 10.1282 26.0655C10.1161 25.4899 10.3332 24.9331 10.7317 24.5175Z" fill="#002C4D"/>
</svg>
