<svg width="28" height="28" viewBox="0 0 28 28" fill="none" xmlns="http://www.w3.org/2000/svg">
<path d="M21.0004 14.0004H6.99951" stroke="white" stroke-width="2.4" stroke-miterlimit="10" stroke-linecap="round"/>
<path d="M14.8801 20.6665L20.6654 14.947C20.7899 14.8226 20.8887 14.6749 20.9561 14.5124C21.0235 14.3498 21.0582 14.1756 21.0582 13.9996C21.0582 13.8236 21.0235 13.6494 20.9561 13.4868C20.8887 13.3243 20.7899 13.1766 20.6654 13.0522L14.8801 7.33264" stroke="white" stroke-width="2.4" stroke-linecap="round" stroke-linejoin="round"/>
<path d="M14 26C17.1826 26 20.2348 24.7357 22.4853 22.4853C24.7357 20.2348 26 17.1826 26 14C26 10.8174 24.7357 7.76515 22.4853 5.51472C20.2348 3.26428 17.1826 2 14 2C10.8174 2 7.76515 3.26428 5.51472 5.51472C3.26428 7.76515 2 10.8174 2 14C2 17.1826 3.26428 20.2348 5.51472 22.4853C7.76515 24.7357 10.8174 26 14 26Z" stroke="white" stroke-width="2.4" stroke-linecap="round" stroke-linejoin="round"/>
</svg>
