<svg width="34" height="34" viewBox="0 0 34 34" fill="none" xmlns="http://www.w3.org/2000/svg">
<mask id="path-1-inside-1_720_8352" fill="white">
<path d="M7.43306 33.7958C6.1197 33.7958 4.80482 33.808 3.49145 33.7928C1.54871 33.7701 0.250506 32.4883 0.23989 30.5633C0.224724 27.9086 0.224724 25.2555 0.23989 22.6009C0.250506 20.8215 1.44861 19.4715 3.23212 19.4229C6.06055 19.3471 8.89354 19.3516 11.722 19.4184C13.4342 19.4578 14.6581 20.6243 14.7142 22.3415C14.8067 25.1691 14.8143 28.0042 14.7188 30.8302C14.6566 32.6612 13.3538 33.767 11.5279 33.7913C10.1629 33.8095 8.79799 33.7943 7.43458 33.7943L7.43306 33.7958ZM2.67098 26.5662C2.67098 27.854 2.68918 29.1434 2.6634 30.4313C2.65126 31.0654 2.90757 31.3885 3.53998 31.39C6.16671 31.393 8.79344 31.3915 11.4202 31.393C12.0405 31.393 12.3514 31.0912 12.3514 30.4647C12.3483 27.8874 12.3514 25.3101 12.3483 22.7329C12.3483 22.117 12.0389 21.8015 11.4126 21.8015C8.81013 21.803 6.20918 21.8045 3.60671 21.8015C2.947 21.8015 2.64823 22.1018 2.66188 22.7784C2.68615 24.0405 2.66946 25.3041 2.66946 26.5677L2.67098 26.5662Z"/>
</mask>
<path d="M7.43306 33.7958C6.1197 33.7958 4.80482 33.808 3.49145 33.7928C1.54871 33.7701 0.250506 32.4883 0.23989 30.5633C0.224724 27.9086 0.224724 25.2555 0.23989 22.6009C0.250506 20.8215 1.44861 19.4715 3.23212 19.4229C6.06055 19.3471 8.89354 19.3516 11.722 19.4184C13.4342 19.4578 14.6581 20.6243 14.7142 22.3415C14.8067 25.1691 14.8143 28.0042 14.7188 30.8302C14.6566 32.6612 13.3538 33.767 11.5279 33.7913C10.1629 33.8095 8.79799 33.7943 7.43458 33.7943L7.43306 33.7958ZM2.67098 26.5662C2.67098 27.854 2.68918 29.1434 2.6634 30.4313C2.65126 31.0654 2.90757 31.3885 3.53998 31.39C6.16671 31.393 8.79344 31.3915 11.4202 31.393C12.0405 31.393 12.3514 31.0912 12.3514 30.4647C12.3483 27.8874 12.3514 25.3101 12.3483 22.7329C12.3483 22.117 12.0389 21.8015 11.4126 21.8015C8.81013 21.803 6.20918 21.8045 3.60671 21.8015C2.947 21.8015 2.64823 22.1018 2.66188 22.7784C2.68615 24.0405 2.66946 25.3041 2.66946 26.5677L2.67098 26.5662Z" fill="#002C4D" stroke="#002C4D" stroke-width="2" mask="url(#path-1-inside-1_720_8352)"/>
<mask id="path-2-inside-2_720_8352" fill="white">
<path d="M26.5995 33.796C25.2346 33.796 23.8696 33.8112 22.5062 33.7914C20.6029 33.7641 19.3305 32.502 19.3153 30.5968C19.2941 27.9179 19.2926 25.2375 19.3153 22.5586C19.332 20.761 20.5271 19.461 22.3333 19.417C25.136 19.3487 27.9447 19.3472 30.7474 19.417C32.5961 19.4625 33.773 20.764 33.7866 22.6147C33.8063 25.2693 33.8063 27.9224 33.7866 30.5771C33.773 32.5248 32.5036 33.7717 30.5411 33.7945C29.2277 33.8096 27.9129 33.7975 26.5995 33.7975V33.796ZM26.5464 21.8001C26.5464 21.8001 26.5464 21.8031 26.5464 21.8046C25.2831 21.8046 24.0213 21.7971 22.758 21.8077C21.933 21.8138 21.7161 22.0216 21.7131 22.8392C21.704 25.3391 21.704 27.8405 21.7131 30.3404C21.7161 31.1853 21.9102 31.3962 22.7322 31.4007C25.2831 31.4129 27.8325 31.4007 30.3834 31.4083C31.0734 31.4098 31.3965 31.1156 31.3934 30.4056C31.3798 27.88 31.3949 25.3543 31.3843 22.8286C31.3813 22.0049 31.169 21.8092 30.3349 21.8031C29.0715 21.794 27.8097 21.8016 26.5464 21.8016V21.8001Z"/>
</mask>
<path d="M26.5995 33.796C25.2346 33.796 23.8696 33.8112 22.5062 33.7914C20.6029 33.7641 19.3305 32.502 19.3153 30.5968C19.2941 27.9179 19.2926 25.2375 19.3153 22.5586C19.332 20.761 20.5271 19.461 22.3333 19.417C25.136 19.3487 27.9447 19.3472 30.7474 19.417C32.5961 19.4625 33.773 20.764 33.7866 22.6147C33.8063 25.2693 33.8063 27.9224 33.7866 30.5771C33.773 32.5248 32.5036 33.7717 30.5411 33.7945C29.2277 33.8096 27.9129 33.7975 26.5995 33.7975V33.796ZM26.5464 21.8001C26.5464 21.8001 26.5464 21.8031 26.5464 21.8046C25.2831 21.8046 24.0213 21.7971 22.758 21.8077C21.933 21.8138 21.7161 22.0216 21.7131 22.8392C21.704 25.3391 21.704 27.8405 21.7131 30.3404C21.7161 31.1853 21.9102 31.3962 22.7322 31.4007C25.2831 31.4129 27.8325 31.4007 30.3834 31.4083C31.0734 31.4098 31.3965 31.1156 31.3934 30.4056C31.3798 27.88 31.3949 25.3543 31.3843 22.8286C31.3813 22.0049 31.169 21.8092 30.3349 21.8031C29.0715 21.794 27.8097 21.8016 26.5464 21.8016V21.8001Z" fill="#002C4D" stroke="#002C4D" stroke-width="2" mask="url(#path-2-inside-2_720_8352)"/>
<mask id="path-3-inside-3_720_8352" fill="white">
<path d="M7.46259 0.20545C8.80174 0.20545 10.1409 0.191798 11.48 0.208484C13.3864 0.231238 14.6725 1.48877 14.6891 3.38645C14.7119 6.06535 14.7134 8.74577 14.6891 11.4247C14.6725 13.2328 13.4971 14.5329 11.6893 14.5799C8.86089 14.6542 6.0279 14.6557 3.19947 14.5784C1.39624 14.5268 0.229987 13.2116 0.216338 11.4034C0.196622 8.72453 0.195106 6.04563 0.217854 3.36522C0.234537 1.50091 1.50392 0.24034 3.36781 0.210001C4.73274 0.188764 6.09766 0.20545 7.46108 0.20545H7.46259ZM7.42771 2.60675C6.19018 2.60675 4.95264 2.59917 3.71662 2.60978C2.79757 2.61737 2.62316 2.77665 2.62013 3.65647C2.61103 6.15637 2.61103 8.65627 2.62013 11.1562C2.62316 11.9829 2.83852 12.1937 3.65444 12.1968C6.17956 12.2044 8.70468 12.2044 11.2283 12.1968C12.0685 12.1953 12.2869 11.9935 12.2899 11.182C12.3005 8.65627 12.2869 6.13058 12.299 3.60641C12.302 2.90255 11.9881 2.59462 11.2905 2.6022C10.0029 2.61585 8.71529 2.60675 7.42771 2.60523V2.60675Z"/>
</mask>
<path d="M7.46259 0.20545C8.80174 0.20545 10.1409 0.191798 11.48 0.208484C13.3864 0.231238 14.6725 1.48877 14.6891 3.38645C14.7119 6.06535 14.7134 8.74577 14.6891 11.4247C14.6725 13.2328 13.4971 14.5329 11.6893 14.5799C8.86089 14.6542 6.0279 14.6557 3.19947 14.5784C1.39624 14.5268 0.229987 13.2116 0.216338 11.4034C0.196622 8.72453 0.195106 6.04563 0.217854 3.36522C0.234537 1.50091 1.50392 0.24034 3.36781 0.210001C4.73274 0.188764 6.09766 0.20545 7.46108 0.20545H7.46259ZM7.42771 2.60675C6.19018 2.60675 4.95264 2.59917 3.71662 2.60978C2.79757 2.61737 2.62316 2.77665 2.62013 3.65647C2.61103 6.15637 2.61103 8.65627 2.62013 11.1562C2.62316 11.9829 2.83852 12.1937 3.65444 12.1968C6.17956 12.2044 8.70468 12.2044 11.2283 12.1968C12.0685 12.1953 12.2869 11.9935 12.2899 11.182C12.3005 8.65627 12.2869 6.13058 12.299 3.60641C12.302 2.90255 11.9881 2.59462 11.2905 2.6022C10.0029 2.61585 8.71529 2.60675 7.42771 2.60523V2.60675Z" fill="#002C4D" stroke="#002C4D" stroke-width="2" mask="url(#path-3-inside-3_720_8352)"/>
<mask id="path-4-inside-4_720_8352" fill="white">
<path d="M33.7943 7.46061C33.7427 11.4592 30.4487 14.6842 26.498 14.6069C22.5169 14.528 19.373 11.3 19.4125 7.33319C19.4534 3.28905 22.702 0.153559 26.7846 0.215753C30.7065 0.27643 33.8458 3.52114 33.7943 7.46061Z"/>
</mask>
<path d="M33.7943 7.46061C33.7427 11.4592 30.4487 14.6842 26.498 14.6069C22.5169 14.528 19.373 11.3 19.4125 7.33319C19.4534 3.28905 22.702 0.153559 26.7846 0.215753C30.7065 0.27643 33.8458 3.52114 33.7943 7.46061Z" fill="#002C4D" stroke="#002C4D" stroke-width="2" mask="url(#path-4-inside-4_720_8352)"/>
</svg>
