<svg width="17" height="17" viewBox="0 0 17 17" fill="none" xmlns="http://www.w3.org/2000/svg">
<path d="M4.74219 8.56445L6.70513 10.5267C6.7743 10.5963 6.85656 10.6515 6.94717 10.6892C7.03777 10.7269 7.13494 10.7463 7.23308 10.7463C7.33122 10.7463 7.42839 10.7269 7.519 10.6892C7.60961 10.6515 7.69186 10.5963 7.76103 10.5267L11.7157 6.57129" stroke="white" stroke-width="1.4" stroke-linecap="round" stroke-linejoin="round"/>
<path d="M8.5 15.5C10.3565 15.5 12.137 14.7625 13.4497 13.4497C14.7625 12.137 15.5 10.3565 15.5 8.5C15.5 6.64348 14.7625 4.86301 13.4497 3.55025C12.137 2.2375 10.3565 1.5 8.5 1.5C6.64348 1.5 4.86301 2.2375 3.55025 3.55025C2.2375 4.86301 1.5 6.64348 1.5 8.5C1.5 10.3565 2.2375 12.137 3.55025 13.4497C4.86301 14.7625 6.64348 15.5 8.5 15.5Z" stroke="white" stroke-width="1.4" stroke-linecap="round" stroke-linejoin="round"/>
</svg>
