<svg width="20" height="21" viewBox="0 0 20 21" fill="none" xmlns="http://www.w3.org/2000/svg">
<path d="M10 15.7506V5.25" stroke="white" stroke-width="1.4" stroke-miterlimit="10" stroke-linecap="round"/>
<path d="M4.99902 11.1602L9.28966 15.4991C9.38271 15.5927 9.49335 15.6669 9.61521 15.7176C9.73706 15.7683 9.86773 15.7944 9.99971 15.7944C10.1317 15.7944 10.2624 15.7683 10.3842 15.7176C10.5061 15.6669 10.6167 15.5927 10.7098 15.4991L14.9994 11.1602" stroke="white" stroke-width="1.4" stroke-linecap="round" stroke-linejoin="round"/>
<path d="M10 19.5C12.3869 19.5 14.6761 18.5518 16.364 16.864C18.0518 15.1761 19 12.8869 19 10.5C19 8.11305 18.0518 5.82387 16.364 4.13604C14.6761 2.44821 12.3869 1.5 10 1.5C7.61305 1.5 5.32387 2.44821 3.63604 4.13604C1.94821 5.82387 1 8.11305 1 10.5C1 12.8869 1.94821 15.1761 3.63604 16.864C5.32387 18.5518 7.61305 19.5 10 19.5Z" stroke="white" stroke-width="1.4" stroke-linecap="round" stroke-linejoin="round"/>
</svg>
