<svg width="14" height="17" viewBox="0 0 14 17" fill="none" xmlns="http://www.w3.org/2000/svg">
<path d="M9.1538 16.0141L10.3661 14.8784C10.9336 14.8312 11.5701 14.9289 12.13 14.8723C12.3008 14.8551 12.5197 14.779 12.5947 14.6096L12.598 4.49268C12.575 3.5669 12.6965 2.51228 12.6188 1.59595C12.5837 1.18276 12.2794 1.08946 11.9242 1.18221L2.46362 1.18054C2.24853 1.24163 1.99732 1.10668 1.88567 1.36658C1.80521 1.55318 1.84298 2.34734 1.84517 2.6017C1.87636 6.60748 1.85994 10.6199 1.86925 14.6285C1.93438 14.7945 2.07065 14.8645 2.23868 14.8912L4.05516 14.9017L5.21489 16.013H1.60764C1.11562 16.013 0.727582 15.266 0.722656 14.8251V1.40435C0.788332 0.840662 1.13149 0.36139 1.64814 0.142024C2.07339 -0.0384667 2.92937 0.0326189 3.41646 0.0242885C6.37571 -0.0262489 9.34207 0.020401 12.3035 0.00429572C13.0528 0.0881545 13.6696 0.661837 13.7227 1.44211L13.7216 14.7296C13.7517 15.1861 13.1622 16.0141 12.7036 16.0141H9.1538Z" fill="white"/>
<path d="M8.62256 13.001H11.4581L7.24227 16.9996L3.00781 13.001H5.82476V10.7701C5.82476 10.7135 6.03547 10.6857 6.0809 10.6824C6.83836 10.6269 7.65931 10.7263 8.42334 10.6824C8.46165 10.6613 8.62201 10.7696 8.62201 10.7896L8.62256 13.001Z" fill="white"/>
<path d="M5.93805 8.98443V5.52734H7.8317C7.85305 5.52734 8.17595 5.69117 8.21591 5.71672C9.01113 6.22487 9.03412 7.90871 8.43154 8.56958C8.33522 8.6751 7.90285 8.98443 7.77424 8.98443H5.9375H5.93805ZM6.83233 8.15418H7.56517C7.57557 8.15418 7.72662 8.0631 7.74468 8.04699C7.97181 7.84262 7.96196 7.08012 7.89245 6.79855C7.75837 6.25486 7.32107 6.29207 6.86353 6.34205L6.83233 6.36815V8.15473V8.15418Z" fill="white"/>
<path d="M3.92163 7.78653V8.98388H3.11272C3.1067 8.98388 3.02734 8.90335 3.02734 8.89724V5.52734H4.95931C4.97737 5.52734 5.23624 5.68618 5.27182 5.71228C5.9346 6.21099 5.79613 7.36557 5.03101 7.68546C4.98996 7.70267 4.75517 7.78653 4.73109 7.78653H3.92218H3.92163ZM3.92163 6.95572H4.52092C4.53187 6.95572 4.69551 6.85687 4.71029 6.83854C4.80114 6.72636 4.72726 6.35705 4.63531 6.35705H3.92163V6.95572Z" fill="white"/>
<path d="M11.5344 5.52692C11.5733 5.80738 11.6724 6.12837 11.4491 6.35718H10.031V6.80146H11.3347L11.3631 6.83034V7.52565C11.3631 7.53342 11.2657 7.63172 11.2586 7.63172H10.031V8.98346H9.13672V5.52637H11.535L11.5344 5.52692Z" fill="white"/>
</svg>
