<svg width="15" height="24" viewBox="0 0 15 24" fill="none" xmlns="http://www.w3.org/2000/svg">
<path d="M12.5003 3.86943C12.898 3.86943 13.2795 3.71827 13.5607 3.44921C13.842 3.18015 14 2.81522 14 2.43471C14 2.0542 13.842 1.68928 13.5607 1.42022C13.2795 1.15116 12.898 1 12.5003 1C12.1025 1 11.721 1.15116 11.4398 1.42022C11.1585 1.68928 11.0005 2.0542 11.0005 2.43471C11.0005 2.81522 11.1585 3.18015 11.4398 3.44921C11.721 3.71827 12.1025 3.86943 12.5003 3.86943ZM2.49975 3.86943C2.6967 3.86943 2.89172 3.83232 3.07368 3.76022C3.25563 3.68812 3.42096 3.58244 3.56023 3.44921C3.69949 3.31598 3.80996 3.15782 3.88533 2.98376C3.9607 2.80969 3.99949 2.62312 3.99949 2.43471C3.99949 2.24631 3.9607 2.05974 3.88533 1.88567C3.80996 1.71161 3.69949 1.55344 3.56023 1.42022C3.42096 1.28699 3.25563 1.18131 3.07368 1.10921C2.89172 1.03711 2.6967 1 2.49975 1C2.10199 1 1.72052 1.15116 1.43927 1.42022C1.15801 1.68928 1 2.0542 1 2.43471C1 2.81522 1.15801 3.18015 1.43927 3.44921C1.72052 3.71827 2.10199 3.86943 2.49975 3.86943ZM12.5003 13.4347C12.898 13.4347 13.2795 13.2836 13.5607 13.0145C13.842 12.7454 14 12.3805 14 12C14 11.6195 13.842 11.2546 13.5607 10.9855C13.2795 10.7164 12.898 10.5653 12.5003 10.5653C12.1025 10.5653 11.721 10.7164 11.4398 10.9855C11.1585 11.2546 11.0005 11.6195 11.0005 12C11.0005 12.3805 11.1585 12.7454 11.4398 13.0145C11.721 13.2836 12.1025 13.4347 12.5003 13.4347ZM2.49975 13.4347C2.89751 13.4347 3.27897 13.2836 3.56023 13.0145C3.84149 12.7454 3.99949 12.3805 3.99949 12C3.99949 11.6195 3.84149 11.2546 3.56023 10.9855C3.27897 10.7164 2.89751 10.5653 2.49975 10.5653C2.10199 10.5653 1.72052 10.7164 1.43927 10.9855C1.15801 11.2546 1 11.6195 1 12C1 12.3805 1.15801 12.7454 1.43927 13.0145C1.72052 13.2836 2.10199 13.4347 2.49975 13.4347ZM12.5003 23C12.898 23 13.2795 22.8488 13.5607 22.5798C13.842 22.3107 14 21.9458 14 21.5653C14 21.1848 13.842 20.8199 13.5607 20.5508C13.2795 20.2817 12.898 20.1306 12.5003 20.1306C12.1025 20.1306 11.721 20.2817 11.4398 20.5508C11.1585 20.8199 11.0005 21.1848 11.0005 21.5653C11.0005 21.9458 11.1585 22.3107 11.4398 22.5798C11.721 22.8488 12.1025 23 12.5003 23ZM2.49975 23C2.89751 23 3.27897 22.8488 3.56023 22.5798C3.84149 22.3107 3.99949 21.9458 3.99949 21.5653C3.99949 21.1848 3.84149 20.8199 3.56023 20.5508C3.27897 20.2817 2.89751 20.1306 2.49975 20.1306C2.10199 20.1306 1.72052 20.2817 1.43927 20.5508C1.15801 20.8199 1 21.1848 1 21.5653C1 21.9458 1.15801 22.3107 1.43927 22.5798C1.72052 22.8488 2.10199 23 2.49975 23Z" fill="#002C4D" stroke="#002C4D" stroke-width="2" stroke-linecap="round" stroke-linejoin="round"/>
</svg>
