<svg width="17" height="15" viewBox="0 0 17 15" fill="none" xmlns="http://www.w3.org/2000/svg">
<path d="M2.98922 9.91993L1.5 14.0872L5.47124 13.566L14.8285 4.639C15.0341 4.44338 15.1992 4.20918 15.3143 3.94976C15.4294 3.69034 15.4923 3.4108 15.4993 3.12708C15.5064 2.84336 15.4575 2.56103 15.3555 2.2962C15.2534 2.03138 15.1002 1.78924 14.9046 1.58363C14.709 1.37801 14.4748 1.21294 14.2154 1.09783C13.9559 0.982729 13.6764 0.919848 13.3927 0.91278C13.109 0.905712 12.8266 0.954595 12.5618 1.05664C12.297 1.15868 12.0548 1.31189 11.8492 1.50751L2.98922 9.91993Z" stroke="white" stroke-width="1.65468" stroke-linecap="round" stroke-linejoin="round"/>
</svg>
