<svg width="64" height="40" viewBox="0 0 64 40" fill="none" xmlns="http://www.w3.org/2000/svg">
<path d="M0 19.6207C5.549 14.5801 10.6237 8.88535 16.7245 4.66625C27.4939 -2.78305 41.7043 -1.05015 51.2151 7.98945C55.0498 11.6351 58.7202 15.4543 62.4619 19.196C62.6758 19.4099 62.8618 19.6517 63.3175 20.1756C61.8109 21.5892 60.2981 22.9594 58.8411 24.3885C56.5285 26.6546 54.25 28.9517 51.9622 31.2457C40.8797 42.3561 23.6375 42.7126 12.214 31.9742C8.2863 28.279 4.5477 24.3792 0.7285 20.5693C0.5549 20.3957 0.4247 20.1756 0 19.6207ZM31.6138 36.2987C40.6069 36.3607 47.9446 29.1191 48.0066 20.1198C48.0686 11.043 40.9417 3.76105 31.9145 3.67735C22.7757 3.59055 15.4194 10.7547 15.3388 19.8253C15.2582 28.8773 22.5308 36.2367 31.6169 36.2987H31.6138Z" fill="#00324D"/>
<path d="M31.2797 12.8722C35.5732 12.7203 38.9553 16.0249 38.8716 20.0549C38.7879 24.1438 35.164 27.4236 31.1092 27.0857C27.2094 26.7571 24.159 23.2665 24.7263 19.6519C27.0296 21.0934 29.3391 21.3321 31.289 19.2117C33.0808 17.2649 32.7677 15.0949 31.2828 12.8722H31.2797Z" fill="#00324D"/>
</svg>
