<svg width="295" height="40" viewBox="0 0 295 40" fill="none" xmlns="http://www.w3.org/2000/svg">
<rect width="294.842" height="40" rx="20" fill="#FFC400"/>
<path d="M0 20C0 8.95431 8.95431 0 20 0H56.8421V40H20C8.95428 40 0 31.0457 0 20V20Z" fill="#00324D"/>
<path d="M36.8421 19.9995H25.5943M21.6241 19.9995H20M21.6241 19.9995C21.6241 19.4732 21.8332 18.9684 22.2054 18.5962C22.5776 18.224 23.0824 18.0149 23.6088 18.0149C24.1351 18.0149 24.6399 18.224 25.0121 18.5962C25.3843 18.9684 25.5934 19.4732 25.5934 19.9995C25.5934 20.5259 25.3843 21.0307 25.0121 21.4029C24.6399 21.7751 24.1351 21.9842 23.6088 21.9842C23.0824 21.9842 22.5776 21.7751 22.2054 21.4029C21.8332 21.0307 21.6241 20.5259 21.6241 19.9995ZM36.8421 26.0145H31.6092M31.6092 26.0145C31.6092 26.5409 31.3996 27.0463 31.0273 27.4186C30.6551 27.7909 30.1501 28 29.6237 28C29.0973 28 28.5925 27.79 28.2203 27.4178C27.8481 27.0456 27.639 26.5408 27.639 26.0145M31.6092 26.0145C31.6092 25.488 31.3996 24.9835 31.0273 24.6112C30.6551 24.239 30.1501 24.0298 29.6237 24.0298C29.0973 24.0298 28.5925 24.2389 28.2203 24.6111C27.8481 24.9833 27.639 25.4881 27.639 26.0145M27.639 26.0145H20M36.8421 13.9846H34.0154M30.0452 13.9846H20M30.0452 13.9846C30.0452 13.4583 30.2543 12.9535 30.6265 12.5813C30.9987 12.2091 31.5035 12 32.0298 12C32.2904 12 32.5485 12.0513 32.7893 12.1511C33.0301 12.2508 33.2489 12.397 33.4332 12.5813C33.6175 12.7656 33.7636 12.9844 33.8634 13.2251C33.9631 13.4659 34.0145 13.724 34.0145 13.9846C34.0145 14.2453 33.9631 14.5033 33.8634 14.7441C33.7636 14.9849 33.6175 15.2037 33.4332 15.388C33.2489 15.5723 33.0301 15.7185 32.7893 15.8182C32.5485 15.9179 32.2904 15.9693 32.0298 15.9693C31.5035 15.9693 30.9987 15.7602 30.6265 15.388C30.2543 15.0158 30.0452 14.511 30.0452 13.9846Z" stroke="white" stroke-width="1.24444" stroke-miterlimit="10" stroke-linecap="round"/>
<path d="M88.4423 15.52H81.3223V18.88H86.9423V21.1H81.3223V26.5H78.5623V13.3H88.4423V15.52ZM91.9084 15.06C91.335 15.06 90.9084 14.94 90.6284 14.7C90.3484 14.4467 90.2084 14.08 90.2084 13.6C90.2084 13.1067 90.3484 12.74 90.6284 12.5C90.9084 12.2467 91.335 12.12 91.9084 12.12C92.4817 12.12 92.9084 12.2467 93.1884 12.5C93.4684 12.74 93.6084 13.1067 93.6084 13.6C93.6084 14.08 93.4684 14.4467 93.1884 14.7C92.9084 14.94 92.4817 15.06 91.9084 15.06ZM93.2684 16.5V26.5H90.5284V16.5H93.2684ZM98.8729 12.12V23.42C98.8729 23.8867 98.9529 24.2133 99.1129 24.4C99.2729 24.5867 99.5396 24.68 99.9129 24.68C100.14 24.68 100.326 24.6667 100.473 24.64C100.62 24.6 100.806 24.5467 101.033 24.48L100.793 26.28C100.566 26.4133 100.28 26.5133 99.9329 26.58C99.5996 26.66 99.2662 26.7 98.9329 26.7C97.9596 26.7 97.2462 26.4667 96.7929 26C96.3529 25.52 96.1329 24.76 96.1329 23.72V12.12H98.8729ZM105.748 13.44V23.24C105.748 23.72 105.868 24.0733 106.108 24.3C106.361 24.5133 106.701 24.62 107.128 24.62C107.461 24.62 107.755 24.5733 108.008 24.48C108.261 24.3733 108.488 24.2333 108.688 24.06L109.128 25.88C108.808 26.1333 108.408 26.3333 107.928 26.48C107.448 26.6267 106.941 26.7 106.408 26.7C105.741 26.7 105.148 26.6 104.628 26.4C104.121 26.2 103.721 25.88 103.428 25.44C103.148 25 103.008 24.4133 103.008 23.68V14.2L105.748 13.44ZM108.948 16.5V18.54H101.168V16.5H108.948ZM110.802 26.5V16.5H113.182L113.362 18.46C113.628 17.7667 114.015 17.2333 114.522 16.86C115.042 16.4867 115.688 16.3 116.462 16.3C116.688 16.3 116.895 16.32 117.082 16.36C117.268 16.4 117.422 16.4533 117.542 16.52L117.222 18.82C117.088 18.7667 116.922 18.7267 116.722 18.7C116.535 18.6733 116.288 18.66 115.982 18.66C115.582 18.66 115.195 18.76 114.822 18.96C114.448 19.1467 114.142 19.44 113.902 19.84C113.662 20.2267 113.542 20.72 113.542 21.32V26.5H110.802ZM124.764 20.12C124.764 19.5467 124.597 19.1 124.264 18.78C123.944 18.46 123.517 18.3 122.984 18.3C122.49 18.3 122.057 18.4267 121.684 18.68C121.31 18.9333 121.037 19.3533 120.864 19.94L118.524 19.22C118.75 18.34 119.244 17.6333 120.004 17.1C120.777 16.5667 121.81 16.3 123.104 16.3C123.984 16.3 124.75 16.44 125.404 16.72C126.057 16.9867 126.564 17.3933 126.924 17.94C127.297 18.4867 127.484 19.1733 127.484 20V24.06C127.484 24.5667 127.724 24.82 128.204 24.82C128.43 24.82 128.644 24.7867 128.844 24.72L128.684 26.42C128.337 26.5933 127.904 26.68 127.384 26.68C126.917 26.68 126.497 26.6 126.124 26.44C125.75 26.28 125.457 26.04 125.244 25.72C125.03 25.3867 124.924 24.9733 124.924 24.48V24.4L125.404 24.32C125.324 24.8267 125.104 25.26 124.744 25.62C124.384 25.9667 123.944 26.2333 123.424 26.42C122.917 26.6067 122.39 26.7 121.844 26.7C121.164 26.7 120.577 26.6 120.084 26.4C119.59 26.1867 119.21 25.88 118.944 25.48C118.677 25.08 118.544 24.5867 118.544 24C118.544 23.2533 118.784 22.6467 119.264 22.18C119.744 21.7 120.43 21.3733 121.324 21.2L125.084 20.44L125.064 22.14L122.664 22.62C122.21 22.7133 121.864 22.84 121.624 23C121.397 23.1467 121.284 23.3933 121.284 23.74C121.284 24.0733 121.404 24.3267 121.644 24.5C121.897 24.6733 122.197 24.76 122.544 24.76C122.824 24.76 123.097 24.7267 123.364 24.66C123.63 24.5933 123.87 24.4867 124.084 24.34C124.297 24.1933 124.464 23.9933 124.584 23.74C124.704 23.4867 124.764 23.18 124.764 22.82V20.12ZM130.548 26.5V16.5H132.928L133.108 18.46C133.375 17.7667 133.761 17.2333 134.268 16.86C134.788 16.4867 135.435 16.3 136.208 16.3C136.435 16.3 136.641 16.32 136.828 16.36C137.015 16.4 137.168 16.4533 137.288 16.52L136.968 18.82C136.835 18.7667 136.668 18.7267 136.468 18.7C136.281 18.6733 136.035 18.66 135.728 18.66C135.328 18.66 134.941 18.76 134.568 18.96C134.195 19.1467 133.888 19.44 133.648 19.84C133.408 20.2267 133.288 20.72 133.288 21.32V26.5H130.548ZM144.728 30.7V16.5H147.188L147.368 19.68L147.028 19.32C147.148 18.7333 147.368 18.2133 147.688 17.76C148.021 17.3067 148.441 16.9533 148.948 16.7C149.454 16.4333 150.021 16.3 150.648 16.3C151.461 16.3 152.188 16.5067 152.828 16.92C153.468 17.3333 153.968 17.9267 154.328 18.7C154.701 19.46 154.888 20.3867 154.888 21.48C154.888 22.5733 154.701 23.5133 154.328 24.3C153.954 25.0733 153.441 25.6667 152.788 26.08C152.148 26.4933 151.414 26.7 150.588 26.7C149.708 26.7 148.974 26.4533 148.388 25.96C147.814 25.4667 147.421 24.8467 147.208 24.1L147.468 23.68V30.7H144.728ZM149.788 24.6C150.521 24.6 151.094 24.34 151.508 23.82C151.934 23.2867 152.148 22.5133 152.148 21.5C152.148 20.4867 151.941 19.72 151.528 19.2C151.128 18.6667 150.561 18.4 149.828 18.4C149.361 18.4 148.948 18.5267 148.588 18.78C148.241 19.02 147.968 19.3733 147.768 19.84C147.568 20.2933 147.468 20.8467 147.468 21.5C147.468 22.14 147.561 22.6933 147.748 23.16C147.934 23.6267 148.201 23.9867 148.548 24.24C148.908 24.48 149.321 24.6 149.788 24.6ZM161.827 16.3C162.84 16.3 163.727 16.5067 164.487 16.92C165.26 17.3333 165.86 17.9267 166.287 18.7C166.727 19.4733 166.947 20.4067 166.947 21.5C166.947 22.58 166.727 23.5133 166.287 24.3C165.86 25.0733 165.26 25.6667 164.487 26.08C163.727 26.4933 162.84 26.7 161.827 26.7C160.827 26.7 159.94 26.4933 159.167 26.08C158.393 25.6667 157.787 25.0733 157.347 24.3C156.92 23.5133 156.707 22.58 156.707 21.5C156.707 20.4067 156.92 19.4733 157.347 18.7C157.787 17.9267 158.393 17.3333 159.167 16.92C159.94 16.5067 160.827 16.3 161.827 16.3ZM161.827 18.34C161.32 18.34 160.887 18.46 160.527 18.7C160.18 18.9267 159.913 19.2733 159.727 19.74C159.54 20.2067 159.447 20.7933 159.447 21.5C159.447 22.2067 159.54 22.7933 159.727 23.26C159.913 23.7267 160.18 24.08 160.527 24.32C160.887 24.5467 161.32 24.66 161.827 24.66C162.32 24.66 162.74 24.5467 163.087 24.32C163.447 24.08 163.72 23.7267 163.907 23.26C164.093 22.7933 164.187 22.2067 164.187 21.5C164.187 20.7933 164.093 20.2067 163.907 19.74C163.72 19.2733 163.447 18.9267 163.087 18.7C162.74 18.46 162.32 18.34 161.827 18.34ZM169.239 26.5V16.5H171.619L171.799 18.46C172.066 17.7667 172.453 17.2333 172.959 16.86C173.479 16.4867 174.126 16.3 174.899 16.3C175.126 16.3 175.333 16.32 175.519 16.36C175.706 16.4 175.859 16.4533 175.979 16.52L175.659 18.82C175.526 18.7667 175.359 18.7267 175.159 18.7C174.973 18.6733 174.726 18.66 174.419 18.66C174.019 18.66 173.633 18.76 173.259 18.96C172.886 19.1467 172.579 19.44 172.339 19.84C172.099 20.2267 171.979 20.72 171.979 21.32V26.5H169.239ZM188.059 26.7C187.006 26.7 186.086 26.4933 185.299 26.08C184.526 25.6667 183.926 25.0733 183.499 24.3C183.072 23.5267 182.859 22.5933 182.859 21.5C182.859 20.4067 183.072 19.4733 183.499 18.7C183.926 17.9267 184.519 17.3333 185.279 16.92C186.052 16.5067 186.932 16.3 187.919 16.3C188.932 16.3 189.792 16.5067 190.499 16.92C191.206 17.32 191.746 17.8733 192.119 18.58C192.492 19.2733 192.679 20.0667 192.679 20.96C192.679 21.2267 192.672 21.48 192.659 21.72C192.646 21.96 192.626 22.1733 192.599 22.36H184.619V20.46H191.399L190.079 20.94C190.079 20.1 189.886 19.4533 189.499 19C189.126 18.5467 188.592 18.32 187.899 18.32C187.392 18.32 186.952 18.44 186.579 18.68C186.219 18.92 185.946 19.28 185.759 19.76C185.572 20.2267 185.479 20.82 185.479 21.54C185.479 22.2467 185.579 22.8333 185.779 23.3C185.992 23.7533 186.286 24.0933 186.659 24.32C187.046 24.5467 187.506 24.66 188.039 24.66C188.626 24.66 189.099 24.5467 189.459 24.32C189.819 24.0933 190.099 23.78 190.299 23.38L192.479 24.22C192.266 24.74 191.939 25.1867 191.499 25.56C191.072 25.9333 190.559 26.22 189.959 26.42C189.372 26.6067 188.739 26.7 188.059 26.7ZM199.001 26.7C197.988 26.7 197.061 26.52 196.221 26.16C195.394 25.8 194.721 25.2933 194.201 24.64L195.781 23.04C196.101 23.52 196.528 23.9133 197.061 24.22C197.594 24.5267 198.228 24.68 198.961 24.68C199.481 24.68 199.894 24.6067 200.201 24.46C200.521 24.3 200.681 24.0533 200.681 23.72C200.681 23.5067 200.608 23.3267 200.461 23.18C200.314 23.02 200.021 22.8933 199.581 22.8L197.821 22.44C196.661 22.2 195.834 21.84 195.341 21.36C194.861 20.8667 194.621 20.2333 194.621 19.46C194.621 18.9133 194.781 18.4 195.101 17.92C195.434 17.44 195.928 17.0533 196.581 16.76C197.234 16.4533 198.048 16.3 199.021 16.3C200.021 16.3 200.888 16.46 201.621 16.78C202.368 17.0867 202.954 17.5467 203.381 18.16L201.741 19.76C201.448 19.2933 201.061 18.94 200.581 18.7C200.114 18.4467 199.621 18.32 199.101 18.32C198.728 18.32 198.408 18.36 198.141 18.44C197.874 18.52 197.674 18.6333 197.541 18.78C197.408 18.9133 197.341 19.0867 197.341 19.3C197.341 19.5133 197.434 19.7 197.621 19.86C197.808 20.0067 198.148 20.1333 198.641 20.24L200.681 20.66C201.668 20.86 202.374 21.2 202.801 21.68C203.228 22.1467 203.441 22.7133 203.441 23.38C203.441 24.02 203.268 24.5933 202.921 25.1C202.588 25.5933 202.088 25.9867 201.421 26.28C200.768 26.56 199.961 26.7 199.001 26.7ZM209.166 13.44V23.24C209.166 23.72 209.286 24.0733 209.526 24.3C209.779 24.5133 210.119 24.62 210.546 24.62C210.879 24.62 211.173 24.5733 211.426 24.48C211.679 24.3733 211.906 24.2333 212.106 24.06L212.546 25.88C212.226 26.1333 211.826 26.3333 211.346 26.48C210.866 26.6267 210.359 26.7 209.826 26.7C209.159 26.7 208.566 26.6 208.046 26.4C207.539 26.2 207.139 25.88 206.846 25.44C206.566 25 206.426 24.4133 206.426 23.68V14.2L209.166 13.44ZM212.366 16.5V18.54H204.586V16.5H212.366ZM220.017 20.12C220.017 19.5467 219.851 19.1 219.517 18.78C219.197 18.46 218.771 18.3 218.237 18.3C217.744 18.3 217.311 18.4267 216.937 18.68C216.564 18.9333 216.291 19.3533 216.117 19.94L213.777 19.22C214.004 18.34 214.497 17.6333 215.257 17.1C216.031 16.5667 217.064 16.3 218.357 16.3C219.237 16.3 220.004 16.44 220.657 16.72C221.311 16.9867 221.817 17.3933 222.177 17.94C222.551 18.4867 222.737 19.1733 222.737 20V24.06C222.737 24.5667 222.977 24.82 223.457 24.82C223.684 24.82 223.897 24.7867 224.097 24.72L223.937 26.42C223.591 26.5933 223.157 26.68 222.637 26.68C222.171 26.68 221.751 26.6 221.377 26.44C221.004 26.28 220.711 26.04 220.497 25.72C220.284 25.3867 220.177 24.9733 220.177 24.48V24.4L220.657 24.32C220.577 24.8267 220.357 25.26 219.997 25.62C219.637 25.9667 219.197 26.2333 218.677 26.42C218.171 26.6067 217.644 26.7 217.097 26.7C216.417 26.7 215.831 26.6 215.337 26.4C214.844 26.1867 214.464 25.88 214.197 25.48C213.931 25.08 213.797 24.5867 213.797 24C213.797 23.2533 214.037 22.6467 214.517 22.18C214.997 21.7 215.684 21.3733 216.577 21.2L220.337 20.44L220.317 22.14L217.917 22.62C217.464 22.7133 217.117 22.84 216.877 23C216.651 23.1467 216.537 23.3933 216.537 23.74C216.537 24.0733 216.657 24.3267 216.897 24.5C217.151 24.6733 217.451 24.76 217.797 24.76C218.077 24.76 218.351 24.7267 218.617 24.66C218.884 24.5933 219.124 24.4867 219.337 24.34C219.551 24.1933 219.717 23.9933 219.837 23.74C219.957 23.4867 220.017 23.18 220.017 22.82V20.12ZM229.543 26.7C228.716 26.7 227.976 26.4933 227.323 26.08C226.683 25.6667 226.176 25.0733 225.803 24.3C225.443 23.5267 225.263 22.6 225.263 21.52C225.263 20.4133 225.456 19.4733 225.843 18.7C226.229 17.9133 226.749 17.32 227.403 16.92C228.069 16.5067 228.816 16.3 229.643 16.3C230.523 16.3 231.249 16.5533 231.823 17.06C232.396 17.5667 232.769 18.22 232.943 19.02L232.683 19.34V12.12H235.423V26.5H232.963L232.783 23.46L233.123 23.62C233.029 24.2467 232.816 24.7933 232.483 25.26C232.149 25.7133 231.729 26.0667 231.223 26.32C230.716 26.5733 230.156 26.7 229.543 26.7ZM230.343 24.6C230.823 24.6 231.236 24.48 231.583 24.24C231.929 23.9867 232.196 23.62 232.383 23.14C232.583 22.66 232.683 22.0867 232.683 21.42C232.683 20.78 232.589 20.24 232.403 19.8C232.216 19.3467 231.949 19 231.603 18.76C231.256 18.52 230.849 18.4 230.383 18.4C229.636 18.4 229.049 18.6667 228.623 19.2C228.209 19.72 228.003 20.4867 228.003 21.5C228.003 22.5133 228.209 23.2867 228.623 23.82C229.036 24.34 229.609 24.6 230.343 24.6ZM242.862 16.3C243.875 16.3 244.762 16.5067 245.522 16.92C246.295 17.3333 246.895 17.9267 247.322 18.7C247.762 19.4733 247.982 20.4067 247.982 21.5C247.982 22.58 247.762 23.5133 247.322 24.3C246.895 25.0733 246.295 25.6667 245.522 26.08C244.762 26.4933 243.875 26.7 242.862 26.7C241.862 26.7 240.975 26.4933 240.202 26.08C239.428 25.6667 238.822 25.0733 238.382 24.3C237.955 23.5133 237.742 22.58 237.742 21.5C237.742 20.4067 237.955 19.4733 238.382 18.7C238.822 17.9267 239.428 17.3333 240.202 16.92C240.975 16.5067 241.862 16.3 242.862 16.3ZM242.862 18.34C242.355 18.34 241.922 18.46 241.562 18.7C241.215 18.9267 240.948 19.2733 240.762 19.74C240.575 20.2067 240.482 20.7933 240.482 21.5C240.482 22.2067 240.575 22.7933 240.762 23.26C240.948 23.7267 241.215 24.08 241.562 24.32C241.922 24.5467 242.355 24.66 242.862 24.66C243.355 24.66 243.775 24.5467 244.122 24.32C244.482 24.08 244.755 23.7267 244.942 23.26C245.128 22.7933 245.222 22.2067 245.222 21.5C245.222 20.7933 245.128 20.2067 244.942 19.74C244.755 19.2733 244.482 18.9267 244.122 18.7C243.775 18.46 243.355 18.34 242.862 18.34Z" fill="#002C4D"/>
<path d="M260.723 15.4266L266.629 21.3919L266.842 21.6072L267.055 21.3919L272.962 15.4266L274.421 16.9028L266.842 24.5732L259.264 16.9028L260.723 15.4266Z" fill="#002C4D" stroke="#002C4D" stroke-width="0.6"/>
</svg>
