<svg width="16" height="14" viewBox="0 0 16 14" fill="none" xmlns="http://www.w3.org/2000/svg">
<path d="M1.33333 8.3C0.962963 8.3 0.648296 8.17347 0.389333 7.9204C0.129778 7.66791 0 7.36111 0 7C0 6.63889 0.129778 6.33209 0.389333 6.0796C0.648296 5.82653 0.962963 5.7 1.33333 5.7C1.7037 5.7 2.01837 5.82653 2.27733 6.0796C2.53689 6.33209 2.66667 6.63889 2.66667 7C2.66667 7.36111 2.53689 7.66791 2.27733 7.9204C2.01837 8.17347 1.7037 8.3 1.33333 8.3ZM1.33333 3.1C0.962963 3.1 0.648296 2.97347 0.389333 2.7204C0.129778 2.46791 0 2.16111 0 1.8C0 1.43889 0.129778 1.13209 0.389333 0.8796C0.648296 0.626534 0.962963 0.5 1.33333 0.5C1.7037 0.5 2.01837 0.626534 2.27733 0.8796C2.53689 1.13209 2.66667 1.43889 2.66667 1.8C2.66667 2.16111 2.53689 2.46791 2.27733 2.7204C2.01837 2.97347 1.7037 3.1 1.33333 3.1ZM1.33333 13.5C0.962963 13.5 0.648296 13.3735 0.389333 13.1204C0.129778 12.8679 0 12.5611 0 12.2C0 11.8389 0.129778 11.5321 0.389333 11.2796C0.648296 11.0265 0.962963 10.9 1.33333 10.9C1.7037 10.9 2.01837 11.0265 2.27733 11.2796C2.53689 11.5321 2.66667 11.8389 2.66667 12.2C2.66667 12.5611 2.53689 12.8679 2.27733 13.1204C2.01837 13.3735 1.7037 13.5 1.33333 13.5ZM5.33333 13.0667C5.08148 13.0667 4.87052 12.9835 4.70044 12.8171C4.52978 12.6512 4.44444 12.4456 4.44444 12.2C4.44444 11.9544 4.52978 11.7488 4.70044 11.5829C4.87052 11.4165 5.08148 11.3333 5.33333 11.3333H15.1111C15.363 11.3333 15.5739 11.4165 15.744 11.5829C15.9147 11.7488 16 11.9544 16 12.2C16 12.4456 15.9147 12.6512 15.744 12.8171C15.5739 12.9835 15.363 13.0667 15.1111 13.0667H5.33333ZM5.33333 7.86667C5.08148 7.86667 4.87052 7.78347 4.70044 7.61707C4.52978 7.45124 4.44444 7.24556 4.44444 7C4.44444 6.75444 4.52978 6.54847 4.70044 6.38207C4.87052 6.21624 5.08148 6.13333 5.33333 6.13333H15.1111C15.363 6.13333 15.5739 6.21624 15.744 6.38207C15.9147 6.54847 16 6.75444 16 7C16 7.24556 15.9147 7.45124 15.744 7.61707C15.5739 7.78347 15.363 7.86667 15.1111 7.86667H5.33333ZM5.33333 2.66667C5.08148 2.66667 4.87052 2.58376 4.70044 2.41793C4.52978 2.25153 4.44444 2.04556 4.44444 1.8C4.44444 1.55444 4.52978 1.34847 4.70044 1.18207C4.87052 1.01624 5.08148 0.933333 5.33333 0.933333H15.1111C15.363 0.933333 15.5739 1.01624 15.744 1.18207C15.9147 1.34847 16 1.55444 16 1.8C16 2.04556 15.9147 2.25153 15.744 2.41793C15.5739 2.58376 15.363 2.66667 15.1111 2.66667H5.33333Z" fill="white"/>
</svg>
