<svg width="60" height="60" viewBox="0 0 60 60" fill="none" xmlns="http://www.w3.org/2000/svg">
<g filter="url(#filter0_d_1717_1512)">
<path d="M30.0001 54C44.9118 54 57.0001 41.9117 57.0001 27C57.0001 12.0883 44.9118 0 30.0001 0C15.0883 0 3 12.0883 3 27C3 41.9117 15.0883 54 30.0001 54Z" fill="#00324D"/>
<g opacity="0.24">
<mask id="mask0_1717_1512" style="mask-type:luminance" maskUnits="userSpaceOnUse" x="3" y="0" width="55" height="54">
<path d="M30.0079 54C44.9196 54 57.0079 41.9117 57.0079 27C57.0079 12.0883 44.9196 0 30.0079 0C15.0962 0 3.00781 12.0883 3.00781 27C3.00781 41.9117 15.0962 54 30.0079 54Z" fill="white"/>
</mask>
<g mask="url(#mask0_1717_1512)">
<path opacity="0.24" d="M107.844 76.0112C107.886 77.3384 107.743 78.4932 107.421 79.4789C106.248 81.6405 104.867 82.7481 103.273 82.7969C100.175 82.8945 96.1961 78.8543 91.3345 70.6843C88.4361 65.8162 85.6742 61.7841 83.0507 58.5896C80.4271 55.3968 78.6266 53.8126 77.6539 53.8435C76.6796 53.8744 75.0352 56.5386 72.724 61.8362C70.9999 66.1415 69.2774 69.1636 67.5614 70.899C65.6779 72.9972 63.1878 74.0919 60.0925 74.1895C55.8457 74.3228 50.7515 72.114 44.8066 67.5615C38.8633 63.0105 32.9688 57.1957 27.1215 50.1155C21.2759 43.0386 16.7411 36.0934 13.5158 29.2865C11.4322 24.9242 10.3392 21.1946 10.2416 18.0978C10.1863 16.3281 10.4482 14.7699 11.0256 13.4232C13.3596 8.74537 16.7818 6.33488 21.2937 6.19338C24.4784 6.09416 29.7614 7.87681 37.1376 11.5413C51.7176 18.968 59.0727 24.7144 59.1996 28.7839C59.2305 29.7582 58.9051 30.6528 58.2204 31.4709C57.2006 32.8307 55.94 33.5349 54.4339 33.5821C52.6642 33.6374 44.3853 30.887 29.5971 25.3276L29.602 25.461C29.6442 26.7882 32.8192 31.2725 39.1235 38.9122C45.4311 46.5519 50.7612 52.0316 55.1154 55.348C55.8473 56.0344 56.3889 56.3711 56.7419 56.3597C57.2721 56.3434 58.035 55.213 59.0271 52.9668C63.9408 43.0711 69.6287 38.0209 76.0876 37.8175C80.6874 37.6728 85.6287 39.9092 90.9116 44.5269C96.2092 49.6748 100.568 55.914 103.987 63.2463C106.453 68.4837 107.739 72.737 107.842 76.0112H107.844Z" fill="black"/>
</g>
</g>
<path d="M38.4475 42.5324H20.6758C20.6758 42.5324 20.6423 42.5084 20.6232 42.5037C19.0259 42.0876 18.3037 41.155 18.3037 39.5098C18.3037 36.0617 18.3037 32.6135 18.3037 29.1605C18.3037 25.0333 18.3037 20.9012 18.3037 16.7739C18.3037 15.8031 18.6672 15.0187 19.4467 14.4401C19.9345 14.0766 20.4941 13.9188 21.0967 13.9188C22.1919 13.9188 23.2823 13.9188 24.387 13.9188C24.4109 13.8231 24.4301 13.7466 24.4444 13.6653C24.7027 12.4219 25.7931 11.4988 27.0652 11.4893C28.7295 11.4749 30.3938 11.4749 32.0533 11.4893C33.249 11.4988 34.2868 12.3119 34.6168 13.4644C34.6598 13.6079 34.6933 13.7562 34.7315 13.9188C34.8511 13.9188 34.9611 13.9188 35.0711 13.9188C36.0467 13.9188 37.0176 13.914 37.9932 13.9188C38.2562 13.9188 38.524 13.9475 38.7727 14.0096C40.0162 14.3253 40.8148 15.4109 40.8148 16.7644C40.8148 22.0012 40.8148 27.2332 40.8148 32.47C40.8148 34.8947 40.8148 37.3194 40.8148 39.7442C40.8148 40.9541 40.1023 41.968 38.9927 42.3602C38.811 42.4224 38.6245 42.4702 38.4427 42.5228L38.4475 42.5324ZM24.387 15.7505C23.2727 15.7505 22.2014 15.7505 21.1254 15.7505C20.4989 15.7505 20.1258 16.1235 20.1258 16.7596C20.1258 24.4068 20.1258 32.0539 20.1258 39.7059C20.1258 40.3372 20.4989 40.7102 21.1254 40.7102C26.7448 40.7102 32.3642 40.7102 37.9788 40.7102C38.6101 40.7102 38.9879 40.3372 38.9879 39.7107C38.9879 32.0539 38.9879 24.3924 38.9879 16.7357C38.9879 16.1283 38.6053 15.7552 37.9932 15.7552C36.9889 15.7552 35.9845 15.7552 34.9802 15.7552C34.9037 15.7552 34.8224 15.7648 34.7507 15.7696C34.6454 16.7739 34.4255 16.97 33.4211 16.97C32.0103 16.97 30.5995 16.97 29.1934 16.97C27.9165 16.97 26.6396 16.97 25.3579 16.97C24.7648 16.97 24.3966 16.597 24.3822 16.0039C24.3822 15.9322 24.3822 15.8652 24.3822 15.7552L24.387 15.7505ZM26.2187 15.1192H32.9094C32.9094 14.7844 32.9238 14.4735 32.9094 14.1627C32.8807 13.694 32.5029 13.321 32.0294 13.321C30.389 13.3114 28.7486 13.3114 27.1083 13.321C26.6348 13.321 26.257 13.6988 26.2283 14.1627C26.2092 14.4735 26.2283 14.7892 26.2283 15.1192H26.2187Z" fill="white"/>
<path d="M29.8627 20.6199C27.7536 20.6199 25.6445 20.6199 23.5402 20.6199C22.799 20.6199 22.3446 19.9312 22.6603 19.3047C22.842 18.9412 23.1529 18.793 23.5546 18.793C24.7932 18.793 26.0271 18.793 27.2658 18.793C30.2357 18.793 33.2056 18.793 36.1755 18.793C36.9073 18.793 37.3712 19.4434 37.089 20.0651C36.912 20.4573 36.5868 20.6199 36.1564 20.6199C34.0569 20.6199 31.9622 20.6199 29.8627 20.6199Z" fill="white"/>
<path d="M26.0655 30.6761C26.3047 30.8961 26.5007 31.0683 26.6873 31.2596C27.0986 31.6804 27.1129 32.24 26.7303 32.613C26.3621 32.9717 25.8025 32.9526 25.4008 32.5508C25.2095 32.3595 25.0325 32.1491 24.8077 31.9004C24.5686 32.1635 24.3869 32.3787 24.186 32.5748C23.7843 32.9621 23.2152 32.9621 22.8565 32.5843C22.5074 32.2209 22.5265 31.6661 22.9091 31.2739C23.1004 31.0778 23.306 30.8961 23.593 30.6235C23.3539 30.4274 23.1339 30.2696 22.9378 30.0783C22.5217 29.6718 22.4978 29.1027 22.8708 28.7296C23.2439 28.3566 23.8034 28.3757 24.2195 28.787C24.406 28.9736 24.5782 29.1744 24.8269 29.447C25.0373 29.1983 25.1999 28.9783 25.3912 28.7823C25.7977 28.3662 26.3716 28.3518 26.7399 28.7249C27.1081 29.0979 27.089 29.6431 26.692 30.0544C26.5055 30.2505 26.3047 30.4322 26.0608 30.6666L26.0655 30.6761Z" fill="white"/>
<path d="M33.5213 23.666C34.4012 23.666 35.2812 23.666 36.166 23.666C36.7542 23.666 37.1655 24.0438 37.1703 24.5747C37.1703 25.1055 36.759 25.4881 36.1755 25.4881C34.4012 25.4881 32.6317 25.4881 30.8574 25.4881C30.274 25.4881 29.8627 25.096 29.8722 24.5651C29.877 24.0486 30.2883 23.666 30.8526 23.666C31.7422 23.666 32.6365 23.666 33.526 23.666H33.5213Z" fill="white"/>
<path d="M33.522 31.575C32.642 31.575 31.7621 31.575 30.8773 31.575C30.2843 31.575 29.873 31.2019 29.8682 30.6711C29.8634 30.1306 30.2795 29.748 30.8869 29.748C32.6373 29.748 34.3924 29.748 36.1428 29.748C36.755 29.748 37.1711 30.1211 37.1711 30.6663C37.1711 31.2067 36.755 31.575 36.138 31.575C35.2676 31.575 34.3972 31.575 33.5268 31.575H33.522Z" fill="white"/>
<path d="M33.5506 35.8368C34.421 35.8368 35.2914 35.8368 36.1618 35.8368C36.7549 35.8368 37.1662 36.2098 37.1662 36.7407C37.1662 37.2716 36.7597 37.6589 36.1714 37.6589C34.3971 37.6589 32.6276 37.6589 30.8533 37.6589C30.2698 37.6589 29.8585 37.2716 29.8633 36.7359C29.8681 36.2051 30.2794 35.832 30.8724 35.832C31.762 35.832 32.6563 35.832 33.5458 35.832L33.5506 35.8368Z" fill="white"/>
<path d="M24.1435 36.6972C24.7891 36.0516 25.3869 35.4346 26.0087 34.8416C26.176 34.6838 26.4056 34.5499 26.6304 34.502C27.0178 34.4159 27.3669 34.6216 27.5438 34.9564C27.7208 35.2864 27.7017 35.7024 27.4338 35.9798C26.5491 36.8837 25.6548 37.7876 24.7461 38.6676C24.4017 39.0023 23.8852 38.9641 23.5313 38.6293C23.0866 38.2037 22.6466 37.7637 22.2209 37.3189C21.8622 36.9411 21.8766 36.3815 22.2353 36.0324C22.5796 35.6929 23.1296 35.6833 23.4979 36.0324C23.7178 36.2381 23.9187 36.4676 24.1435 36.7068V36.6972Z" fill="white"/>
<path d="M24.1242 24.6849C24.7985 24.0105 25.425 23.3888 26.0419 22.7623C26.2858 22.5136 26.5776 22.3893 26.9219 22.4658C27.601 22.6093 27.9023 23.4366 27.4241 23.9388C26.5537 24.857 25.645 25.7466 24.7363 26.6313C24.4063 26.9517 23.8802 26.9278 23.5455 26.6122C23.0816 26.1722 22.6272 25.7227 22.192 25.2588C21.8525 24.9001 21.8812 24.3644 22.2112 24.0201C22.5555 23.6662 23.0959 23.6375 23.4737 23.9818C23.7033 24.1923 23.8994 24.4409 24.1242 24.6896V24.6849Z" fill="white"/>
</g>
<defs>
<filter id="filter0_d_1717_1512" x="0.1812" y="0" width="59.6454" height="59.6376" filterUnits="userSpaceOnUse" color-interpolation-filters="sRGB">
<feFlood flood-opacity="0" result="BackgroundImageFix"/>
<feColorMatrix in="SourceAlpha" type="matrix" values="0 0 0 0 0 0 0 0 0 0 0 0 0 0 0 0 0 0 127 0" result="hardAlpha"/>
<feOffset dy="2.8188"/>
<feGaussianBlur stdDeviation="1.4094"/>
<feComposite in2="hardAlpha" operator="out"/>
<feColorMatrix type="matrix" values="0 0 0 0 0 0 0 0 0 0 0 0 0 0 0 0 0 0 0.25 0"/>
<feBlend mode="normal" in2="BackgroundImageFix" result="effect1_dropShadow_1717_1512"/>
<feBlend mode="normal" in="SourceGraphic" in2="effect1_dropShadow_1717_1512" result="shape"/>
</filter>
</defs>
</svg>
