<svg width="63" height="70" viewBox="0 0 63 70" fill="none" xmlns="http://www.w3.org/2000/svg">
  <path d="M23.8839 38.1153C22.9487 38.1153 22.0591 38.1609 21.1923 38.1039C17.4286 37.8531 14.4974 34.6378 14.6001 30.8524C14.6457 28.9825 14.794 27.1126 14.9309 25.2428C14.9536 24.8437 14.851 24.5929 14.5088 24.3534C13.5394 23.6807 13.0376 22.723 13.0262 21.5372C13.0034 20.1576 13.0034 18.7894 13.0262 17.4098C13.049 16.2012 13.5623 15.2206 14.5545 14.5479C14.9536 14.2857 15.0677 14.012 15.0563 13.5674C14.9423 10.4433 15.752 7.58147 17.6795 5.09587C20.0289 2.06302 23.1426 0.29575 26.9747 0.113322C30.0541 -0.0349005 33.1677 -0.0691055 36.2357 0.204534C40.6038 0.592195 43.8201 2.96376 45.9985 6.73773C46.3178 7.28503 46.1582 7.86652 45.6791 8.15156C45.1659 8.4594 44.6071 8.33396 44.2421 7.7183C43.4095 6.32725 42.4059 5.09587 41.0943 4.13813C39.1896 2.74712 37.0455 2.09722 34.7074 2.07442C32.4035 2.05162 30.0997 2.04022 27.8073 2.07442C21.8196 2.15423 17.1777 6.82893 17.1092 12.8263C17.0978 14.0918 17.1092 15.3461 17.1092 16.6573C19.0938 17.1703 20.8501 16.7371 22.4126 15.5285C23.7356 14.5023 24.42 13.0657 24.7963 11.4695C24.956 10.8082 25.2069 10.2609 25.914 10.0899C26.6326 9.91881 27.0773 10.3521 27.5107 10.8651C29.997 13.8866 33.2475 15.7565 36.9314 16.9195C39.509 17.729 42.1435 18.1509 44.8466 18.1851C45.0519 18.1851 45.2458 18.1851 45.5423 18.1851C45.5423 17.9 45.5423 17.6606 45.5423 17.4211C45.5309 15.6197 45.5309 13.8068 45.5195 12.0053C45.5195 11.2528 45.8502 10.7853 46.4433 10.7398C47.0363 10.6941 47.4811 11.173 47.5496 11.9369C47.561 12.1194 47.5838 12.3018 47.5724 12.4728C47.4925 13.4762 47.5838 14.3313 48.5874 14.9926C49.3744 15.5171 49.6139 16.4976 49.6139 17.4668C49.6253 18.8007 49.6253 20.1234 49.6139 21.4574C49.6025 22.666 49.0665 23.6009 48.1312 24.3534C47.9146 24.5245 47.7207 24.8893 47.7321 25.163C47.7891 26.8732 47.9374 28.5835 48.0172 30.2937C48.2225 34.786 45.1773 38.0127 40.6723 38.1153C40.045 38.1267 39.4177 38.1153 38.7904 38.1153C38.8589 39.3125 39.1782 39.6203 40.2845 39.6203C44.3904 39.6203 48.4962 39.6089 52.602 39.6203C54.3813 39.6203 55.6928 40.5895 55.9436 42.1515C56.0466 42.7672 55.9326 43.4171 55.9779 44.0442C55.9893 44.2837 56.0918 44.5915 56.263 44.7169C58.6811 46.4842 59.9468 48.89 60.426 51.8087C61.1444 56.21 61.9201 60.5994 62.65 65.0007C63.0605 67.4974 61.5211 69.299 58.9891 69.299C50.5949 69.3105 42.2006 69.299 33.8178 69.299C23.8269 69.299 13.8246 69.299 3.83364 69.299C1.16483 69.299 -0.352058 67.5317 0.069933 64.9091C0.161174 64.3051 0.263821 63.712 0.366467 63.108C1.08499 58.9351 1.7579 54.7507 2.54485 50.5887C2.98965 48.2172 4.31265 46.3132 6.25151 44.8765C6.61647 44.6029 6.79897 44.3521 6.74195 43.8846C6.35416 40.9885 7.89387 39.4835 10.8592 39.5862C14.6913 39.7115 18.5235 39.6203 22.367 39.6203C23.4619 39.6773 23.6786 39.4835 23.8839 38.1153ZM52.6478 63.3473C52.7732 61.3865 52.8871 59.5277 53.0011 57.6579C53.2976 52.869 53.6056 48.069 53.8907 43.2803C53.9593 42.0489 53.617 41.7069 52.3741 41.7069C38.3228 41.7069 24.2717 41.7069 10.2205 41.7069C8.93176 41.7069 8.61238 42.0261 8.68085 43.3259C9.00017 48.7988 9.34234 54.2601 9.6845 59.7331C9.75292 60.9188 9.84417 62.1045 9.92397 63.313C10.1293 63.3245 10.289 63.3473 10.4372 63.3473C11.3838 63.3588 12.3305 63.3359 13.2771 63.3702C13.8473 63.3931 14.2009 63.7235 14.2351 64.3051C14.2694 64.8868 13.95 65.24 13.3797 65.3311C13.1402 65.3768 12.8893 65.3768 12.6384 65.3768C10.882 65.3768 9.11421 65.3654 7.35782 65.3883C6.71916 65.3997 6.35416 65.7759 6.34277 66.3232C6.34277 66.8705 6.71916 67.2466 7.33503 67.2924C7.49469 67.3038 7.65435 67.2924 7.81402 67.2924C23.4619 67.2924 39.1212 67.2924 54.7688 67.2924C54.9972 67.2924 55.2251 67.3038 55.442 67.2581C55.9326 67.1327 56.2287 66.8133 56.1948 66.2888C56.1719 65.7644 55.8754 65.4565 55.3619 65.3997C55.0997 65.3654 54.8261 65.3768 54.5524 65.3768C42.577 65.3768 30.6016 65.3768 18.6261 65.3768C18.2954 65.3768 17.9418 65.3654 17.6224 65.2858C17.1206 65.1604 16.8127 64.7499 16.961 64.2708C17.0636 63.929 17.4172 63.6095 17.7365 63.4046C17.9532 63.2677 18.3068 63.3473 18.6033 63.3473C29.6321 63.3473 40.6609 63.3473 51.6895 63.3473C51.9861 63.3473 52.2711 63.3473 52.6478 63.3473ZM26.4728 12.9403C26.2904 13.3621 26.1535 13.7498 25.9825 14.1146C25.0586 16.0872 23.6444 17.5808 21.58 18.3675C21.0098 18.5841 20.1772 18.6411 19.9263 19.0516C19.6298 19.5305 19.835 20.3172 19.8465 20.9671C19.8465 22.0959 19.7096 23.2474 19.9035 24.3306C20.4053 27.1126 21.8196 29.4386 23.747 31.4909C26.872 34.8202 31.514 35.778 35.6198 33.8397C36.6234 33.3608 37.5701 32.7679 38.3912 31.8443C38.1175 31.8216 37.9693 31.7988 37.821 31.7873C37.1595 31.7531 36.612 31.7645 36.1901 32.4942C35.8023 33.1784 35.0153 33.452 34.2056 33.4748C33.4642 33.4976 32.7115 33.4976 31.9702 33.4748C30.8867 33.4292 29.9286 32.6995 29.5865 31.6733C29.2215 30.5902 29.461 29.6096 30.2708 28.8115C31.4455 27.6485 35.0039 27.6143 36.0304 28.9141C36.6805 29.735 37.3648 29.792 38.2202 29.7578C38.6878 29.735 39.1668 29.7236 39.6458 29.7578C40.102 29.792 40.3644 29.621 40.6267 29.2334C42.4971 26.6224 42.9989 23.6921 42.691 20.568C42.6682 20.397 42.4058 20.1348 42.2234 20.1005C41.5391 19.9638 40.8433 19.9181 40.1476 19.7927C35.4715 18.9946 31.2402 17.2274 27.6704 14.0577C27.2712 13.727 26.8949 13.3394 26.4728 12.9403ZM7.87104 63.2792C7.54032 57.8857 7.19815 52.5157 6.85599 47.0315C5.62426 48.126 4.81448 49.3574 4.54075 50.8171C3.62834 55.7537 2.78436 60.7024 1.94038 65.6619C1.80352 66.4829 2.37377 67.2013 3.19495 67.3038C3.58272 67.3496 3.9819 67.3153 4.39249 67.3153C4.13017 64.6813 4.99695 63.6897 7.87104 63.2792ZM54.6892 63.3359C55.8296 63.313 56.7879 63.5414 57.5178 64.3733C58.2592 65.2171 58.3388 66.2207 58.1562 67.3153C58.396 67.3153 58.5786 67.3153 58.7492 67.3153C60.2434 67.3267 60.7797 66.6879 60.5285 65.1942C60.1066 62.6861 59.6961 60.1775 59.2627 57.6693C58.8408 55.2751 58.4418 52.8804 57.9168 50.5091C57.6203 49.1636 56.8446 48.0234 55.6928 47.0315C55.3619 52.5271 55.0316 57.8857 54.6892 63.3359ZM23.9523 36.0972C24.0664 35.1737 24.1006 34.4325 23.2338 33.7598C21.7967 32.6539 20.6448 31.2401 19.8123 29.621C19.0709 28.173 18.4322 26.6565 17.7365 25.1287C17.5768 25.1287 17.2917 25.1287 16.9496 25.1287C16.8469 27.1126 16.71 29.0623 16.6644 31.0234C16.6188 32.6311 17.3374 33.9309 18.5577 34.9571C20.143 36.3138 22.0363 36.1542 23.9523 36.0972ZM26.1421 35.7552C26.0281 37.1005 25.914 38.3662 25.8114 39.6203C29.461 39.6203 33.1449 39.6203 36.7603 39.6203C36.6463 38.3091 36.5322 37.055 36.4182 35.7552C32.9852 37.2602 29.5751 37.2602 26.1421 35.7552ZM45.8959 30.9664C45.1887 31.7759 44.3675 31.8102 43.5235 31.7988C42.9647 31.7874 42.3945 31.7531 41.8356 31.8102C41.5162 31.8443 41.1627 32.004 40.9232 32.2206C40.3644 32.7109 39.9423 33.3722 39.3379 33.7712C38.4027 34.3755 38.4939 35.1851 38.6194 36.0516C43.3297 36.7357 45.8046 34.2159 45.8959 30.9664ZM15.0449 17.4325C15.0449 18.7666 15.0335 20.0892 15.0449 21.4232C15.0563 22.3011 15.5923 22.9396 16.3793 23.0422C16.8127 23.0992 17.2689 23.0536 17.7251 23.0536C17.7251 21.6398 17.7251 20.283 17.7251 18.9262C16.6302 18.7438 15.6494 18.4587 15.0449 17.4325ZM44.7896 23.065C45.2115 23.065 45.5765 23.0764 45.93 23.065C46.8197 23.0308 47.4584 22.4379 47.504 21.5372C47.5496 20.6706 47.5154 19.7927 47.5154 18.9262C46.9337 20.0436 45.9757 20.3742 44.7896 20.2602C44.7896 21.2293 44.7896 22.0959 44.7896 23.065ZM33.1449 31.4567C33.487 31.4567 33.8178 31.4795 34.1599 31.4567C34.5819 31.4225 34.8899 31.1717 34.7872 30.7612C34.7302 30.5104 34.4108 30.1683 34.1713 30.1341C33.5098 30.0429 32.8141 30.0429 32.1526 30.1341C31.9017 30.1683 31.571 30.5559 31.5254 30.8182C31.5025 31.0006 31.8789 31.3427 32.1412 31.4339C32.4378 31.5365 32.8027 31.4567 33.1449 31.4567ZM44.55 25.8584C43.957 27.1925 43.4095 28.4238 42.8279 29.7578C43.1928 29.7578 43.5235 29.8148 43.8429 29.735C44.0368 29.6894 44.3105 29.4614 44.3333 29.3018C44.4246 28.1844 44.4702 27.067 44.55 25.8584Z" fill="#39A900"/>
  <path d="M31.3858 46.437C30.6831 46.437 30.1243 47.0076 30.1243 47.6986C30.1243 48.3896 30.6965 48.9601 31.3858 48.9601C32.0752 48.9601 32.6474 48.3896 32.6474 47.6986C32.6474 47.0076 32.0869 46.437 31.3858 46.437ZM27.2163 49.3651C26.9904 49.3651 26.7646 49.3768 26.5621 49.437C26.4199 49.4721 26.2877 49.5324 26.2041 49.616C26.097 49.7348 26.0853 49.877 26.1321 50.0092C26.179 50.128 26.3111 50.2117 26.4534 50.2585C26.7629 50.3656 27.1076 50.389 27.4305 50.4493C27.4907 50.461 27.561 50.4844 27.5978 50.5212C27.6329 50.5681 27.6095 50.64 27.5509 50.6634C27.4439 50.7237 27.3134 50.7237 27.1812 50.7103C27.0741 50.7103 26.9436 50.6986 26.8599 50.6383C26.788 50.6032 26.788 50.5312 26.7997 50.471H26.0735C26.0735 50.5781 26.097 50.6969 26.1689 50.7923C26.2409 50.8759 26.3479 50.9345 26.4667 50.9596C26.6575 51.0198 26.8599 51.0315 27.0624 51.0315C27.3368 51.0315 27.6095 51.0315 27.8722 50.9713C28.0278 50.9361 28.1817 50.8759 28.2771 50.7688C28.4561 50.5898 28.4076 50.3054 28.1817 50.1732C28.0629 50.1012 27.919 50.0661 27.7768 50.031C27.5627 49.9841 27.3602 49.959 27.146 49.9239C27.0741 49.9122 26.9904 49.9005 26.9319 49.8637C26.8716 49.8285 26.8599 49.7449 26.9319 49.7097C27.0155 49.6629 27.1343 49.6629 27.2414 49.6629C27.3485 49.6629 27.4673 49.6746 27.5627 49.7231C27.6095 49.7465 27.6346 49.7951 27.6346 49.8419H28.3256C28.3256 49.7582 28.3022 49.6629 28.242 49.5926C28.17 49.4972 28.0395 49.4387 27.909 49.4019C27.6597 49.3784 27.4322 49.3667 27.218 49.3667L27.2163 49.3651ZM28.7054 49.4136V51.0566H30.7182V50.7002H29.4433V50.379H30.5743V50.0343H29.4433V49.7733H30.6697V49.4169H28.7054V49.4136ZM32.0283 49.4136H31.0997V51.0566H31.8024V49.949L32.7679 51.0566H33.7333V49.4136H33.0305V50.5078L32.03 49.4136H32.0283ZM34.9932 49.4136C34.9932 49.4136 34.2302 50.5078 33.8504 51.0566H34.5882L34.7673 50.7588H35.91L36.0774 51.0566H36.8989L35.8147 49.4136H34.9932ZM35.3629 49.8051L35.721 50.4007H34.9948L35.3646 49.8051H35.3629ZM25.4779 51.5318L25.4896 52.4236L28.8476 52.4119C29.015 52.447 29.122 52.5541 29.0852 52.8168L27.0139 56.4224L27.6815 57.0532L30.8738 51.5318H25.4796H25.4779ZM31.8744 51.5318L35.0183 57.0298L35.7093 56.4107L33.6245 52.8051C33.5894 52.5558 33.6847 52.4353 33.8621 52.4002L37.2201 52.4119V51.5318H31.8727H31.8744ZM31.349 52.447L28.3959 57.4932L29.1823 57.8747L31.1466 54.5535C31.2185 54.4933 31.2771 54.4699 31.349 54.4699C31.421 54.4699 31.4912 54.4933 31.5632 54.5535L33.5275 57.8864L34.3373 57.4698L31.3473 52.447H31.349Z" fill="#39A900"/>
</svg>