<svg width="33" height="31" viewBox="0 0 33 31" fill="none" xmlns="http://www.w3.org/2000/svg">
<g id="listado de categorias">
<g id="4U4Dr1">
<g id="Group">
<path id="Vector" d="M21.1894 1C21.4726 1.07623 21.7502 1.15246 21.9898 1.33215C22.4907 1.70241 22.7575 2.19245 22.7575 2.80774C22.7575 5.55747 22.7575 8.30719 22.7575 11.0515C22.7575 11.1005 22.7575 11.1495 22.7521 11.2039H21.8537V11.0134C21.8537 8.30719 21.8537 5.60647 21.8537 2.90031C21.8537 2.43203 21.6468 2.09989 21.2548 1.96377C21.1404 1.92565 21.0152 1.90932 20.89 1.90932C14.8898 1.90932 8.88956 1.90932 2.88936 1.90932C2.27409 1.90932 1.90384 2.27957 1.90384 2.89486C1.90384 11.2965 1.90384 19.7036 1.90384 28.1052C1.90384 28.7423 2.2632 29.1071 2.90025 29.1071C8.88956 29.1071 14.8789 29.1071 20.8736 29.1071C21.3147 29.1071 21.625 28.9165 21.7992 28.5027C21.8156 28.4646 21.8591 28.4156 21.8973 28.4156C22.1749 28.4101 22.4472 28.4156 22.7412 28.4156C22.7249 28.6769 22.6378 28.9002 22.518 29.1071C22.2457 29.5699 21.8428 29.8585 21.3201 29.9783C21.2765 29.9892 21.2384 30.0001 21.1949 30.0164H2.56811C2.52455 30.0055 2.48644 29.9892 2.44288 29.9783C1.76228 29.8095 1.31036 29.4011 1.08167 28.7423C1.049 28.6443 1.02722 28.5463 1 28.4482C1 19.8234 1 11.193 1 2.56816C1.01089 2.53004 1.02178 2.49193 1.03267 2.45926C1.17968 1.8222 1.55537 1.37026 2.15975 1.12523C2.29042 1.07078 2.43199 1.04356 2.56811 1.00545C8.77522 1.00545 14.9878 1.00545 21.1949 1.00545L21.1894 1Z" fill="white" stroke="white" stroke-width="1.08898" stroke-linecap="round" stroke-linejoin="round"/>
<path id="Vector_2" d="M11.8025 6.89174C9.50482 6.89174 7.20166 6.89174 4.90394 6.89174C4.64259 6.89174 4.47924 6.78284 4.41391 6.56504C4.33768 6.31457 4.49013 6.04776 4.74604 5.99876C4.81682 5.98242 4.89305 5.98242 4.96928 5.98242C9.53204 5.98242 14.1003 5.98242 18.663 5.98242C18.7284 5.98242 18.7937 5.98242 18.8536 5.98787C19.0877 6.02054 19.2511 6.21656 19.2402 6.45069C19.2347 6.68483 19.055 6.86996 18.8155 6.88629C18.7828 6.88629 18.7447 6.88629 18.712 6.88629C16.4089 6.88629 14.1003 6.88629 11.7971 6.88629L11.8025 6.89174Z" fill="white" stroke="white" stroke-width="1.08898" stroke-linecap="round" stroke-linejoin="round"/>
<path id="Vector_3" d="M10.425 15.9093C8.55195 15.9093 6.67893 15.9093 4.80591 15.9093C4.59356 15.9093 4.46288 15.8004 4.40844 15.5826C4.34854 15.3321 4.47377 15.0653 4.68068 15.0163C4.74057 15 4.80046 15 4.86036 15C8.57917 15 12.2925 15 16.0114 15C16.0658 15 16.1148 15 16.1693 15.0054C16.3598 15.0381 16.4905 15.2341 16.4851 15.4683C16.4796 15.7024 16.3326 15.8875 16.142 15.9039C16.1148 15.9039 16.0876 15.9039 16.0604 15.9039C14.1819 15.9039 12.3089 15.9039 10.4304 15.9039L10.425 15.9093Z" fill="white" stroke="white" stroke-width="1.08898" stroke-linecap="round" stroke-linejoin="round"/>
<path id="Vector_4" d="M10.425 20.1398C8.55195 20.1398 6.67893 20.1398 4.80591 20.1398C4.59356 20.1398 4.46288 20.0309 4.40844 19.8131C4.34854 19.5626 4.47377 19.2958 4.68068 19.2468C4.74057 19.2305 4.80046 19.2305 4.86036 19.2305C8.57917 19.2305 12.2925 19.2305 16.0114 19.2305C16.0658 19.2305 16.1148 19.2305 16.1693 19.2359C16.3598 19.2686 16.4905 19.4646 16.4851 19.6987C16.4796 19.9329 16.3326 20.118 16.142 20.1343C16.1148 20.1343 16.0876 20.1343 16.0604 20.1343C14.1819 20.1343 12.3089 20.1343 10.4304 20.1343L10.425 20.1398Z" fill="white" stroke="white" stroke-width="1.08898" stroke-linecap="round" stroke-linejoin="round"/>
<path id="Vector_5" d="M10.425 24.8058C8.55195 24.8058 6.67893 24.8058 4.80591 24.8058C4.59356 24.8058 4.46288 24.6969 4.40844 24.4791C4.34854 24.2286 4.47377 23.9618 4.68068 23.9128C4.74057 23.8965 4.80046 23.8965 4.86036 23.8965C8.57917 23.8965 12.2925 23.8965 16.0114 23.8965C16.0658 23.8965 16.1148 23.8965 16.1693 23.9019C16.3598 23.9346 16.4905 24.1306 16.4851 24.3648C16.4796 24.5989 16.3326 24.784 16.142 24.8004C16.1148 24.8004 16.0876 24.8004 16.0604 24.8004C14.1819 24.8004 12.3089 24.8004 10.4304 24.8004L10.425 24.8058Z" fill="white" stroke="white" stroke-width="1.08898" stroke-linecap="round" stroke-linejoin="round"/>
<path id="Vector_6" d="M11.9332 10.5234C14.2092 10.5234 16.4851 10.5234 18.761 10.5234C18.8209 10.5234 18.8808 10.5234 18.9407 10.5234C19.1857 10.5452 19.36 10.7358 19.36 10.9754C19.36 11.2204 19.1803 11.4055 18.9353 11.4219C18.8645 11.4219 18.7991 11.4219 18.7284 11.4219C14.1819 11.4219 9.6355 11.4219 5.09451 11.4219C5.04006 11.4219 4.98561 11.4219 4.93116 11.4219C4.69704 11.4055 4.5228 11.2204 4.51191 10.9863C4.50647 10.7521 4.66981 10.5561 4.90394 10.5289C4.95294 10.5234 5.00195 10.5289 5.05095 10.5289C7.34322 10.5289 9.64094 10.5289 11.9332 10.5289V10.5234Z" fill="white" stroke="white" stroke-width="1.08898" stroke-linecap="round" stroke-linejoin="round"/>
</g>
</g>
<g id="jWLO9P.tif">
<g id="Group_2">
<g id="Vector_7">
<mask id="path-7-inside-1_670_1630" fill="white">
<path d="M18.5059 24.9694C18.5331 24.8441 18.5549 24.7135 18.5821 24.5882C18.8871 23.2379 20.0631 22.285 21.4461 22.2632C21.5441 22.2632 21.6095 22.236 21.6803 22.1652C21.8763 21.9692 22.1213 21.8657 22.3826 21.8222C22.4208 21.6534 22.3826 21.5554 22.2356 21.4519C21.5115 20.9292 21.0977 20.2159 20.9942 19.3338C20.9833 19.2249 20.9506 19.1596 20.8363 19.1106C20.4606 18.9581 20.3027 18.626 20.2047 18.2611C20.1557 18.0706 20.123 17.8745 20.123 17.6785C20.123 17.1504 20.0904 16.6167 20.1503 16.0995C20.319 14.6892 21.0704 13.6492 22.3445 13.0339C24.3972 12.0484 26.7875 13.0122 27.626 15.1412C27.6369 15.1738 27.6532 15.2065 27.6696 15.2446C28.6496 14.8145 29.6188 14.8199 30.5608 15.3263C31.3122 15.7292 31.824 16.3499 32.0853 17.1667C32.6625 18.9527 31.5681 20.8693 29.7277 21.2831C29.7277 21.4574 29.7277 21.637 29.7277 21.8167C29.7277 21.844 29.7495 21.8821 29.7767 21.9038C29.9074 22.0073 29.9618 22.1434 29.9618 22.3013C29.9618 23.3522 29.9618 24.4031 29.9618 25.454C29.9618 25.9168 29.6896 26.249 29.2377 26.3633C29.2213 26.3633 29.205 26.3796 29.1887 26.3851H18.8598C18.691 26.3197 18.5767 26.2054 18.5114 26.0366C18.5114 25.6772 18.5114 25.3233 18.5114 24.9639L18.5059 24.9694ZM21.4842 16.9162C21.4842 17.0959 21.4842 17.2756 21.4842 17.4553C21.4842 17.6077 21.3971 17.7003 21.261 17.7057C21.1249 17.7057 21.0487 17.6241 21.0214 17.4716C21.0051 17.3573 20.9724 17.2429 20.9289 17.1395C20.8908 17.0469 20.7927 16.9979 20.7056 17.0415C20.6403 17.0741 20.5695 17.1612 20.5695 17.2266C20.5641 17.4771 20.5586 17.7275 20.6022 17.9726C20.6566 18.3265 20.771 18.6477 21.1739 18.7675C21.3318 18.8165 21.408 18.9635 21.4243 19.1323C21.4407 19.263 21.4516 19.3883 21.4788 19.5189C21.6911 20.5862 22.6113 21.441 23.6676 21.5554C24.811 21.6806 25.8782 21.0762 26.3301 20.058C26.3628 19.9818 26.3683 19.9273 26.3247 19.8511C25.6386 18.6804 25.655 17.5206 26.3683 16.3663C26.3955 16.3227 26.4064 16.2356 26.3846 16.1866C26.1559 15.6911 25.7802 15.3481 25.2575 15.1956C25.1813 15.1738 25.0724 15.1847 25.007 15.2228C24.6096 15.4624 24.1849 15.6312 23.7438 15.7673C23.085 15.9633 22.4208 16.0995 21.7347 16.143C21.5496 16.1539 21.4842 16.2247 21.4842 16.4044C21.4842 16.5732 21.4842 16.742 21.4842 16.9162ZM29.0362 15.4025C27.4844 15.4188 26.2757 16.6494 26.2866 18.1904C26.2975 19.6932 27.5498 20.9129 29.0743 20.8965C30.5771 20.8802 31.8022 19.6278 31.7804 18.125C31.7586 16.6167 30.5172 15.3862 29.0362 15.4025ZM21.0269 16.5895C21.0269 16.5242 21.0269 16.4534 21.0269 16.3826C21.0269 15.9851 21.2828 15.7183 21.6748 15.6857C21.8708 15.6693 22.0668 15.6584 22.2629 15.6258C23.1558 15.4842 24.0324 15.2827 24.8165 14.7981C24.9744 14.7001 25.1541 14.6838 25.3337 14.7328C25.6386 14.8145 25.9272 14.9451 26.1559 15.1629C26.3846 15.3698 26.5806 15.6149 26.7929 15.8436C26.9291 15.7347 27.087 15.5985 27.2503 15.4679C26.7439 13.8779 25.0615 12.7726 23.2538 13.1918C21.3372 13.6329 20.5042 15.3862 20.5804 16.5623C20.7274 16.5677 20.869 16.5786 21.0269 16.5841V16.5895ZM22.3772 25.9277C22.0069 25.4594 21.8164 24.9367 21.7075 24.3868C21.5986 23.8423 21.5332 23.2869 21.4516 22.7206C21.3427 22.7315 21.2174 22.7315 21.0922 22.7587C19.6221 23.031 18.7727 24.267 18.9851 25.9331H22.3826L22.3772 25.9277ZM28.2413 25.9277C28.0779 25.6282 28.1215 25.3124 28.1215 25.0021C28.1215 24.4684 28.1215 23.9403 28.1215 23.4067C28.1215 23.3577 28.1052 23.2869 28.067 23.2542C27.6423 22.9166 27.1523 22.7478 26.6078 22.7152C26.5425 22.7152 26.5098 22.7369 26.5098 22.8023C26.5044 22.9438 26.4935 23.0854 26.4772 23.2324C26.4064 23.9457 26.2702 24.6481 25.9544 25.2961C25.851 25.5084 25.7149 25.7099 25.5951 25.9168H28.2413V25.9277ZM26.7058 20.3466C26.4663 20.8094 26.1559 21.1797 25.7475 21.4737C25.5842 21.5935 25.5679 21.6207 25.6223 21.8331C25.9163 21.8821 26.1722 22.0073 26.3791 22.2251C26.4064 22.2523 26.4663 22.2632 26.5098 22.2632C26.842 22.2741 27.1686 22.3122 27.479 22.432C27.6913 22.5137 27.8928 22.6117 28.116 22.7097C28.116 22.5736 28.116 22.4429 28.116 22.3122C28.116 22.1543 28.165 22.0127 28.2957 21.9093C28.3175 21.8875 28.3447 21.8548 28.3447 21.8276C28.3447 21.6479 28.3447 21.4628 28.3447 21.2777C27.7022 21.1307 27.1632 20.8203 26.7004 20.3466H26.7058ZM28.5843 22.2741C28.5843 22.3231 28.5789 22.3558 28.5789 22.3885C28.5789 23.4012 28.5789 24.4085 28.5789 25.4213C28.5789 25.4594 28.5789 25.503 28.5897 25.5411C28.6224 25.748 28.7858 25.9059 28.9927 25.9277C29.1941 25.9495 29.401 25.8242 29.4664 25.6282C29.4936 25.5466 29.499 25.4594 29.499 25.3778C29.499 24.3922 29.499 23.4121 29.499 22.4266C29.499 22.3776 29.499 22.3286 29.499 22.2741H28.5897H28.5843ZM24.6314 25.9277C24.5116 25.3886 24.3972 24.8605 24.2774 24.3269C24.1141 24.3269 23.9562 24.3269 23.8037 24.3269C23.7711 24.3269 23.7221 24.3759 23.7166 24.4085C23.6458 24.6971 23.5859 24.9912 23.5206 25.2852C23.4716 25.4975 23.428 25.7099 23.379 25.9277H24.6368H24.6314ZM22.0233 23.6408C22.0505 23.7878 22.0723 23.9403 22.0995 24.0873C22.1975 24.5773 22.3282 25.0619 22.6168 25.4812C22.6984 25.601 22.8019 25.699 22.9162 25.8297C23.0415 25.2689 23.1613 24.7516 23.2701 24.2343C23.2756 24.2016 23.2647 24.1581 23.2429 24.1254C23.1994 24.0601 23.1449 24.0002 23.0905 23.9403C22.9217 24.1145 22.8563 24.1309 22.6712 24.0328C22.4534 23.9131 22.2465 23.7769 22.0233 23.6408ZM25.0669 25.7807C25.655 25.1654 25.8183 24.4085 25.9599 23.6462C25.7475 23.7769 25.5461 23.9076 25.3337 24.022C25.2684 24.0601 25.1813 24.0873 25.1051 24.0764C25.0343 24.071 24.9744 24.0056 24.8981 23.9621C24.8655 24.0002 24.811 24.0383 24.7838 24.0927C24.7566 24.1417 24.7185 24.2125 24.7294 24.267C24.8328 24.7625 24.9417 25.2525 25.0615 25.7807H25.0669ZM25.1649 21.8548C25.1649 21.8548 25.1377 21.8331 25.1214 21.8222C24.37 22.1162 23.6132 22.1053 22.8454 21.8385C22.8672 21.9474 22.889 22.0509 22.9435 22.1271C23.1558 22.4102 23.4553 22.5627 23.7874 22.6661C23.8636 22.6879 23.9507 22.7315 24.0215 22.7152C24.4299 22.628 24.8056 22.4701 25.0669 22.1216C25.1214 22.0509 25.1323 21.9529 25.1649 21.8657V21.8548ZM25.3011 23.5265C25.5297 23.3958 25.7584 23.227 25.9054 22.982C26.1505 22.5681 26.1015 22.4538 25.6114 22.2904C25.5951 22.285 25.5733 22.2796 25.557 22.285C25.5297 22.2904 25.4916 22.3013 25.4807 22.3177C25.2956 22.5845 25.0506 22.7914 24.7838 22.9275C24.958 23.129 25.1268 23.325 25.3011 23.5265ZM23.1939 22.9547C23.0142 22.7968 22.8073 22.6389 22.6277 22.4538C22.448 22.2687 22.4153 22.2469 22.1866 22.3721C22.1267 22.4048 22.0559 22.4429 22.0124 22.4974C21.9797 22.5355 21.9525 22.6063 21.9634 22.6553C22.0559 23.0854 22.3663 23.325 22.6984 23.5319C22.8781 23.325 23.0469 23.129 23.1994 22.9547H23.1939ZM23.3083 23.4938C23.5043 23.9403 23.9017 23.8749 24.2665 23.864C24.4952 23.8586 24.5497 23.619 24.713 23.521C24.321 23.08 23.6676 23.08 23.3083 23.4992V23.4938ZM29.254 21.8004V21.3539H28.8184V21.8004H29.254Z"/>
</mask>
<path d="M18.5059 24.9694C18.5331 24.8441 18.5549 24.7135 18.5821 24.5882C18.8871 23.2379 20.0631 22.285 21.4461 22.2632C21.5441 22.2632 21.6095 22.236 21.6803 22.1652C21.8763 21.9692 22.1213 21.8657 22.3826 21.8222C22.4208 21.6534 22.3826 21.5554 22.2356 21.4519C21.5115 20.9292 21.0977 20.2159 20.9942 19.3338C20.9833 19.2249 20.9506 19.1596 20.8363 19.1106C20.4606 18.9581 20.3027 18.626 20.2047 18.2611C20.1557 18.0706 20.123 17.8745 20.123 17.6785C20.123 17.1504 20.0904 16.6167 20.1503 16.0995C20.319 14.6892 21.0704 13.6492 22.3445 13.0339C24.3972 12.0484 26.7875 13.0122 27.626 15.1412C27.6369 15.1738 27.6532 15.2065 27.6696 15.2446C28.6496 14.8145 29.6188 14.8199 30.5608 15.3263C31.3122 15.7292 31.824 16.3499 32.0853 17.1667C32.6625 18.9527 31.5681 20.8693 29.7277 21.2831C29.7277 21.4574 29.7277 21.637 29.7277 21.8167C29.7277 21.844 29.7495 21.8821 29.7767 21.9038C29.9074 22.0073 29.9618 22.1434 29.9618 22.3013C29.9618 23.3522 29.9618 24.4031 29.9618 25.454C29.9618 25.9168 29.6896 26.249 29.2377 26.3633C29.2213 26.3633 29.205 26.3796 29.1887 26.3851H18.8598C18.691 26.3197 18.5767 26.2054 18.5114 26.0366C18.5114 25.6772 18.5114 25.3233 18.5114 24.9639L18.5059 24.9694ZM21.4842 16.9162C21.4842 17.0959 21.4842 17.2756 21.4842 17.4553C21.4842 17.6077 21.3971 17.7003 21.261 17.7057C21.1249 17.7057 21.0487 17.6241 21.0214 17.4716C21.0051 17.3573 20.9724 17.2429 20.9289 17.1395C20.8908 17.0469 20.7927 16.9979 20.7056 17.0415C20.6403 17.0741 20.5695 17.1612 20.5695 17.2266C20.5641 17.4771 20.5586 17.7275 20.6022 17.9726C20.6566 18.3265 20.771 18.6477 21.1739 18.7675C21.3318 18.8165 21.408 18.9635 21.4243 19.1323C21.4407 19.263 21.4516 19.3883 21.4788 19.5189C21.6911 20.5862 22.6113 21.441 23.6676 21.5554C24.811 21.6806 25.8782 21.0762 26.3301 20.058C26.3628 19.9818 26.3683 19.9273 26.3247 19.8511C25.6386 18.6804 25.655 17.5206 26.3683 16.3663C26.3955 16.3227 26.4064 16.2356 26.3846 16.1866C26.1559 15.6911 25.7802 15.3481 25.2575 15.1956C25.1813 15.1738 25.0724 15.1847 25.007 15.2228C24.6096 15.4624 24.1849 15.6312 23.7438 15.7673C23.085 15.9633 22.4208 16.0995 21.7347 16.143C21.5496 16.1539 21.4842 16.2247 21.4842 16.4044C21.4842 16.5732 21.4842 16.742 21.4842 16.9162ZM29.0362 15.4025C27.4844 15.4188 26.2757 16.6494 26.2866 18.1904C26.2975 19.6932 27.5498 20.9129 29.0743 20.8965C30.5771 20.8802 31.8022 19.6278 31.7804 18.125C31.7586 16.6167 30.5172 15.3862 29.0362 15.4025ZM21.0269 16.5895C21.0269 16.5242 21.0269 16.4534 21.0269 16.3826C21.0269 15.9851 21.2828 15.7183 21.6748 15.6857C21.8708 15.6693 22.0668 15.6584 22.2629 15.6258C23.1558 15.4842 24.0324 15.2827 24.8165 14.7981C24.9744 14.7001 25.1541 14.6838 25.3337 14.7328C25.6386 14.8145 25.9272 14.9451 26.1559 15.1629C26.3846 15.3698 26.5806 15.6149 26.7929 15.8436C26.9291 15.7347 27.087 15.5985 27.2503 15.4679C26.7439 13.8779 25.0615 12.7726 23.2538 13.1918C21.3372 13.6329 20.5042 15.3862 20.5804 16.5623C20.7274 16.5677 20.869 16.5786 21.0269 16.5841V16.5895ZM22.3772 25.9277C22.0069 25.4594 21.8164 24.9367 21.7075 24.3868C21.5986 23.8423 21.5332 23.2869 21.4516 22.7206C21.3427 22.7315 21.2174 22.7315 21.0922 22.7587C19.6221 23.031 18.7727 24.267 18.9851 25.9331H22.3826L22.3772 25.9277ZM28.2413 25.9277C28.0779 25.6282 28.1215 25.3124 28.1215 25.0021C28.1215 24.4684 28.1215 23.9403 28.1215 23.4067C28.1215 23.3577 28.1052 23.2869 28.067 23.2542C27.6423 22.9166 27.1523 22.7478 26.6078 22.7152C26.5425 22.7152 26.5098 22.7369 26.5098 22.8023C26.5044 22.9438 26.4935 23.0854 26.4772 23.2324C26.4064 23.9457 26.2702 24.6481 25.9544 25.2961C25.851 25.5084 25.7149 25.7099 25.5951 25.9168H28.2413V25.9277ZM26.7058 20.3466C26.4663 20.8094 26.1559 21.1797 25.7475 21.4737C25.5842 21.5935 25.5679 21.6207 25.6223 21.8331C25.9163 21.8821 26.1722 22.0073 26.3791 22.2251C26.4064 22.2523 26.4663 22.2632 26.5098 22.2632C26.842 22.2741 27.1686 22.3122 27.479 22.432C27.6913 22.5137 27.8928 22.6117 28.116 22.7097C28.116 22.5736 28.116 22.4429 28.116 22.3122C28.116 22.1543 28.165 22.0127 28.2957 21.9093C28.3175 21.8875 28.3447 21.8548 28.3447 21.8276C28.3447 21.6479 28.3447 21.4628 28.3447 21.2777C27.7022 21.1307 27.1632 20.8203 26.7004 20.3466H26.7058ZM28.5843 22.2741C28.5843 22.3231 28.5789 22.3558 28.5789 22.3885C28.5789 23.4012 28.5789 24.4085 28.5789 25.4213C28.5789 25.4594 28.5789 25.503 28.5897 25.5411C28.6224 25.748 28.7858 25.9059 28.9927 25.9277C29.1941 25.9495 29.401 25.8242 29.4664 25.6282C29.4936 25.5466 29.499 25.4594 29.499 25.3778C29.499 24.3922 29.499 23.4121 29.499 22.4266C29.499 22.3776 29.499 22.3286 29.499 22.2741H28.5897H28.5843ZM24.6314 25.9277C24.5116 25.3886 24.3972 24.8605 24.2774 24.3269C24.1141 24.3269 23.9562 24.3269 23.8037 24.3269C23.7711 24.3269 23.7221 24.3759 23.7166 24.4085C23.6458 24.6971 23.5859 24.9912 23.5206 25.2852C23.4716 25.4975 23.428 25.7099 23.379 25.9277H24.6368H24.6314ZM22.0233 23.6408C22.0505 23.7878 22.0723 23.9403 22.0995 24.0873C22.1975 24.5773 22.3282 25.0619 22.6168 25.4812C22.6984 25.601 22.8019 25.699 22.9162 25.8297C23.0415 25.2689 23.1613 24.7516 23.2701 24.2343C23.2756 24.2016 23.2647 24.1581 23.2429 24.1254C23.1994 24.0601 23.1449 24.0002 23.0905 23.9403C22.9217 24.1145 22.8563 24.1309 22.6712 24.0328C22.4534 23.9131 22.2465 23.7769 22.0233 23.6408ZM25.0669 25.7807C25.655 25.1654 25.8183 24.4085 25.9599 23.6462C25.7475 23.7769 25.5461 23.9076 25.3337 24.022C25.2684 24.0601 25.1813 24.0873 25.1051 24.0764C25.0343 24.071 24.9744 24.0056 24.8981 23.9621C24.8655 24.0002 24.811 24.0383 24.7838 24.0927C24.7566 24.1417 24.7185 24.2125 24.7294 24.267C24.8328 24.7625 24.9417 25.2525 25.0615 25.7807H25.0669ZM25.1649 21.8548C25.1649 21.8548 25.1377 21.8331 25.1214 21.8222C24.37 22.1162 23.6132 22.1053 22.8454 21.8385C22.8672 21.9474 22.889 22.0509 22.9435 22.1271C23.1558 22.4102 23.4553 22.5627 23.7874 22.6661C23.8636 22.6879 23.9507 22.7315 24.0215 22.7152C24.4299 22.628 24.8056 22.4701 25.0669 22.1216C25.1214 22.0509 25.1323 21.9529 25.1649 21.8657V21.8548ZM25.3011 23.5265C25.5297 23.3958 25.7584 23.227 25.9054 22.982C26.1505 22.5681 26.1015 22.4538 25.6114 22.2904C25.5951 22.285 25.5733 22.2796 25.557 22.285C25.5297 22.2904 25.4916 22.3013 25.4807 22.3177C25.2956 22.5845 25.0506 22.7914 24.7838 22.9275C24.958 23.129 25.1268 23.325 25.3011 23.5265ZM23.1939 22.9547C23.0142 22.7968 22.8073 22.6389 22.6277 22.4538C22.448 22.2687 22.4153 22.2469 22.1866 22.3721C22.1267 22.4048 22.0559 22.4429 22.0124 22.4974C21.9797 22.5355 21.9525 22.6063 21.9634 22.6553C22.0559 23.0854 22.3663 23.325 22.6984 23.5319C22.8781 23.325 23.0469 23.129 23.1994 22.9547H23.1939ZM23.3083 23.4938C23.5043 23.9403 23.9017 23.8749 24.2665 23.864C24.4952 23.8586 24.5497 23.619 24.713 23.521C24.321 23.08 23.6676 23.08 23.3083 23.4992V23.4938ZM29.254 21.8004V21.3539H28.8184V21.8004H29.254Z" fill="white" stroke="white" stroke-width="1.08898" mask="url(#path-7-inside-1_670_1630)"/>
</g>
<path id="Vector_8" d="M29.3035 20.1507C29.3115 20.1496 29.3195 20.1485 29.3277 20.1473L29.3311 20.1468L29.3311 20.1468C30.2177 20.0253 30.9014 19.3308 31.0379 18.4431L30.8545 18.4182M29.3035 20.1507L29.0796 16.0504L29.0644 16.0479C29.0594 16.0471 29.0574 16.0462 29.0574 16.0462C29.0574 16.0462 29.06 16.0472 29.0639 16.0506C29.0655 16.052 29.0672 16.0537 29.0692 16.0559C29.0744 16.0618 29.0789 16.0693 29.0817 16.0775C29.0833 16.0822 29.0841 16.0863 29.0845 16.0895C29.0847 16.0917 29.0847 16.0935 29.0847 16.0946C29.0845 16.0986 29.0832 16.1055 29.0776 16.1135C29.0758 16.116 29.0737 16.1186 29.0709 16.1212C29.0657 16.1264 29.0586 16.1315 29.0498 16.1354C29.0485 16.136 29.0471 16.1365 29.0458 16.137C29.036 16.1406 29.0273 16.1416 29.021 16.1414C29.0205 16.1413 29.0199 16.1413 29.0194 16.1413M29.3035 20.1507L29.2755 19.9755M29.3035 20.1507L29.0775 20.1719M30.8545 18.4182L31.0379 18.4428C31.0463 18.3886 31.0526 18.3338 31.0567 18.2782C31.1234 17.3557 30.5138 16.4778 29.6155 16.2245L29.6136 16.224L29.6136 16.224C29.4702 16.1825 29.314 16.1648 29.1391 16.1505C29.1356 16.1503 29.132 16.15 29.1285 16.1497C29.1088 16.1481 29.0888 16.1465 29.0686 16.145C29.0619 16.1445 29.0552 16.144 29.0484 16.1435C29.0394 16.1428 29.0302 16.1421 29.021 16.1414L29.0194 16.1413M30.8545 18.4182C31.0015 17.3346 30.2229 16.3926 29.1285 16.3273L28.0395 16.6159C28.0061 16.6446 27.9716 16.6712 27.9374 16.6975C27.8937 16.7311 27.8506 16.7644 27.8109 16.801M30.8545 18.4182C30.7456 19.2295 30.1195 19.8448 29.2755 19.9755M29.0194 16.1413L29.0188 16.1412L29.0194 16.1413ZM31.3282 18.2984L31.1408 18.2848L29.3681 20.4165C30.4407 20.2695 31.2465 19.3874 31.3282 18.2984ZM31.3282 18.2984C31.4044 17.2475 30.713 16.2511 29.6893 15.9625L31.1409 18.2843L31.3282 18.2984ZM29.2755 19.9755C28.5241 20.0952 27.7237 19.6542 27.3862 18.9355C27.0431 18.2058 27.2174 17.3292 27.8109 16.801M29.2755 19.9755L29.3027 20.1508C29.2487 20.158 29.1974 20.1622 29.14 20.1668C29.12 20.1684 29.0993 20.1701 29.0775 20.1719M27.8109 16.801L27.6814 16.6607C27.0939 17.1982 26.872 18.0365 27.132 18.7986C27.1573 18.8726 27.1865 18.9444 27.2195 19.0138L27.3861 18.9355L27.2195 19.0138C27.5495 19.7089 28.2516 20.1628 29.039 20.1715L29.0775 20.1719M27.8109 16.801L27.6839 16.6584L29.0775 20.1719" fill="white" stroke="white" stroke-width="0.544491"/>
</g>
</g>
</g>
</svg>
