<svg width="31" height="32" viewBox="0 0 31 32" fill="none" xmlns="http://www.w3.org/2000/svg">
<g id="listado de encuestas">
<g id="Group 27">
<path id="Vector" d="M23.7377 31.3961H22.4498C22.3943 31.3718 22.3361 31.3545 22.2763 31.3444C21.4369 31.2258 20.6285 30.9451 19.8962 30.5178C19.7123 30.4183 19.5074 30.3639 19.2984 30.3592C14.0731 30.3592 8.84898 30.3592 3.62614 30.3592C3.47313 30.3654 3.31989 30.3567 3.16855 30.3333C2.40469 30.1931 1.97662 29.6285 1.97662 28.7613V5.92644C1.76259 5.92644 1.58915 5.92644 1.41571 5.92644C1.22395 5.9293 1.03366 5.89259 0.856725 5.8186C0.679789 5.74461 0.520013 5.63492 0.387377 5.4964C0.254741 5.35788 0.152095 5.19349 0.0858514 5.01351C0.0196079 4.83353 -0.00880972 4.64182 0.00237368 4.45037C0.00237368 3.91898 0.00237368 3.38759 0.00237368 2.8562C0.00813789 2.10175 0.3099 1.37972 0.842706 0.845532C1.37551 0.311346 2.09676 0.00771622 2.8512 0C9.59686 0 16.3425 0 23.0882 0C23.3376 0.00547681 23.5855 0.0414153 23.8262 0.107016C24.4621 0.285251 25.0191 0.673077 25.407 1.2076C25.7948 1.74212 25.9907 2.39198 25.9628 3.05178C25.937 6.90434 25.9628 10.7569 25.9628 14.6094C25.9628 15.0264 25.9628 15.4471 25.9628 15.8678C25.9628 15.9527 26.0071 16.0892 26.0699 16.115C26.3318 16.2206 26.5685 16.3804 26.7644 16.584C26.9603 16.7875 27.1109 17.0301 27.2064 17.2959L27.3393 17.2627C28.8153 16.8051 30.0368 17.6981 30.0405 19.2369C30.0405 20.5654 30.0405 21.8939 30.0405 23.2223C30.0437 24.4191 29.813 25.6049 29.3615 26.7133C28.4906 28.8277 27.0625 30.3813 24.8484 31.123C24.4941 31.2411 24.1141 31.3075 23.7377 31.3961ZM24.4978 16.1224L24.6012 16.1556C24.6579 16.0611 24.6978 15.9575 24.7192 15.8493C24.7192 11.5171 24.7192 7.18356 24.7192 2.84882C24.7192 2.40841 24.5443 1.98603 24.2329 1.67461C23.9214 1.36319 23.4991 1.18824 23.0587 1.18824C22.6182 1.18824 22.1959 1.36319 21.8844 1.67461C21.573 1.98603 21.3981 2.40841 21.3981 2.84882C21.3981 3.33962 21.3981 3.83041 21.3981 4.3249C21.3981 5.35446 20.8335 5.93013 19.815 5.93013H14.5675C14.4343 5.93283 14.3014 5.91668 14.1727 5.88216C14.0511 5.84271 13.9451 5.76576 13.8699 5.66234C13.7947 5.55892 13.7542 5.43435 13.7542 5.30649C13.7542 5.17863 13.7947 5.05406 13.8699 4.95064C13.9451 4.84722 14.0511 4.77026 14.1727 4.73082C14.3093 4.69144 14.4513 4.67401 14.5934 4.67916C16.3204 4.67916 18.0511 4.67916 19.7596 4.67916C20.077 4.67916 20.1508 4.57214 20.1545 4.27324C20.1545 3.24367 19.9921 2.1809 20.6822 1.21776H2.89917C2.50663 1.21189 2.12538 1.34909 1.82659 1.60374C1.5278 1.85839 1.33191 2.21308 1.27549 2.60158C1.22438 3.15107 1.20835 3.70326 1.22752 4.25479C1.22752 4.6644 1.22752 4.66809 1.63344 4.66809H8.56361C8.69591 4.66308 8.82836 4.67298 8.95846 4.69761C9.11098 4.72386 9.24709 4.80895 9.3375 4.93456C9.42792 5.06017 9.46539 5.21626 9.44187 5.36922C9.40866 5.71241 9.1319 5.91906 8.68169 5.91906H3.24605C3.24605 6.04453 3.24605 6.13309 3.24605 6.22165C3.24605 13.7226 3.24605 21.226 3.24605 28.7318C3.24605 29.0344 3.34937 29.1008 3.63721 29.1008C8.36803 29.1008 13.1013 29.1008 17.837 29.1008L18.1064 29.0787C18.0863 29.0394 18.0642 29.0012 18.04 28.9643L13.2465 22.9013C13.0434 22.6573 12.8909 22.3754 12.7978 22.072C12.7046 21.7685 12.6728 21.4496 12.704 21.1337C12.7251 20.6806 12.8791 20.2437 13.1468 19.8775C13.4146 19.5113 13.7842 19.2321 14.2096 19.0746C15.0915 18.7351 15.848 19.0192 16.4864 19.6724C16.837 20.0414 17.1728 20.4104 17.5123 20.7794L17.9072 21.1964V20.9307C17.9072 19.4694 17.9072 18.0081 17.9072 16.5468C17.9072 14.8087 17.9072 13.0706 17.9072 11.3326C17.9294 10.8326 18.1417 10.36 18.5007 10.0113C18.8598 9.66262 19.3384 9.46424 19.8388 9.45671C20.3393 9.44917 20.8237 9.63303 21.193 9.97072C21.5624 10.3084 21.7889 10.7744 21.8261 11.2735C21.8704 12.3806 21.8483 13.4618 21.8557 14.5541V14.9231C23.0845 14.6427 23.9849 14.9748 24.4978 16.1224ZM19.1323 16.7055C19.1323 18.4103 19.1323 20.1189 19.1323 21.8238C19.1346 22.008 19.1122 22.1916 19.0659 22.3699C19.04 22.4884 18.986 22.5989 18.9084 22.6921C18.8308 22.7854 18.732 22.8586 18.6202 22.9056C18.5084 22.9526 18.387 22.9721 18.2661 22.9624C18.1452 22.9526 18.0284 22.914 17.9256 22.8496C17.6963 22.7154 17.4875 22.5488 17.3057 22.3551C16.7152 21.7463 16.1469 21.1152 15.5565 20.5101C15.4673 20.3955 15.35 20.306 15.2159 20.2502C15.0819 20.1945 14.9357 20.1743 14.7916 20.1918C14.6474 20.2093 14.5103 20.2637 14.3934 20.3499C14.2766 20.436 14.184 20.551 14.1247 20.6835C13.9768 20.925 13.9129 21.2087 13.9429 21.4904C13.9729 21.772 14.0952 22.0358 14.2908 22.2408C15.3646 23.6172 16.4311 25.001 17.5123 26.3738C18.2098 27.252 18.8482 28.1783 19.7264 28.9052C21.708 30.5326 24.2617 30.6027 26.2322 29.0344C26.9873 28.4259 27.6034 27.6629 28.0394 26.7967C28.4754 25.9304 28.7211 24.981 28.76 24.012C28.8781 22.4253 28.819 20.8274 28.8338 19.2148C28.8329 19.1022 28.8155 18.9903 28.7821 18.8827C28.7513 18.7417 28.6735 18.6153 28.5616 18.5242C28.4497 18.433 28.3102 18.3825 28.1659 18.3808C28.0645 18.3612 27.96 18.3648 27.8602 18.3914C27.7604 18.418 27.668 18.4669 27.5898 18.5344C27.5116 18.6019 27.4498 18.6862 27.409 18.7811C27.3681 18.8759 27.3494 18.9788 27.354 19.082C27.3319 19.4879 27.354 19.8975 27.3282 20.3071C27.3268 20.3869 27.3096 20.4656 27.2776 20.5387C27.2456 20.6119 27.1995 20.6779 27.1418 20.7331C27.0842 20.7884 27.0163 20.8316 26.9418 20.8605C26.8674 20.8893 26.788 20.9032 26.7083 20.9012C26.5497 20.8941 26.3995 20.8281 26.2869 20.7162C26.1743 20.6044 26.1075 20.4545 26.0994 20.296C26.0994 20.2075 26.0994 20.1115 26.0994 20.0193C26.0994 19.3255 26.0994 18.6318 26.0994 17.938C26.1046 17.8375 26.0876 17.737 26.0496 17.6438C26.0116 17.5505 25.9536 17.4668 25.8797 17.3984C25.8057 17.3301 25.7176 17.2789 25.6217 17.2484C25.5257 17.218 25.4243 17.209 25.3244 17.2221C25.2242 17.2218 25.1251 17.2429 25.0337 17.284C24.9423 17.325 24.8607 17.3851 24.7944 17.4602C24.728 17.5353 24.6785 17.6236 24.649 17.7194C24.6195 17.8151 24.6107 17.9161 24.6233 18.0155C24.6233 18.7314 24.6233 19.4473 24.6233 20.1632C24.6233 20.6171 24.3687 20.9012 23.9923 20.9012C23.6159 20.9012 23.3945 20.6208 23.3945 20.1632V17.0745C23.3939 16.9321 23.3804 16.79 23.3539 16.6501C23.3421 16.5612 23.3128 16.4754 23.2678 16.3978C23.2229 16.3201 23.163 16.2521 23.0917 16.1976C23.0204 16.1431 22.9391 16.1032 22.8524 16.0802C22.7657 16.0572 22.6752 16.0514 22.5863 16.0634C22.4162 16.0629 22.2523 16.1271 22.1276 16.2428C22.0029 16.3586 21.9269 16.5173 21.9147 16.687C21.8982 16.8291 21.8908 16.9721 21.8926 17.1151C21.8926 18.1188 21.8926 19.1189 21.8926 20.1189C21.8926 20.6245 21.6675 20.9049 21.28 20.9086C20.8925 20.9123 20.6563 20.606 20.6527 20.1263V12.7459C20.6527 12.3068 20.6527 11.8676 20.6527 11.4285C20.6602 11.2736 20.6151 11.1207 20.5246 10.9947C20.4342 10.8687 20.3037 10.7771 20.1545 10.7348C20.0358 10.6922 19.9081 10.6807 19.7838 10.7015C19.6594 10.7222 19.5424 10.7745 19.4439 10.8533C19.3455 10.9322 19.2689 11.0349 19.2215 11.1517C19.174 11.2686 19.1573 11.3956 19.1729 11.5208C19.1434 13.2404 19.1298 14.9686 19.1323 16.7055Z" fill="white"/>
<path id="Vector_2" d="M5.58446 10.4836C5.58446 10.0887 5.58446 9.69017 5.58446 9.29163C5.58349 9.13546 5.61341 8.98063 5.67251 8.83606C5.7316 8.69149 5.8187 8.56003 5.92879 8.44925C6.03888 8.33848 6.1698 8.25056 6.314 8.19057C6.4582 8.13058 6.61283 8.0997 6.76901 8.0997C7.56609 8.0997 8.36317 8.0997 9.16025 8.0997C9.31436 8.09775 9.46734 8.12618 9.61046 8.18336C9.75358 8.24053 9.88404 8.32534 9.99438 8.43294C10.1047 8.54054 10.1928 8.66882 10.2535 8.81046C10.3143 8.9521 10.3466 9.10431 10.3485 9.25842C10.3706 10.0666 10.3485 10.871 10.3485 11.6792C10.3475 11.8357 10.3156 11.9904 10.2545 12.1345C10.1933 12.2786 10.1043 12.4091 9.99243 12.5186C9.88057 12.628 9.74813 12.7143 9.60276 12.7722C9.45739 12.8302 9.30198 12.8588 9.14549 12.8564C8.35825 12.8711 7.57225 12.8711 6.78747 12.8564C6.62592 12.859 6.46553 12.8286 6.31617 12.767C6.16681 12.7054 6.03163 12.6139 5.91895 12.4981C5.80627 12.3823 5.71847 12.2447 5.66095 12.0937C5.60342 11.9427 5.5774 11.7816 5.58446 11.6201C5.58077 11.2401 5.58446 10.8637 5.58446 10.4836ZM6.83175 11.5906H9.09014V9.37651H6.83175V11.5906Z" fill="white"/>
<path id="Vector_3" d="M10.9207 15.1444C12.43 15.1444 13.9429 15.1444 15.4522 15.1444C15.6227 15.1439 15.7904 15.1871 15.9393 15.2699C16.0413 15.3319 16.1195 15.4263 16.1616 15.538C16.2038 15.6496 16.2073 15.7722 16.1718 15.8861C16.1464 16.0073 16.0842 16.1177 15.9937 16.2022C15.9033 16.2868 15.7889 16.3413 15.6663 16.3585C15.584 16.3658 15.5013 16.3658 15.419 16.3585H6.19355C6.02879 16.3555 5.87188 16.2875 5.7571 16.1693C5.64232 16.0511 5.579 15.8922 5.58098 15.7274C5.58192 15.648 5.5987 15.5695 5.63032 15.4966C5.66195 15.4237 5.70779 15.3578 5.76517 15.3029C5.82255 15.2479 5.89032 15.2049 5.96451 15.1764C6.03869 15.1479 6.11781 15.1345 6.19724 15.137C7.00539 15.137 7.80985 15.137 8.618 15.137L10.9207 15.1444Z" fill="white"/>
<path id="Vector_4" d="M8.73084 19.8863C7.93376 19.8863 7.13668 19.8863 6.3396 19.8863C5.85988 19.8863 5.60156 19.6538 5.60156 19.2701C5.60156 18.8863 5.89678 18.6538 6.35805 18.6538H11.1553C11.283 18.6408 11.4118 18.6652 11.5258 18.7242C11.6398 18.7832 11.7342 18.8741 11.7974 18.9859C11.8546 19.084 11.882 19.1967 11.8761 19.3101C11.8702 19.4235 11.8313 19.5327 11.7642 19.6243C11.6956 19.72 11.6025 19.7955 11.4948 19.8429C11.387 19.8903 11.2685 19.9078 11.1516 19.8937C10.3435 19.8826 9.5353 19.8863 8.73084 19.8863Z" fill="white"/>
<path id="Vector_5" d="M14.766 9.32574H12.408C11.9541 9.32574 11.7068 9.09326 11.7068 8.70948C11.7072 8.62222 11.7261 8.53602 11.7622 8.4566C11.7984 8.37719 11.851 8.30635 11.9166 8.24879C11.9822 8.19123 12.0592 8.14825 12.1427 8.12271C12.2261 8.09716 12.314 8.08962 12.4006 8.1006H17.1425C17.2291 8.09111 17.3167 8.09997 17.3996 8.12661C17.4826 8.15326 17.559 8.19708 17.6238 8.25522C17.6887 8.31337 17.7406 8.38453 17.7761 8.46407C17.8116 8.54361 17.83 8.62974 17.83 8.71686C17.83 8.80397 17.8116 8.8901 17.7761 8.96964C17.7406 9.04918 17.6887 9.12035 17.6238 9.17849C17.559 9.23664 17.4826 9.28046 17.3996 9.3071C17.3167 9.33374 17.2291 9.34261 17.1425 9.33312C16.3565 9.32574 15.5631 9.32574 14.766 9.32574Z" fill="white"/>
<path id="Vector_6" d="M8.42625 23.4144C7.68822 23.4144 6.97601 23.4144 6.24904 23.4144C6.11521 23.4229 5.98227 23.3875 5.87039 23.3136C5.75851 23.2397 5.67379 23.1313 5.62909 23.0048C5.57864 22.9028 5.56358 22.7868 5.5863 22.6752C5.60902 22.5636 5.66821 22.4628 5.75456 22.3886C5.90094 22.2668 6.0814 22.1934 6.27119 22.1782C7.71036 22.1782 9.15322 22.1782 10.5924 22.1782C10.6793 22.1705 10.7669 22.181 10.8495 22.2091C10.9321 22.2372 11.008 22.2822 11.0722 22.3412C11.1365 22.4002 11.1877 22.472 11.2226 22.552C11.2576 22.6319 11.2754 22.7183 11.2751 22.8056C11.271 22.8927 11.2492 22.9782 11.2112 23.0567C11.1731 23.1353 11.1195 23.2053 11.0536 23.2625C10.9878 23.3198 10.911 23.3631 10.8279 23.3898C10.7448 23.4166 10.6572 23.4262 10.5703 23.4181C9.86174 23.4181 9.14215 23.4144 8.42625 23.4144Z" fill="white"/>
<path id="Vector_7" d="M14.2199 12.8606C13.6 12.8606 12.9764 12.8606 12.3527 12.8606C12.2065 12.8715 12.0611 12.83 11.9427 12.7434C11.8244 12.6569 11.7408 12.5309 11.7069 12.3882C11.6681 12.2588 11.6761 12.1199 11.7294 11.9958C11.7827 11.8716 11.8779 11.7702 11.9985 11.7092C12.1258 11.6462 12.266 11.6134 12.4081 11.6133C13.6209 11.6133 14.835 11.6133 16.0503 11.6133C16.5079 11.6133 16.7883 11.879 16.7883 12.2554C16.7883 12.6318 16.4894 12.8569 16.0503 12.8606C15.4451 12.8643 14.8325 12.8606 14.2199 12.8606Z" fill="white"/>
<path id="Vector_8" d="M12.2048 5.29612C12.2062 5.3775 12.1915 5.45834 12.1613 5.53395C12.1312 5.60955 12.0863 5.67839 12.0293 5.73645C11.9723 5.79451 11.9042 5.84063 11.8292 5.8721C11.7541 5.90358 11.6736 5.91978 11.5922 5.91977C11.5098 5.92026 11.4282 5.90435 11.3521 5.87295C11.276 5.84155 11.2069 5.7953 11.1488 5.7369C11.0907 5.6785 11.0449 5.60912 11.0139 5.53281C10.983 5.45649 10.9676 5.37478 10.9685 5.29243C10.9722 5.133 11.0364 4.98093 11.1481 4.86714C11.2598 4.75335 11.4107 4.68639 11.5701 4.67986C11.6524 4.6779 11.7343 4.69237 11.811 4.72241C11.8877 4.75245 11.9576 4.79748 12.0167 4.85485C12.0758 4.91222 12.1228 4.98079 12.1551 5.05656C12.1874 5.13232 12.2043 5.21377 12.2048 5.29612Z" fill="white"/>
</g>
</g>
</svg>
