<svg width="100" height="22" viewBox="0 0 100 22" fill="none" xmlns="http://www.w3.org/2000/svg">
<path d="M14.0485 7.8003L12.9774 8.21411L12.8742 8.50905L12.6343 8.66821C12.5663 7.76121 12.5224 7.4014 12.5035 7.4014L12.8904 7.39616L13.6031 6.50971L12.5667 6.96301L12.4734 7.27165L11.4564 8.05777C11.4789 8.25198 11.537 8.84227 11.4979 9.42008L11.7228 9.26575C11.82 13.5856 9.88287 15.2106 9.88287 15.2106C9.39314 14.9801 9.26666 14.8113 9.26666 14.8113C11.0335 12.8043 10.9524 9.90279 10.9493 9.79923L10.7631 9.92454C10.7631 9.92454 10.8394 9.00667 10.7896 8.57271L10.4639 8.82454C10.4564 8.52799 10.4394 8.28139 10.4196 8.10934C10.6165 8.12264 10.8196 8.09242 10.9864 7.96993C11.1623 7.83978 11.2556 7.45619 11.2849 7.2914C11.3141 7.1274 11.2797 7.0718 11.1821 7.00733C11.0845 6.94326 10.8789 6.75348 10.7955 6.66806C10.7955 6.66806 10.9639 6.59433 11.358 6.7829C11.7833 6.98799 12.1062 6.88806 12.4691 6.33967L12.0335 6.40455L12.0718 6.09832C12.0789 6.10154 12.0865 6.10557 12.0944 6.11041C12.1548 6.15312 12.3608 6.23008 12.4584 6.24982C12.5564 6.26997 12.5537 6.25546 12.6153 6.29293C12.677 6.3296 12.7295 6.34531 12.762 6.3296C12.762 6.3296 13.005 6.46901 13.1027 6.3296C13.1027 6.3296 13.1967 6.38682 13.2442 6.40414C13.3173 6.43154 13.4355 6.47425 13.4738 6.4666C13.513 6.45894 13.6058 6.49923 13.6209 6.50649C13.7742 6.58506 13.8679 6.54436 13.8896 6.50649C13.9122 6.46901 13.7944 6.34491 13.7035 6.26755C13.613 6.19019 13.5347 6.17528 13.5347 6.17528C13.5643 6.15513 13.5568 6.12491 13.4979 6.05279C13.4394 5.97986 13.2465 5.88315 13.2465 5.88315C13.2489 5.82553 13.0284 5.68612 12.8971 5.58418C12.7639 5.48183 12.8185 5.48707 12.679 5.34041C12.5398 5.19253 11.9011 4.67597 11.5829 4.44469C11.2651 4.21341 10.3924 3.53528 9.64571 3.2907C8.90065 3.04572 8.45914 3.10132 8.14412 3.30077C7.8283 3.50022 7.90656 3.76696 7.96348 3.93176C8.01882 4.09656 8.12751 4.30326 8.19115 4.43019C8.25439 4.55751 8.20301 4.55509 8.17376 4.57564C8.14451 4.59458 8.17574 4.64495 8.14728 4.63971C8.11803 4.63487 8.09985 4.67235 8.06309 4.71466C8.0449 4.73601 7.99075 4.75455 7.9204 4.76905C7.90656 4.70901 7.94332 4.66389 7.94332 4.66389C7.89391 4.63447 7.80933 4.6248 7.80933 4.6248C7.81961 4.60385 7.85834 4.58934 7.85834 4.58934C7.80459 4.57524 7.70182 4.59378 7.70182 4.59378C7.71842 4.56678 7.73304 4.56235 7.73304 4.56235C7.6366 4.5289 7.55043 4.60868 7.51565 4.64777C7.47296 4.57 7.41841 4.5152 7.36426 4.46323C7.30616 4.40802 7.27652 4.32824 7.21406 4.26579C7.21406 4.26579 7.26505 4.18682 7.22829 4.10784C7.19232 4.02927 7.09232 3.96601 7.03383 3.9511C7.03383 3.9511 7.0856 3.92411 7.07809 3.86447C7.07098 3.80484 7.01604 3.78227 6.95714 3.80161C6.89786 3.81975 6.82908 3.81975 6.78481 3.86125C6.78481 3.86125 6.73659 3.86649 6.69904 3.86165C6.74726 3.69766 6.77137 3.47363 6.49548 3.30037C6.18046 3.10092 5.74053 3.04572 4.99428 3.2903C4.24842 3.53528 3.37528 4.21301 3.05789 4.44429C2.7401 4.67557 2.10056 5.19213 1.96262 5.34C1.8223 5.48667 1.87606 5.48143 1.74483 5.58378C1.61242 5.68572 1.39226 5.82513 1.39463 5.88275C1.39463 5.88275 1.20174 5.97986 1.14285 6.05238C1.08435 6.12451 1.07684 6.15473 1.10569 6.17487C1.10569 6.17487 1.02822 6.18978 0.93731 6.26715C0.846795 6.34451 0.729402 6.46861 0.751141 6.50608C0.773671 6.54396 0.865767 6.58466 1.02031 6.50608C1.03454 6.49883 1.12783 6.45854 1.16696 6.46619C1.20609 6.47345 1.32388 6.43114 1.397 6.40374C1.44443 6.38601 1.5389 6.3292 1.5389 6.3292C1.63653 6.46861 1.87882 6.3292 1.87882 6.3292C1.91044 6.34451 1.96459 6.3292 2.02507 6.29253C2.08634 6.25506 2.08396 6.26956 2.1812 6.24942C2.27962 6.22967 2.48555 6.15312 2.54602 6.11C2.55432 6.10356 2.56302 6.09993 2.57053 6.09711L2.60966 6.40455L2.17408 6.33967C2.53575 6.88806 2.85907 6.98839 3.28437 6.7829C3.67884 6.59433 3.84723 6.66806 3.84723 6.66806C3.76422 6.75348 3.55789 6.94326 3.46066 7.00733C3.36303 7.0722 3.32864 7.1274 3.35829 7.2914C3.38714 7.45619 3.47963 7.83978 3.65671 7.96993C3.82351 8.09242 4.02667 8.12224 4.22351 8.10934C4.20375 8.28099 4.18715 8.52799 4.17885 8.82454L3.84999 8.5703C3.80019 9.00385 3.87608 9.92454 3.87608 9.92454L3.69031 9.79923C3.68635 9.90319 3.60612 12.8043 5.37373 14.8113C5.37373 14.8113 5.24606 14.9801 4.75712 15.2106C4.75712 15.2106 2.81915 13.5852 2.91797 9.26575L3.14287 9.42008C3.10295 8.84066 3.16145 8.24835 3.18358 8.05575L2.16974 7.27165L2.07606 6.96301L1.03968 6.50971L1.75313 7.39616L2.1397 7.4014C2.11993 7.4014 2.07606 7.76121 2.00768 8.66821L1.76854 8.50905L1.66538 8.21411L0.594618 7.8003L1.35233 8.66257L1.72902 8.63839C1.72902 8.63839 1.34324 12.4626 2.61678 14.5204C3.67766 16.2324 5.22076 16.2461 6.62552 15.2843C6.57572 15.4515 6.40615 15.9492 5.93144 16.8562C5.93144 16.8562 6.20536 16.8562 6.49864 16.9069C6.49864 16.9069 6.44054 17.1559 6.40971 17.2309C6.37967 17.3078 6.38481 17.434 6.52908 17.4408C6.67414 17.4452 6.86228 17.4638 6.86228 17.4638C6.86228 17.4638 6.83659 17.6435 6.83264 17.739C6.82829 17.8679 6.81604 17.9215 7.3196 17.9433C7.84727 17.9215 7.81289 17.8679 7.80775 17.739C7.80379 17.6435 7.77968 17.4638 7.77968 17.4638C7.77968 17.4638 7.96822 17.4456 8.11289 17.4408C8.25716 17.434 8.2623 17.3078 8.23186 17.2309C8.20222 17.1555 8.14174 16.9069 8.14174 16.9069C8.43582 16.8562 8.70973 16.8562 8.70973 16.8562C8.23423 15.9459 8.06388 15.4499 8.01368 15.2843C9.41962 16.2457 10.9639 16.234 12.0256 14.5204C13.2987 12.4626 12.9129 8.63839 12.9129 8.63839L13.2896 8.66257L14.0485 7.8003ZM7.91842 6.31993C7.96032 6.12733 7.99431 5.96535 8.03344 5.99275C8.07218 6.02015 8.14095 6.02297 8.16546 5.99074C8.19036 5.95729 8.19748 5.95326 8.21724 5.98751C8.237 6.02216 8.354 6.07978 8.43266 5.94279C8.51092 5.80579 8.48878 5.8755 8.51092 5.92788C8.53345 5.97986 8.59432 6.00242 8.6627 5.94762C8.73108 5.89323 8.78483 5.84487 8.83385 5.8203C8.88207 5.79612 8.88444 5.80821 8.91132 5.75824C8.93859 5.70788 8.98247 5.68531 8.98444 5.65308C8.98681 5.62044 8.95519 5.58337 9.00223 5.55839C9.04847 5.53341 9.07061 5.51568 9.11251 5.53583C9.1544 5.55597 9.16587 5.51568 9.188 5.54308C9.20974 5.57048 9.23859 5.5733 9.26626 5.54308C9.29314 5.51326 9.3129 5.46612 9.34452 5.52092C9.37615 5.57531 9.4469 5.58781 9.46152 5.56041C9.47694 5.53341 9.4888 5.53059 9.50816 5.5733C9.52793 5.61561 9.59868 5.64824 9.67457 5.63575C9.67457 5.63575 9.74532 5.73528 9.83149 5.72037C9.91765 5.70506 9.95125 5.66074 9.95323 5.60151C9.95599 5.54147 9.92398 5.34 9.98248 5.38392C10.0414 5.42865 10.039 5.4089 10.0556 5.37345C10.073 5.3396 10.0999 5.37586 10.1295 5.36821C10.1588 5.36176 10.1536 5.32348 10.2026 5.37345C10.252 5.42381 10.2564 5.44839 10.303 5.46088C10.3493 5.47297 10.369 5.48586 10.4181 5.53824C10.4675 5.59063 10.5212 5.64784 10.6086 5.6152C10.6086 5.6152 10.6647 5.68975 10.724 5.68491C10.724 5.68491 10.8438 5.81748 10.9121 5.79773C10.9121 5.79773 11.0291 5.84689 11.0687 5.84246C11.1082 5.83762 11.1153 5.81063 11.1402 5.82433C11.1643 5.84004 11.1548 5.77718 11.1912 5.81949C11.2272 5.8622 11.294 5.93715 11.3355 5.92465C11.3355 5.92465 11.4339 6.00927 11.509 6.01813C11.5853 6.02861 11.6074 6.05158 11.6315 6.05158C11.6556 6.05158 11.6438 6.0266 11.688 6.06165C11.7315 6.09671 11.7959 6.11363 11.8374 6.09671C11.8789 6.07857 11.8955 6.08099 11.9331 6.08623C11.9453 6.08784 11.9612 6.08623 11.9785 6.08462C11.8556 6.2337 11.6951 6.35216 11.3967 6.25828C11.0011 6.13337 10.8825 6.19301 10.8007 6.27802C10.7173 6.36224 10.5366 6.60722 10.4868 6.76194C10.439 6.91627 10.4635 7.03594 10.7556 7.38528C10.7556 7.38528 10.3742 7.40986 9.87101 7.24506C9.36705 7.08107 8.90223 7.02103 8.43305 7.23579C8.35163 7.27326 8.27613 7.30751 8.20578 7.34337C8.1536 7.28938 8.02356 7.15279 7.97534 7.09074C7.97534 7.09074 8.00696 6.93158 8.00459 6.8389C8.00182 6.73414 7.99747 6.68498 7.96071 6.6322C7.92316 6.58183 7.87771 6.51172 7.91842 6.31993ZM9.93346 8.00821C9.71133 8.15125 9.33385 8.31927 8.77456 8.31927C8.33819 8.31927 8.00182 8.21693 7.76308 8.1029C7.86229 8.04085 8.24688 7.81803 8.73108 7.80513C9.29354 7.78982 9.5382 7.8692 9.80738 7.96509C9.84414 7.97839 9.88722 7.99249 9.93346 8.00821ZM7.61644 7.19389C7.6196 7.1955 7.62237 7.1963 7.62553 7.19751C7.72474 7.2374 7.82791 7.22249 7.82791 7.22249C7.85992 7.24264 7.99905 7.37601 8.04925 7.42638C7.90735 7.50495 7.78206 7.58715 7.65952 7.69312C7.62988 7.56942 7.5864 7.36755 7.59905 7.29986C7.60616 7.26198 7.61249 7.22572 7.61644 7.19389ZM6.91959 4.46726C6.97454 4.50433 7.08126 4.56839 7.11841 4.66107C7.12869 4.68887 7.13699 4.71546 7.1441 4.74085C7.06624 4.7211 7.00616 4.71989 6.96031 4.72755C6.88086 4.5966 6.79232 4.51118 6.70971 4.45476C6.79627 4.44227 6.87098 4.43381 6.91959 4.46726ZM6.44884 4.42978C6.45002 4.42696 6.4516 4.42495 6.45279 4.42052C6.51998 4.52165 6.66505 4.69693 6.89746 4.7481C6.87335 4.76019 6.85517 4.7755 6.84212 4.78879C6.71603 4.77187 6.60536 4.7481 6.57572 4.71385C6.53896 4.67154 6.52236 4.63407 6.49271 4.6389C6.46386 4.64414 6.49508 4.59337 6.46623 4.57484C6.43658 4.55509 6.38639 4.55711 6.44884 4.42978ZM6.352 6.02861C6.36228 6.0959 6.38006 6.17004 6.41445 6.24378C6.40536 6.2607 6.39666 6.27762 6.38836 6.29535C6.3686 6.14183 6.30694 6.04191 6.29469 6.02337C6.31484 6.03022 6.33421 6.03103 6.352 6.02861ZM3.88596 7.38689C4.17925 7.03715 4.20336 6.91788 4.15474 6.76356C4.10573 6.60883 3.92509 6.36385 3.84169 6.27964C3.75869 6.19502 3.64169 6.13498 3.24524 6.25989C2.94682 6.35337 2.78753 6.23612 2.66381 6.08663C2.68041 6.08784 2.69504 6.08905 2.7065 6.08744C2.74405 6.0822 2.76026 6.08019 2.80294 6.09791C2.84405 6.11484 2.90808 6.09792 2.95156 6.06286C2.99583 6.02821 2.98358 6.05279 3.00769 6.05279C3.0322 6.05279 3.05433 6.02982 3.12983 6.01934C3.20572 6.01008 3.30374 5.92586 3.30374 5.92586C3.34564 5.93795 3.41086 5.86301 3.44841 5.8207C3.48517 5.77839 3.47489 5.84125 3.49979 5.82553C3.5239 5.81183 3.53181 5.83883 3.57054 5.84367C3.60928 5.8481 3.72746 5.79894 3.72746 5.79894C3.79545 5.81909 3.916 5.68612 3.916 5.68612C3.9741 5.69136 4.03063 5.61641 4.03063 5.61641C4.11838 5.64905 4.17292 5.59143 4.22193 5.53945C4.27016 5.48707 4.28992 5.47418 4.33656 5.46209C4.3832 5.4492 4.38755 5.42462 4.43617 5.37466C4.48557 5.32469 4.48004 5.36337 4.50968 5.36942C4.53893 5.37707 4.56621 5.34041 4.5832 5.37466C4.60099 5.41011 4.59822 5.42986 4.65633 5.38513C4.71443 5.34081 4.6832 5.54227 4.68558 5.60271C4.68913 5.66194 4.72273 5.70667 4.80811 5.72158C4.89388 5.73689 4.96503 5.63696 4.96503 5.63696C5.04013 5.64905 5.11167 5.61682 5.13104 5.57451C5.1508 5.5318 5.16305 5.53462 5.17728 5.56161C5.19191 5.58942 5.26305 5.57652 5.29546 5.52213C5.32669 5.46733 5.34566 5.51407 5.37333 5.54429C5.40021 5.57451 5.42946 5.57169 5.45159 5.54429C5.47333 5.51689 5.48638 5.55678 5.52788 5.53704C5.56899 5.51689 5.59152 5.53462 5.63737 5.5596C5.68361 5.58458 5.65239 5.62165 5.65476 5.65429C5.65713 5.68652 5.70179 5.70909 5.72828 5.75945C5.75555 5.80942 5.75832 5.79693 5.80654 5.8215C5.85555 5.84608 5.90931 5.89444 5.97769 5.94883C6.04053 5.99879 6.09626 5.96696 6.12275 5.92425C6.13263 5.96857 6.14725 6.0411 6.1682 6.0411C6.18915 6.0411 6.20694 5.98469 6.22235 5.94964C6.24409 5.98026 6.2682 5.9726 6.29192 5.98187C6.28046 6.00444 6.10931 6.35498 6.31801 6.66887H6.3184C6.32828 6.66887 6.33619 6.65597 6.3437 6.63502C6.36544 6.8389 6.35358 6.88484 6.35358 6.88484C6.35358 6.88484 6.25951 7.00693 6.19192 7.22249C5.72867 7.0174 5.26898 7.08187 4.77214 7.24385C4.26739 7.40784 3.88596 7.38689 3.88596 7.38689ZM6.02986 7.81279C5.97176 7.99048 5.89508 8.1726 5.79073 8.31766C5.27372 8.30275 4.91997 8.14561 4.7085 8.00821C4.75514 7.99249 4.79743 7.97839 4.83459 7.96509C5.10376 7.8692 5.34882 7.79022 5.91089 7.80513C5.9516 7.80634 5.99073 7.80997 6.02986 7.81279ZM4.36423 8.07792C4.40929 8.06986 4.45395 8.06784 4.50573 8.05495C4.6504 8.20282 5.05673 8.53282 5.82235 8.53282C6.81366 8.53282 7.31999 8.04729 7.31999 8.04729C7.31999 8.04729 7.82553 8.53443 8.81685 8.53443C9.58326 8.53443 9.9888 8.20806 10.1331 8.06059C10.186 8.07348 10.2299 8.06986 10.275 8.07751C10.3951 9.0929 10.1955 10.5346 10.1955 10.5346H7.3196H4.44328C4.44328 10.535 4.24446 9.0933 4.36423 8.07792ZM4.44328 10.7103H7.3196H10.1951C10.1951 10.7103 10.107 11.832 9.63781 12.7729H7.3196H5.0006C4.53103 11.8316 4.44328 10.7103 4.44328 10.7103ZM7.3196 15.512C5.59586 14.2399 5.08874 12.9385 5.08874 12.9385H7.3196H9.54967C9.54967 12.9385 9.04452 14.2399 7.3196 15.512Z" fill="white"/>
<path d="M8.39759 10.3984C8.49759 10.396 8.58969 10.3597 8.66716 10.2993C8.70866 10.3134 8.75095 10.3206 8.79522 10.319C8.95017 10.3174 9.08495 10.2143 9.15886 10.0632C9.22922 10.0728 9.30037 10.0632 9.36519 10.0281C9.5063 9.95116 9.57073 9.77749 9.54029 9.60182C9.54859 9.59658 9.55492 9.59013 9.56243 9.58449C9.69049 9.4753 9.68772 9.25932 9.55847 9.09896C9.55452 9.09372 9.55096 9.08969 9.54582 9.08566C9.5897 9.05222 9.61895 9.00427 9.61895 8.94786C9.61895 8.84834 9.50116 8.76855 9.39286 8.76855C9.28574 8.76855 9.16756 8.84834 9.16756 8.94786V8.94866C9.16756 8.95431 9.09997 8.97324 9.06123 9.00749C9.00629 9.05343 8.99167 9.12112 8.98416 9.19445C8.9644 9.20171 8.95214 9.20815 8.93317 9.21903C8.90669 9.23233 8.88771 9.25167 8.86716 9.27182C8.83554 9.26376 8.80668 9.25932 8.77348 9.26053C8.72645 9.26094 8.68218 9.27182 8.63949 9.28954C8.56202 9.23555 8.47229 9.20453 8.37506 9.20735C8.09561 9.21178 7.87466 9.48376 7.88059 9.81215C7.88691 10.1421 8.11893 10.4036 8.39759 10.3984Z" fill="white"/>
<path d="M5.10112 9.58409C5.10784 9.58973 5.11495 9.59617 5.12326 9.60141C5.09282 9.77709 5.15685 9.95075 5.29757 10.0277C5.3616 10.0628 5.43353 10.0724 5.50429 10.0628C5.5782 10.2139 5.71259 10.317 5.86753 10.3186C5.9118 10.3202 5.95449 10.3134 5.9956 10.2989C6.07267 10.3593 6.16477 10.3956 6.26477 10.398C6.54422 10.4032 6.77545 10.1417 6.78217 9.81215C6.7877 9.48335 6.56636 9.21178 6.28691 9.20735C6.19046 9.20453 6.09995 9.23555 6.02168 9.28914C5.98018 9.27182 5.93473 9.26134 5.8873 9.26053C5.85449 9.25932 5.82247 9.26376 5.79283 9.27101C5.77148 9.25167 5.74856 9.23233 5.72168 9.21903C5.7031 9.20815 5.68295 9.2009 5.66318 9.19445C5.65646 9.12112 5.64737 9.05343 5.59203 9.00749C5.5533 8.97284 5.47662 8.95431 5.47662 8.94866V8.94786C5.47662 8.84834 5.36792 8.76855 5.26041 8.76855C5.15211 8.76855 5.05408 8.84834 5.05408 8.94786C5.05408 9.00427 5.07701 9.05222 5.12049 9.08566C5.11693 9.08929 5.111 9.09372 5.10665 9.09896C4.97622 9.25812 4.97266 9.47449 5.10112 9.58409Z" fill="white"/>
<path d="M7.33818 12.6471L7.57691 12.2785L7.53146 12.104L7.71921 12.1302C7.73186 12.21 7.78245 12.3014 7.85755 12.3127C7.93344 12.3264 8.05874 12.3127 8.05874 12.3127L8.12988 12.2281C8.04214 12.1427 7.93344 12.0705 7.93344 12.0705C7.90814 11.5616 7.82079 11.2159 7.75636 11.0326C7.69391 10.8493 7.61051 10.844 7.45083 10.8654C7.29193 10.8867 6.8603 11.1523 6.8603 11.1523L6.83066 11.4077L6.97809 11.4242C6.97809 11.4242 6.8939 11.7107 6.86426 11.8139C6.83501 11.917 6.8603 11.9122 6.91446 11.9513C6.96861 11.9891 7.17454 12.0399 7.17454 12.0399L7.11564 12.305L7.33818 12.6471Z" fill="white"/>
<path d="M6.7769 9.41123C6.86267 9.9161 7.18165 9.96204 7.30774 9.95921C7.30576 10.1373 7.27572 10.2783 7.27572 10.2783L7.43264 10.3879C7.44964 10.176 7.44608 10.008 7.43304 9.8742C7.81012 9.81859 7.88719 9.24683 7.88719 9.24683C7.51999 9.41566 7.44252 9.68643 7.42632 9.80932C7.40023 9.60544 7.3524 9.49423 7.32711 9.4483C7.56584 9.4213 7.75083 9.21541 7.75083 8.96478C7.75083 8.82456 7.69272 8.69804 7.59826 8.6094L7.67652 8.45991L7.51011 8.49376L7.44173 8.36401L7.3196 8.46434L7.24647 8.36401L7.16821 8.47925L7.02117 8.39464L7.06228 8.53042C6.90497 8.6094 6.79667 8.7742 6.79667 8.96478C6.79667 9.20574 6.969 9.40478 7.1943 9.44467C7.26861 9.56354 7.29786 9.71464 7.30616 9.85566C7.10023 9.52042 6.7769 9.41123 6.7769 9.41123ZM7.2943 9.44024C7.17928 9.44024 7.0856 9.23072 7.0856 8.97163C7.0856 8.71456 7.17928 8.50504 7.2943 8.50504C7.40932 8.50504 7.5026 8.71456 7.5026 8.97163C7.5026 9.23072 7.40932 9.44024 7.2943 9.44024Z" fill="white"/>
<path d="M7.71037 13.5654C7.66807 13.461 7.66807 13.3579 7.71037 13.2527H7.13645C7.09376 13.3579 7.09376 13.461 7.13645 13.5654H7.71037Z" fill="white"/>
<path d="M7.13698 14.2976C7.09429 14.402 7.09429 14.6115 7.13698 14.7167H7.7109C7.6686 14.6115 7.6686 14.4024 7.7109 14.2976H7.13698Z" fill="white"/>
<path d="M7.84727 13.8801L7.97534 13.6706H7.09825L7.00181 13.5654H6.96189H6.6358L6.68125 13.6706H6.76939L6.86307 13.8801H7.84727Z" fill="white"/>
<path d="M7.84016 14.8213H7.80774H7.66229H7.53857H7.39351H7.30023H7.14529H7.09746L7.04449 14.7166H6.85161L6.9105 14.8358L7.06781 14.9241H7.82435L7.97692 14.8342L7.99826 14.7166H7.87454L7.84016 14.8213Z" fill="white"/>
<path d="M31.228 7.36914C30.3995 6.54152 29.1734 6.10233 28.0967 6.10233C25.3797 6.10233 23.8057 8.17944 23.8223 10.6792C23.8223 12.8409 25.0816 14.9354 28.0967 14.9354C29.0908 14.9354 30.0019 14.6819 30.9295 13.8882V11.4899H27.6991V9.80123H32.6529V14.6485C31.4932 15.9491 30.0517 16.7091 28.0967 16.7091C23.8389 16.7091 21.9998 13.8213 21.9998 10.6796C21.9998 7.26801 24.137 4.36328 28.0967 4.36328C29.6374 4.36328 31.1948 4.95438 32.3877 6.1535L31.228 7.36914Z" fill="white"/>
<path d="M46.0264 10.5697C46.0264 13.7746 44.1133 16.7087 40.071 16.7087C36.0287 16.7087 34.1156 13.7069 34.1156 10.5866C34.1156 6.97431 36.5943 4.36292 40.1042 4.36292C44.0801 4.37984 46.0264 7.36434 46.0264 10.5697ZM40.071 14.9616C42.9655 14.9616 44.1801 12.8756 44.1801 10.6031C44.1801 8.41559 42.9489 6.14306 40.1046 6.09229C37.4097 6.09229 35.9623 8.00863 35.9623 10.6031C35.9955 12.7064 37.1931 14.9616 40.071 14.9616Z" fill="white"/>
<path d="M53.3187 16.7082H51.3092L46.3115 4.40027H48.4755L52.3056 14.3623L56.1527 4.40027H58.2994L53.3187 16.7082Z" fill="white"/>
<path d="M59.5567 15.4664C59.5567 17.1224 57.1298 17.1224 57.1298 15.4664C57.1294 13.8301 59.5567 13.8301 59.5567 15.4664Z" fill="white"/>
<path d="M71.3129 14.9398C70.1117 16.1469 68.5603 16.7082 66.9259 16.7082C62.6887 16.7082 60.7871 13.7322 60.7705 10.6034C60.7539 7.47466 62.7555 4.36243 66.9259 4.36243C68.4939 4.36243 70.0121 4.95755 71.1963 6.16514L69.9453 7.38964C69.1113 6.55638 68.0101 6.16514 66.9259 6.16514C63.9567 6.16514 62.6053 8.39294 62.6223 10.5865C62.6389 12.7631 63.9069 14.9228 66.9259 14.9228C68.0101 14.9228 69.2113 14.4635 70.0287 13.6302L71.3129 14.9398Z" fill="white"/>
<path d="M84.7559 10.5881C84.7559 13.7833 82.8487 16.7082 78.8186 16.7082C74.7886 16.7082 72.8814 13.7156 72.8814 10.605C72.8814 7.00401 75.3526 4.40027 78.8518 4.40027C82.8155 4.41719 84.7559 7.39283 84.7559 10.5881ZM78.8186 14.9671C81.7044 14.9671 82.9151 12.8876 82.9151 10.6219C82.9151 8.44086 81.6879 6.17558 78.8518 6.12481C76.1653 6.12481 74.7221 8.0351 74.7221 10.6219C74.7554 12.7184 75.9494 14.9671 78.8186 14.9671Z" fill="white"/>
<path d="M18.4592 1.89343H17.156V9.30091H18.4592V1.89343Z" fill="#FBD000"/>
<path d="M18.4592 9.3009H17.156V14.2392H18.4592V9.3009Z" fill="#00549F"/>
<path d="M18.4592 14.2393H17.156V19.178H18.4592V14.2393Z" fill="#D21A3A"/>
</svg>
