<svg width="91" height="88" viewBox="0 0 91 88" fill="none" xmlns="http://www.w3.org/2000/svg">
<path fill-rule="evenodd" clip-rule="evenodd" d="M8.99861 31.4933V31.5307C8.96115 31.6899 8.95179 31.8117 8.95179 31.8866C8.95179 32.3923 9.24209 32.7669 9.80397 33.0104C10.3846 33.2538 11.2742 33.3756 12.4729 33.3756C13.3907 33.3756 14.1024 33.2726 14.6268 33.0759C15.1512 32.8792 15.4134 32.5983 15.4134 32.2425C15.4134 31.7087 14.3833 31.2779 12.3324 30.9408C12.089 30.9033 11.911 30.8752 11.7987 30.8565C11.6675 30.8284 11.4709 30.8003 11.218 30.7628C7.95913 30.229 5.86144 29.6484 4.93434 29.0304C4.48483 28.7213 4.13834 28.3655 3.90422 27.9534C3.67947 27.5414 3.56709 27.0731 3.56709 26.5487C3.56709 25.2751 4.31627 24.3012 5.81462 23.6363C7.31297 22.9714 9.5043 22.6343 12.398 22.6343C15.2917 22.6343 17.3613 22.9433 18.7379 23.5707C20.1145 24.1982 20.7981 25.1627 20.7981 26.4551V26.6049H15.3947V26.5487C15.3947 26.0992 15.1231 25.7621 14.58 25.5373C14.0368 25.3032 13.2315 25.1908 12.1732 25.1908C11.3585 25.1908 10.7217 25.2751 10.2816 25.4343C9.83207 25.6029 9.61668 25.837 9.61668 26.1367C9.61668 26.6798 10.7966 27.1387 13.1472 27.5133C13.5967 27.5788 13.9619 27.635 14.2147 27.6818C15.891 27.9628 17.0897 28.2063 17.8014 28.4029C18.5131 28.5996 19.1218 28.8431 19.6463 29.1146C20.2175 29.433 20.667 29.8264 20.9761 30.304C21.2851 30.7816 21.4443 31.306 21.4443 31.8772C21.4443 33.1883 20.6296 34.1997 18.9907 34.9114C17.3613 35.6231 15.0014 35.9696 11.9391 35.9696C8.87687 35.9696 6.71363 35.6325 5.35575 34.9488C3.99787 34.2652 3.32361 33.1789 3.32361 31.6712V31.4745H9.00798V31.4933H8.99861ZM23.8042 35.7636V22.8309H39.1997V25.6216H29.5822V27.6818H38.4787V30.4351H29.5822V32.9448H39.565V35.7636H23.7948H23.8042ZM41.9811 35.7636V22.8309H49.3042L57.1425 31.512V22.8309H62.6957V35.7636H55.101L47.5249 27.0544V35.7636H41.9811ZM77.6324 30.6036L74.8605 25.9026L71.9293 30.6036H77.6324ZM68.8203 35.7636H63.0235L71.9762 22.8309H78.391L86.9316 35.7636H80.4887L79.187 33.4318H70.2156L68.8203 35.7636Z" fill="#009E00"/>
<path fill-rule="evenodd" clip-rule="evenodd" d="M17.1187 81.3693L11.9493 76.509L27.682 49.2109C28.5436 47.7219 27.4666 45.8584 25.7435 45.8584H0V39.0315H41.4388L17.1187 81.3599V81.3693Z" fill="#009E00"/>
<path fill-rule="evenodd" clip-rule="evenodd" d="M73.1302 81.3693L78.2995 76.509L62.5668 49.2109C61.7052 47.7219 62.7822 45.8584 64.5053 45.8584H90.2488V39.0315H48.8101L73.1302 81.3599V81.3693Z" fill="#009E00"/>
<path fill-rule="evenodd" clip-rule="evenodd" d="M44.8085 46.2614C44.846 46.1958 44.8647 46.1677 44.8647 46.1677L68.2203 84.769L62.0208 87.9998L46.9718 62.7994C46.0821 61.3104 43.9376 61.3104 43.0573 62.7994C38.0379 71.2557 28.1113 87.9998 28.1113 87.9998L22.043 84.9937C22.043 84.9937 43.5724 48.3872 44.8179 46.2707L44.8085 46.2614Z" fill="#009E00"/>
<path d="M45.1286 19.2538C50.4454 19.2538 54.7555 14.9437 54.7555 9.6269C54.7555 4.31011 50.4454 0 45.1286 0C39.8118 0 35.5017 4.31011 35.5017 9.6269C35.5017 14.9437 39.8118 19.2538 45.1286 19.2538Z" fill="#009E00"/>
</svg>
