<?xml version="1.0" encoding="UTF-8"?>
<svg id="Capa_1" xmlns="http://www.w3.org/2000/svg" viewBox="0 0 63.73 62.14">
  <defs>
    <style>
      .cls-1 {
        fill: #39a900;
      }
    </style>
  </defs>
  <path class="cls-1" d="M32.06,0c-3.81,0-6.85,3.1-6.85,6.85s3.1,6.85,6.85,6.85,6.85-3.1,6.85-6.85S35.87,0,32.06,0ZM9.44,15.89c-1.23,0-2.46.06-3.55.39-.78.19-1.49.52-1.94.97-.58.65-.65,1.42-.39,2.13.26.65.97,1.1,1.75,1.36,1.68.58,3.55.71,5.3,1.03.32.06.71.19.9.39.19.26.06.65-.26.78-.58.32-1.29.32-2,.26-.58,0-1.29-.06-1.75-.39-.39-.19-.39-.58-.32-.9h-3.94c0,.58.13,1.23.52,1.74.39.45.97.78,1.62.9,1.03.32,2.13.39,3.23.39,1.49,0,2.97,0,4.4-.32.84-.19,1.68-.52,2.2-1.1.97-.97.71-2.52-.52-3.23-.65-.39-1.42-.58-2.2-.78-1.16-.26-2.26-.39-3.43-.58-.39-.06-.84-.13-1.16-.32-.32-.19-.39-.65,0-.84.45-.26,1.1-.26,1.68-.26s1.23.06,1.75.32c.26.13.39.39.39.65h3.75c0-.45-.13-.97-.45-1.36-.39-.52-1.1-.84-1.81-1.03-1.36-.13-2.59-.19-3.75-.19ZM17.52,16.15v8.91h10.92v-1.94h-6.92v-1.74h6.14v-1.87h-6.14v-1.42h6.66v-1.94h-10.66ZM35.55,16.15h-5.04v8.91h3.81v-6.01l5.24,6.01h5.24v-8.91h-3.81v5.94l-5.43-5.94ZM51.64,16.15s-4.14,5.94-6.2,8.91h4.01l.97-1.61h6.2l.9,1.61h4.46l-5.88-8.91h-4.46ZM53.65,18.28l1.94,3.23h-3.94l2-3.23ZM0,27.64l.06,4.84,18.23-.06c.9.19,1.49.78,1.29,2.2l-11.25,19.57,3.62,3.42,17.32-29.97H0ZM34.71,27.64l17.06,29.84,3.75-3.36-11.31-19.57c-.19-1.36.32-2,1.29-2.2l18.23.06v-4.78h-29.02ZM31.86,32.62l-16.03,27.39,4.27,2.07,10.66-18.02c.39-.32.71-.45,1.1-.45s.78.13,1.16.45l10.66,18.09,4.4-2.26-16.22-27.26Z"/>
</svg>