<svg width="27" height="28" viewBox="0 0 27 28" fill="none" xmlns="http://www.w3.org/2000/svg">
<path d="M9.2004 15.9459H4.17337C3.50733 15.9497 2.86985 16.2169 2.40022 16.6893C1.93059 17.1616 1.66698 17.8005 1.66699 18.4666V23.4936C1.66665 23.8229 1.73125 24.1489 1.85708 24.4532C1.98292 24.7574 2.16753 25.0339 2.40033 25.2667C2.63314 25.4995 2.90958 25.6841 3.21382 25.8099C3.51806 25.9357 3.84413 26.0003 4.17337 26H9.2004C9.86654 26.0007 10.5058 25.7373 10.978 25.2674C11.4503 24.7976 11.717 24.1598 11.7197 23.4936V18.4666C11.7194 17.7985 11.4539 17.1579 10.9815 16.6855C10.5091 16.2131 9.86847 15.9476 9.2004 15.9472M16.8441 20.8692L18.9807 23.0058C19.0556 23.0823 19.145 23.1431 19.2437 23.1846C19.3424 23.2261 19.4484 23.2474 19.5554 23.2474C19.6625 23.2474 19.7684 23.2261 19.8671 23.1846C19.9658 23.1431 20.0552 23.0823 20.1301 23.0058L24.4372 18.7001M9.2004 2H4.17337C3.84413 1.99966 3.51806 2.06426 3.21382 2.19009C2.90958 2.31593 2.63314 2.50053 2.40033 2.73334C2.16753 2.96615 1.98292 3.24258 1.85708 3.54683C1.73125 3.85107 1.66665 4.17714 1.66699 4.50638V9.53341C1.6663 10.1995 1.92973 10.8388 2.39955 11.311C2.86936 11.7833 3.50724 12.05 4.17337 12.0528H9.2004C9.53134 12.0531 9.8591 11.9882 10.1649 11.8617C10.4707 11.7352 10.7486 11.5496 10.9826 11.3156C11.2166 11.0816 11.4022 10.8037 11.5287 10.4979C11.6552 10.1921 11.7201 9.86435 11.7197 9.53341V4.50638C11.717 3.84047 11.4505 3.20279 10.9785 2.73301C10.5065 2.26323 9.86631 1.99965 9.2004 2ZM23.1606 2H18.1336C17.4674 1.99931 16.8282 2.26274 16.356 2.73255C15.8837 3.20237 15.617 3.84024 15.6142 4.50638V9.53341C15.6146 10.2015 15.8801 10.8421 16.3525 11.3145C16.8249 11.7869 17.4655 12.0524 18.1336 12.0528H23.1606C23.8267 12.05 24.4646 11.7833 24.9344 11.311C25.4043 10.8388 25.6677 10.1995 25.667 9.53341V4.50638C25.6673 4.17714 25.6027 3.85107 25.4769 3.54683C25.3511 3.24258 25.1665 2.96615 24.9337 2.73334C24.7008 2.50053 24.4244 2.31593 24.1202 2.19009C23.8159 2.06426 23.4899 1.99966 23.1606 2Z" stroke="#002C4D" stroke-width="2.4" stroke-linecap="round" stroke-linejoin="round"/>
</svg>
