<svg width="255" height="40" viewBox="0 0 255 40" fill="none" xmlns="http://www.w3.org/2000/svg">
<rect width="255" height="40" rx="20" fill="#FFC400"/>
<path d="M0 20C0 8.95431 8.95431 0 20 0H58V40H20C8.95431 40 0 31.0457 0 20V20Z" fill="#00324D"/>
<path d="M29 14.9998V25.0002M34.0002 20H23.9998M29 29C31.3869 29 33.6761 28.0518 35.364 26.364C37.0518 24.6761 38 22.3869 38 20C38 17.6131 37.0518 15.3239 35.364 13.636C33.6761 11.9482 31.3869 11 29 11C26.6131 11 24.3239 11.9482 22.636 13.636C20.9482 15.3239 20 17.6131 20 20C20 22.3869 20.9482 24.6761 22.636 26.364C24.3239 28.0518 26.6131 29 29 29Z" stroke="white" stroke-width="1.4" stroke-linecap="round" stroke-linejoin="round"/>
<path d="M91.06 13.3V26.5H87.9L83.28 18.74L82.14 16.58H82.12L82.2 18.86V26.5H79.72V13.3H82.86L87.48 21.04L88.62 23.22H88.66L88.58 20.94V13.3H91.06ZM97.6075 26.7C96.9408 26.7 96.3408 26.58 95.8075 26.34C95.2742 26.1 94.8475 25.72 94.5275 25.2C94.2208 24.6667 94.0675 23.98 94.0675 23.14V16.5H96.8075V22.48C96.8075 23.2533 96.9675 23.7933 97.2875 24.1C97.6075 24.3933 98.0675 24.54 98.6675 24.54C98.9475 24.54 99.2208 24.4933 99.4875 24.4C99.7542 24.2933 99.9875 24.1333 100.188 23.92C100.401 23.7067 100.568 23.4333 100.688 23.1C100.808 22.7533 100.868 22.3467 100.868 21.88V16.5H103.608V26.5H101.168L101.068 24.76C100.734 25.4267 100.274 25.92 99.6875 26.24C99.1142 26.5467 98.4208 26.7 97.6075 26.7ZM111.131 26.7C110.077 26.7 109.157 26.4933 108.371 26.08C107.597 25.6667 106.997 25.0733 106.571 24.3C106.144 23.5267 105.931 22.5933 105.931 21.5C105.931 20.4067 106.144 19.4733 106.571 18.7C106.997 17.9267 107.591 17.3333 108.351 16.92C109.124 16.5067 110.004 16.3 110.991 16.3C112.004 16.3 112.864 16.5067 113.571 16.92C114.277 17.32 114.817 17.8733 115.191 18.58C115.564 19.2733 115.751 20.0667 115.751 20.96C115.751 21.2267 115.744 21.48 115.731 21.72C115.717 21.96 115.697 22.1733 115.671 22.36H107.691V20.46H114.471L113.151 20.94C113.151 20.1 112.957 19.4533 112.571 19C112.197 18.5467 111.664 18.32 110.971 18.32C110.464 18.32 110.024 18.44 109.651 18.68C109.291 18.92 109.017 19.28 108.831 19.76C108.644 20.2267 108.551 20.82 108.551 21.54C108.551 22.2467 108.651 22.8333 108.851 23.3C109.064 23.7533 109.357 24.0933 109.731 24.32C110.117 24.5467 110.577 24.66 111.111 24.66C111.697 24.66 112.171 24.5467 112.531 24.32C112.891 24.0933 113.171 23.78 113.371 23.38L115.551 24.22C115.337 24.74 115.011 25.1867 114.571 25.56C114.144 25.9333 113.631 26.22 113.031 26.42C112.444 26.6067 111.811 26.7 111.131 26.7ZM124.32 16.5H127.16L123.36 26.5H120.2L116.4 16.5H119.32L121.8 24.4L124.32 16.5ZM134.163 20.12C134.163 19.5467 133.997 19.1 133.663 18.78C133.343 18.46 132.917 18.3 132.383 18.3C131.89 18.3 131.457 18.4267 131.083 18.68C130.71 18.9333 130.437 19.3533 130.263 19.94L127.923 19.22C128.15 18.34 128.643 17.6333 129.403 17.1C130.177 16.5667 131.21 16.3 132.503 16.3C133.383 16.3 134.15 16.44 134.803 16.72C135.457 16.9867 135.963 17.3933 136.323 17.94C136.697 18.4867 136.883 19.1733 136.883 20V24.06C136.883 24.5667 137.123 24.82 137.603 24.82C137.83 24.82 138.043 24.7867 138.243 24.72L138.083 26.42C137.737 26.5933 137.303 26.68 136.783 26.68C136.317 26.68 135.897 26.6 135.523 26.44C135.15 26.28 134.857 26.04 134.643 25.72C134.43 25.3867 134.323 24.9733 134.323 24.48V24.4L134.803 24.32C134.723 24.8267 134.503 25.26 134.143 25.62C133.783 25.9667 133.343 26.2333 132.823 26.42C132.317 26.6067 131.79 26.7 131.243 26.7C130.563 26.7 129.977 26.6 129.483 26.4C128.99 26.1867 128.61 25.88 128.343 25.48C128.077 25.08 127.943 24.5867 127.943 24C127.943 23.2533 128.183 22.6467 128.663 22.18C129.143 21.7 129.83 21.3733 130.723 21.2L134.483 20.44L134.463 22.14L132.063 22.62C131.61 22.7133 131.263 22.84 131.023 23C130.797 23.1467 130.683 23.3933 130.683 23.74C130.683 24.0733 130.803 24.3267 131.043 24.5C131.297 24.6733 131.597 24.76 131.943 24.76C132.223 24.76 132.497 24.7267 132.763 24.66C133.03 24.5933 133.27 24.4867 133.483 24.34C133.697 24.1933 133.863 23.9933 133.983 23.74C134.103 23.4867 134.163 23.18 134.163 22.82V20.12ZM150.408 26.7C149.355 26.7 148.435 26.4933 147.648 26.08C146.875 25.6667 146.275 25.0733 145.848 24.3C145.421 23.5267 145.208 22.5933 145.208 21.5C145.208 20.4067 145.421 19.4733 145.848 18.7C146.275 17.9267 146.868 17.3333 147.628 16.92C148.401 16.5067 149.281 16.3 150.268 16.3C151.281 16.3 152.141 16.5067 152.848 16.92C153.555 17.32 154.095 17.8733 154.468 18.58C154.841 19.2733 155.028 20.0667 155.028 20.96C155.028 21.2267 155.021 21.48 155.008 21.72C154.995 21.96 154.975 22.1733 154.948 22.36H146.968V20.46H153.748L152.428 20.94C152.428 20.1 152.235 19.4533 151.848 19C151.475 18.5467 150.941 18.32 150.248 18.32C149.741 18.32 149.301 18.44 148.928 18.68C148.568 18.92 148.295 19.28 148.108 19.76C147.921 20.2267 147.828 20.82 147.828 21.54C147.828 22.2467 147.928 22.8333 148.128 23.3C148.341 23.7533 148.635 24.0933 149.008 24.32C149.395 24.5467 149.855 24.66 150.388 24.66C150.975 24.66 151.448 24.5467 151.808 24.32C152.168 24.0933 152.448 23.78 152.648 23.38L154.828 24.22C154.615 24.74 154.288 25.1867 153.848 25.56C153.421 25.9333 152.908 26.22 152.308 26.42C151.721 26.6067 151.088 26.7 150.408 26.7ZM157.35 26.5V16.5H159.81L159.97 19.5L159.63 19.18C159.79 18.5267 160.043 17.9867 160.39 17.56C160.737 17.1333 161.157 16.82 161.65 16.62C162.157 16.4067 162.71 16.3 163.31 16.3C164.003 16.3 164.617 16.4333 165.15 16.7C165.697 16.9667 166.123 17.3733 166.43 17.92C166.75 18.4533 166.91 19.1267 166.91 19.94V26.5H164.17V20.72C164.17 19.8667 164.003 19.28 163.67 18.96C163.337 18.6267 162.903 18.46 162.37 18.46C161.997 18.46 161.63 18.5533 161.27 18.74C160.923 18.9133 160.637 19.2 160.41 19.6C160.197 20 160.09 20.5333 160.09 21.2V26.5H157.35ZM174.273 16.3C175.166 16.3 175.92 16.4333 176.533 16.7C177.16 16.9533 177.66 17.3067 178.033 17.76C178.42 18.2 178.693 18.6933 178.853 19.24L176.293 20.16C176.16 19.56 175.933 19.1067 175.613 18.8C175.293 18.4933 174.86 18.34 174.313 18.34C173.806 18.34 173.373 18.46 173.013 18.7C172.653 18.9267 172.38 19.28 172.193 19.76C172.006 20.2267 171.913 20.8133 171.913 21.52C171.913 22.2267 172.006 22.8133 172.193 23.28C172.393 23.7467 172.673 24.0933 173.033 24.32C173.406 24.5467 173.84 24.66 174.333 24.66C174.733 24.66 175.073 24.5933 175.353 24.46C175.633 24.3133 175.86 24.1067 176.033 23.84C176.22 23.5733 176.346 23.2533 176.413 22.88L178.893 23.68C178.746 24.28 178.473 24.8067 178.073 25.26C177.673 25.7133 177.16 26.0667 176.533 26.32C175.906 26.5733 175.18 26.7 174.353 26.7C173.326 26.7 172.42 26.4933 171.633 26.08C170.846 25.6667 170.24 25.0733 169.813 24.3C169.386 23.5267 169.173 22.5933 169.173 21.5C169.173 20.4067 169.386 19.4733 169.813 18.7C170.24 17.9267 170.84 17.3333 171.613 16.92C172.386 16.5067 173.273 16.3 174.273 16.3ZM184.502 26.7C183.835 26.7 183.235 26.58 182.702 26.34C182.169 26.1 181.742 25.72 181.422 25.2C181.115 24.6667 180.962 23.98 180.962 23.14V16.5H183.702V22.48C183.702 23.2533 183.862 23.7933 184.182 24.1C184.502 24.3933 184.962 24.54 185.562 24.54C185.842 24.54 186.115 24.4933 186.382 24.4C186.649 24.2933 186.882 24.1333 187.082 23.92C187.295 23.7067 187.462 23.4333 187.582 23.1C187.702 22.7533 187.762 22.3467 187.762 21.88V16.5H190.502V26.5H188.062L187.962 24.76C187.629 25.4267 187.169 25.92 186.582 26.24C186.009 26.5467 185.315 26.7 184.502 26.7ZM198.025 26.7C196.972 26.7 196.052 26.4933 195.265 26.08C194.492 25.6667 193.892 25.0733 193.465 24.3C193.039 23.5267 192.825 22.5933 192.825 21.5C192.825 20.4067 193.039 19.4733 193.465 18.7C193.892 17.9267 194.485 17.3333 195.245 16.92C196.019 16.5067 196.899 16.3 197.885 16.3C198.899 16.3 199.759 16.5067 200.465 16.92C201.172 17.32 201.712 17.8733 202.085 18.58C202.459 19.2733 202.645 20.0667 202.645 20.96C202.645 21.2267 202.639 21.48 202.625 21.72C202.612 21.96 202.592 22.1733 202.565 22.36H194.585V20.46H201.365L200.045 20.94C200.045 20.1 199.852 19.4533 199.465 19C199.092 18.5467 198.559 18.32 197.865 18.32C197.359 18.32 196.919 18.44 196.545 18.68C196.185 18.92 195.912 19.28 195.725 19.76C195.539 20.2267 195.445 20.82 195.445 21.54C195.445 22.2467 195.545 22.8333 195.745 23.3C195.959 23.7533 196.252 24.0933 196.625 24.32C197.012 24.5467 197.472 24.66 198.005 24.66C198.592 24.66 199.065 24.5467 199.425 24.32C199.785 24.0933 200.065 23.78 200.265 23.38L202.445 24.22C202.232 24.74 201.905 25.1867 201.465 25.56C201.039 25.9333 200.525 26.22 199.925 26.42C199.339 26.6067 198.705 26.7 198.025 26.7ZM208.967 26.7C207.954 26.7 207.027 26.52 206.187 26.16C205.361 25.8 204.687 25.2933 204.167 24.64L205.747 23.04C206.067 23.52 206.494 23.9133 207.027 24.22C207.561 24.5267 208.194 24.68 208.927 24.68C209.447 24.68 209.861 24.6067 210.167 24.46C210.487 24.3 210.647 24.0533 210.647 23.72C210.647 23.5067 210.574 23.3267 210.427 23.18C210.281 23.02 209.987 22.8933 209.547 22.8L207.787 22.44C206.627 22.2 205.801 21.84 205.307 21.36C204.827 20.8667 204.587 20.2333 204.587 19.46C204.587 18.9133 204.747 18.4 205.067 17.92C205.401 17.44 205.894 17.0533 206.547 16.76C207.201 16.4533 208.014 16.3 208.987 16.3C209.987 16.3 210.854 16.46 211.587 16.78C212.334 17.0867 212.921 17.5467 213.347 18.16L211.707 19.76C211.414 19.2933 211.027 18.94 210.547 18.7C210.081 18.4467 209.587 18.32 209.067 18.32C208.694 18.32 208.374 18.36 208.107 18.44C207.841 18.52 207.641 18.6333 207.507 18.78C207.374 18.9133 207.307 19.0867 207.307 19.3C207.307 19.5133 207.401 19.7 207.587 19.86C207.774 20.0067 208.114 20.1333 208.607 20.24L210.647 20.66C211.634 20.86 212.341 21.2 212.767 21.68C213.194 22.1467 213.407 22.7133 213.407 23.38C213.407 24.02 213.234 24.5933 212.887 25.1C212.554 25.5933 212.054 25.9867 211.387 26.28C210.734 26.56 209.927 26.7 208.967 26.7ZM219.132 13.44V23.24C219.132 23.72 219.252 24.0733 219.492 24.3C219.746 24.5133 220.086 24.62 220.512 24.62C220.846 24.62 221.139 24.5733 221.392 24.48C221.646 24.3733 221.872 24.2333 222.072 24.06L222.512 25.88C222.192 26.1333 221.792 26.3333 221.312 26.48C220.832 26.6267 220.326 26.7 219.792 26.7C219.126 26.7 218.532 26.6 218.012 26.4C217.506 26.2 217.106 25.88 216.812 25.44C216.532 25 216.392 24.4133 216.392 23.68V14.2L219.132 13.44ZM222.332 16.5V18.54H214.552V16.5H222.332ZM229.984 20.12C229.984 19.5467 229.817 19.1 229.484 18.78C229.164 18.46 228.737 18.3 228.204 18.3C227.71 18.3 227.277 18.4267 226.904 18.68C226.53 18.9333 226.257 19.3533 226.084 19.94L223.744 19.22C223.97 18.34 224.464 17.6333 225.224 17.1C225.997 16.5667 227.03 16.3 228.324 16.3C229.204 16.3 229.97 16.44 230.624 16.72C231.277 16.9867 231.784 17.3933 232.144 17.94C232.517 18.4867 232.704 19.1733 232.704 20V24.06C232.704 24.5667 232.944 24.82 233.424 24.82C233.65 24.82 233.864 24.7867 234.064 24.72L233.904 26.42C233.557 26.5933 233.124 26.68 232.604 26.68C232.137 26.68 231.717 26.6 231.344 26.44C230.97 26.28 230.677 26.04 230.464 25.72C230.25 25.3867 230.144 24.9733 230.144 24.48V24.4L230.624 24.32C230.544 24.8267 230.324 25.26 229.964 25.62C229.604 25.9667 229.164 26.2333 228.644 26.42C228.137 26.6067 227.61 26.7 227.064 26.7C226.384 26.7 225.797 26.6 225.304 26.4C224.81 26.1867 224.43 25.88 224.164 25.48C223.897 25.08 223.764 24.5867 223.764 24C223.764 23.2533 224.004 22.6467 224.484 22.18C224.964 21.7 225.65 21.3733 226.544 21.2L230.304 20.44L230.284 22.14L227.884 22.62C227.43 22.7133 227.084 22.84 226.844 23C226.617 23.1467 226.504 23.3933 226.504 23.74C226.504 24.0733 226.624 24.3267 226.864 24.5C227.117 24.6733 227.417 24.76 227.764 24.76C228.044 24.76 228.317 24.7267 228.584 24.66C228.85 24.5933 229.09 24.4867 229.304 24.34C229.517 24.1933 229.684 23.9933 229.804 23.74C229.924 23.4867 229.984 23.18 229.984 22.82V20.12Z" fill="#002C4D"/>
</svg>
