<svg width="28" height="28" viewBox="0 0 28 28" fill="none" xmlns="http://www.w3.org/2000/svg">
<path d="M7.55811 14.1087L10.9232 17.4725C11.0417 17.5919 11.1827 17.6866 11.3381 17.7512C11.4934 17.8159 11.66 17.8491 11.8282 17.8491C11.9964 17.8491 12.163 17.8159 12.3184 17.7512C12.4737 17.6866 12.6147 17.5919 12.7333 17.4725L19.5126 10.6919" stroke="white" stroke-width="2.4" stroke-linecap="round" stroke-linejoin="round"/>
<path d="M14 26C17.1826 26 20.2348 24.7357 22.4853 22.4853C24.7357 20.2348 26 17.1826 26 14C26 10.8174 24.7357 7.76515 22.4853 5.51472C20.2348 3.26428 17.1826 2 14 2C10.8174 2 7.76515 3.26428 5.51472 5.51472C3.26428 7.76515 2 10.8174 2 14C2 17.1826 3.26428 20.2348 5.51472 22.4853C7.76515 24.7357 10.8174 26 14 26Z" stroke="white" stroke-width="2.4" stroke-linecap="round" stroke-linejoin="round"/>
</svg>
