<svg width="28" height="26" viewBox="0 0 28 26" fill="none" xmlns="http://www.w3.org/2000/svg">
<path d="M25.9521 7.17065V15.7414C25.9525 16.4169 25.8197 17.0858 25.5614 17.7099C25.3032 18.334 24.9244 18.9011 24.4469 19.3787C23.9693 19.8564 23.4023 20.2353 22.7783 20.4937C22.1542 20.7522 21.4854 20.8851 20.8099 20.8849H17.3814L14.5534 23.7129C14.4763 23.7946 14.3833 23.8597 14.2801 23.9042C14.177 23.9487 14.0658 23.9716 13.9534 23.9716C13.8411 23.9716 13.7299 23.9487 13.6268 23.9042C13.5236 23.8597 13.4306 23.7946 13.3535 23.7129L10.5255 20.8849H7.09436C6.41896 20.8849 5.75018 20.7519 5.12622 20.4934C4.50225 20.2349 3.93532 19.856 3.45781 19.3784C2.98029 18.9007 2.60155 18.3337 2.3432 17.7097C2.08486 17.0856 1.95198 16.4168 1.95215 15.7414V7.17065C1.95215 5.80685 2.49392 4.49891 3.45827 3.53456C4.42262 2.57021 5.73056 2.02844 7.09436 2.02844H20.8086C22.1724 2.02844 23.4804 2.57021 24.4447 3.53456C25.4091 4.49891 25.9521 5.80685 25.9521 7.17065Z" stroke="#002C4D" stroke-width="2.4" stroke-linecap="round" stroke-linejoin="round"/>
<path d="M13.9517 12.1829C14.0642 12.1829 14.1756 12.1608 14.2796 12.1177C14.3836 12.0747 14.478 12.0115 14.5576 11.932C14.6371 11.8524 14.7002 11.758 14.7433 11.654C14.7864 11.5501 14.8085 11.4386 14.8085 11.3261C14.8085 11.2136 14.7864 11.1022 14.7433 10.9982C14.7002 10.8943 14.6371 10.7998 14.5576 10.7203C14.478 10.6407 14.3836 10.5776 14.2796 10.5345C14.1756 10.4915 14.0642 10.4693 13.9517 10.4693C13.7245 10.4693 13.5065 10.5596 13.3458 10.7203C13.1852 10.8809 13.0949 11.0989 13.0949 11.3261C13.0949 11.5534 13.1852 11.7713 13.3458 11.932C13.5065 12.0927 13.7245 12.1829 13.9517 12.1829ZM19.9514 12.1829C20.0639 12.1829 20.1753 12.1608 20.2793 12.1177C20.3832 12.0747 20.4777 12.0115 20.5572 11.932C20.6368 11.8524 20.6999 11.758 20.743 11.654C20.786 11.5501 20.8082 11.4386 20.8082 11.3261C20.8082 11.2136 20.786 11.1022 20.743 10.9982C20.6999 10.8943 20.6368 10.7998 20.5572 10.7203C20.4777 10.6407 20.3832 10.5776 20.2793 10.5345C20.1753 10.4915 20.0639 10.4693 19.9514 10.4693C19.7241 10.4693 19.5062 10.5596 19.3455 10.7203C19.1848 10.8809 19.0946 11.0989 19.0946 11.3261C19.0946 11.5534 19.1848 11.7713 19.3455 11.932C19.5062 12.0927 19.7241 12.1829 19.9514 12.1829ZM7.95203 12.1829C8.06455 12.1829 8.17597 12.1608 8.27992 12.1177C8.38388 12.0747 8.47833 12.0115 8.5579 11.932C8.63746 11.8524 8.70057 11.758 8.74363 11.654C8.78669 11.5501 8.80885 11.4386 8.80885 11.3261C8.80885 11.2136 8.78669 11.1022 8.74363 10.9982C8.70057 10.8943 8.63746 10.7998 8.5579 10.7203C8.47833 10.6407 8.38388 10.5776 8.27992 10.5345C8.17597 10.4915 8.06455 10.4693 7.95203 10.4693C7.72479 10.4693 7.50686 10.5596 7.34617 10.7203C7.18549 10.8809 7.09521 11.0989 7.09521 11.3261C7.09521 11.5534 7.18549 11.7713 7.34617 11.932C7.50686 12.0927 7.72479 12.1829 7.95203 12.1829Z" fill="#002C4D" stroke="#002C4D" stroke-width="1.5" stroke-linecap="round" stroke-linejoin="round"/>
</svg>
