<svg width="37" height="35" viewBox="0 0 37 35" fill="none" xmlns="http://www.w3.org/2000/svg">
<path d="M6.4621 29.9364C6.24387 29.9364 6.05031 29.944 5.85759 29.9352C3.72383 29.8372 2.21925 28.8052 1.35722 26.8405C1.10973 26.2765 1.00689 25.6743 1.00647 25.0582C1.00438 21.0846 0.991005 17.1109 1.01024 13.1373C1.02236 10.6482 2.86013 8.60855 5.32081 8.29694C5.5892 8.26287 5.86344 8.26624 6.13476 8.26624C8.93532 8.26498 11.7363 8.2654 14.5368 8.27002C14.6577 8.27002 14.7906 8.29315 14.896 8.34782C15.0916 8.44959 15.1781 8.69518 15.1263 8.90924C15.0736 9.12623 14.8918 9.29066 14.6698 9.31253C14.5799 9.32136 14.4888 9.31548 14.398 9.31548C11.5833 9.31548 8.76893 9.31421 5.95416 9.31632C4.68118 9.31716 3.6444 9.82601 2.85679 10.8277C2.31164 11.5212 2.04994 12.321 2.05036 13.2071C2.05161 14.7278 2.05078 16.2488 2.05078 17.7695C2.05078 20.1733 2.05036 22.5771 2.05078 24.9809C2.05119 26.7917 3.23555 28.3489 4.98845 28.7699C5.47507 28.8868 5.99597 28.8712 6.50223 28.886C7.14311 28.9045 7.49929 29.2438 7.50055 29.8872C7.50222 30.8192 7.5018 31.7515 7.50055 32.6834C7.50055 32.8516 7.50891 33.0177 7.69202 33.0871C7.86217 33.1514 7.97588 33.0463 8.09043 32.9307C9.32912 31.68 10.5716 30.4327 11.8124 29.1841C12.0151 28.9802 12.2547 28.8872 12.5444 28.8876C14.7948 28.8918 17.0452 28.8948 19.2952 28.8881C21.0472 28.883 22.2888 28.0689 23.0158 26.4662C23.1053 26.269 23.2224 26.1155 23.4448 26.0801C23.6371 26.0499 23.8068 26.1087 23.931 26.261C24.0719 26.4338 24.0848 26.6289 23.9995 26.8337C23.4377 28.1849 22.4807 29.1265 21.1158 29.6421C20.5489 29.8561 19.9594 29.9394 19.3545 29.9386C17.1877 29.9356 15.021 29.9415 12.8546 29.9322C12.6242 29.9314 12.4696 30.0037 12.3115 30.1648C11.1259 31.3696 9.93447 32.569 8.73799 33.7633C8.19828 34.3025 7.37095 34.2961 6.84337 33.7633C6.57874 33.4963 6.46084 33.1695 6.46126 32.7944C6.46293 31.9256 6.46126 31.0563 6.46126 30.1875C6.46126 30.1127 6.46126 30.0378 6.46126 29.9364H6.4621Z" fill="#00324D" stroke="#002C4D"/>
<path d="M32.8674 25.0746C32.8674 25.1676 32.8674 25.2429 32.8674 25.3177C32.8674 25.724 32.8699 26.1306 32.8666 26.5368C32.8641 26.851 32.7291 27.0966 32.4464 27.2337C32.1509 27.3767 31.8645 27.3397 31.6091 27.1222C30.8541 26.4805 30.1016 25.835 29.3399 25.2008C29.2483 25.1247 29.107 25.0725 28.9883 25.0713C27.9507 25.0612 26.9126 25.0734 25.8746 25.0624C24.4754 25.0482 23.3583 24.173 23.0068 22.8134C22.9411 22.5594 22.9211 22.2873 22.9198 22.0232C22.9127 20.2574 22.9152 18.4916 22.9169 16.7257C22.9185 14.9666 24.2028 13.6777 25.9561 13.6769C28.2897 13.6756 30.6233 13.6752 32.9569 13.6769C34.7019 13.6781 35.9982 14.9797 35.9991 16.7295C35.9999 18.5164 36.0024 20.3032 35.9982 22.0901C35.9953 23.3357 35.2407 24.4468 34.0923 24.8661C33.7963 24.9741 33.4703 25.0002 33.1567 25.0582C33.0702 25.0742 32.9795 25.0688 32.867 25.0742L32.8674 25.0746ZM31.8294 25.93C31.8294 25.4998 31.8244 25.1314 31.8307 24.763C31.8378 24.3353 32.1484 24.0284 32.5752 24.0183C32.7491 24.0141 32.9234 24.0187 33.0978 24.0145C34.0798 23.9901 34.9176 23.2087 34.9335 22.2192C34.964 20.3487 34.9719 18.4773 34.9439 16.6072C34.9276 15.5218 34.0915 14.7408 33.0271 14.7387C30.6446 14.7337 28.2621 14.7337 25.88 14.7387C24.7923 14.7412 23.9641 15.5815 23.9624 16.674C23.9595 18.4748 23.9616 20.2759 23.9633 22.0766C23.9633 22.1952 23.9687 22.3159 23.9913 22.4316C24.1769 23.379 24.9177 24.0069 25.8767 24.0141C26.9841 24.0225 28.092 24.0208 29.1994 24.0149C29.4578 24.0136 29.6706 24.0893 29.8662 24.258C30.4996 24.8047 31.1396 25.3438 31.8294 25.9304V25.93Z" fill="#00324D" stroke="#002C4D"/>
<path d="M12.0623 22.0167C12.0318 20.8463 12.5611 20.0595 13.6317 19.5939C14.6305 19.16 15.2036 18.3815 15.2396 17.268C15.2805 16.003 14.2734 14.8549 12.9904 14.6661C11.702 14.4769 10.5352 15.1611 10.0607 16.384C9.929 16.7229 9.6489 16.8714 9.35584 16.7579C9.07533 16.6489 8.95535 16.3508 9.08034 16.0228C9.58619 14.6947 10.5527 13.907 11.9281 13.6413C13.8412 13.2716 15.7496 14.5311 16.2007 16.4378C16.5966 18.1107 15.6856 19.8715 14.0703 20.5561C13.3399 20.8656 13.0987 21.2303 13.0999 22.0217C13.0999 22.1617 13.1045 22.3022 13.0987 22.4422C13.0857 22.7375 12.8763 22.9431 12.5912 22.9481C12.3111 22.9532 12.0837 22.7467 12.064 22.4591C12.0544 22.3127 12.0623 22.1647 12.0623 22.0179V22.0167Z" fill="#00324D" stroke="#002C4D"/>
<path d="M13.1009 24.7266C13.0992 25.0748 12.8927 25.3036 12.5804 25.304C12.269 25.304 12.0595 25.071 12.0608 24.7249C12.0616 24.3826 12.2728 24.1484 12.5829 24.1459C12.889 24.1433 13.103 24.383 13.1009 24.727V24.7266Z" fill="#00324D" stroke="#002C4D"/>
<path d="M31.3286 18.5901C31.2956 19.2176 30.9243 19.7996 30.2044 20.1407C30.0054 20.2349 29.8993 20.3467 29.8951 20.5805C29.8905 20.8476 29.6338 21.0578 29.3733 21.0486C29.1037 21.0389 28.8884 20.8299 28.8662 20.5566C28.8203 19.9821 29.1438 19.4754 29.6873 19.2163C29.8562 19.136 30.0301 19.014 30.1376 18.8643C30.4356 18.4497 30.2801 17.9026 29.8219 17.6494C29.3621 17.3954 28.7839 17.5779 28.5611 18.0472C28.3663 18.4581 28.0928 18.5977 27.7856 18.4442C27.495 18.2991 27.4336 17.9816 27.6183 17.5851C27.9988 16.7696 28.9331 16.3268 29.8378 16.5333C30.7115 16.7326 31.329 17.514 31.3286 18.5901Z" fill="#00324D" stroke="#002C4D"/>
<path d="M29.9072 21.9595C29.9106 22.2711 29.6969 22.4961 29.3934 22.5007C29.0937 22.5054 28.87 22.2787 28.8679 21.9692C28.8658 21.6626 29.0941 21.4208 29.3842 21.4225C29.6827 21.4238 29.9039 21.6513 29.9072 21.9599V21.9595Z" fill="#00324D" stroke="#002C4D"/>
<path d="M19.2073 12.821C18.8937 12.7634 18.5681 12.7369 18.2717 12.6288C17.1233 12.2096 16.3687 11.0981 16.3658 9.85289C16.3616 8.06603 16.3637 6.27917 16.3649 4.49232C16.3658 2.74247 17.6622 1.44091 19.4071 1.43965C21.7407 1.43796 24.0743 1.43839 26.4079 1.43965C28.1608 1.44049 29.4455 2.72901 29.4471 4.48853C29.4488 6.25436 29.4513 8.02019 29.4442 9.78602C29.443 10.0501 29.4229 10.3218 29.3573 10.5762C29.0057 11.9358 27.8886 12.8105 26.4894 12.8252C25.4518 12.8362 24.4138 12.8236 23.3757 12.8341C23.257 12.8353 23.1157 12.8875 23.0241 12.9636C22.2624 13.5978 21.5104 14.2429 20.7549 14.885C20.4995 15.102 20.2131 15.1394 19.9176 14.9965C19.635 14.8598 19.4999 14.6138 19.4974 14.2996C19.4941 13.8934 19.4966 13.4867 19.4966 13.0805C19.4966 13.0056 19.4966 12.9304 19.4966 12.8374C19.3837 12.832 19.2934 12.8374 19.2069 12.8214L19.2073 12.821ZM22.4982 12.0195C22.6939 11.8504 22.9067 11.7747 23.165 11.7764C24.2724 11.7823 25.3803 11.7844 26.4877 11.7756C27.4467 11.768 28.188 11.1406 28.3732 10.1931C28.3957 10.0775 28.4012 9.95676 28.4012 9.83817C28.4033 8.03743 28.4049 6.23628 28.402 4.43554C28.4003 3.34299 27.5722 2.50234 26.4844 2.50024C24.1019 2.49519 21.7194 2.49519 19.3373 2.50024C18.2729 2.50276 17.4368 3.28328 17.4205 4.36868C17.3925 6.23922 17.4005 8.11061 17.431 9.98073C17.4469 10.9707 18.2846 11.7516 19.2667 11.776C19.4406 11.7802 19.6149 11.776 19.7892 11.7798C20.2161 11.7899 20.5263 12.0969 20.5338 12.5246C20.54 12.8929 20.535 13.2613 20.535 13.6915C21.2248 13.1049 21.8649 12.5662 22.4982 12.0191V12.0195Z" fill="#00324D" stroke="#002C4D"/>
<path d="M24.8445 6.3529C24.8114 6.98034 24.4402 7.56236 23.7203 7.90341C23.5213 7.99761 23.4151 8.10947 23.411 8.34329C23.4064 8.61033 23.1497 8.8206 22.8892 8.81135C22.6196 8.80168 22.4043 8.59267 22.3821 8.31932C22.3361 7.74487 22.6597 7.23812 23.2032 6.97907C23.3721 6.89875 23.546 6.7768 23.6534 6.62709C23.9515 6.21244 23.796 5.66532 23.3378 5.41216C22.8779 5.15815 22.2998 5.34067 22.0769 5.80999C21.8821 6.22085 21.6087 6.36047 21.3014 6.20697C21.0109 6.06189 20.9494 5.74438 21.1342 5.34782C21.5146 4.5324 22.449 4.08957 23.3537 4.29606C24.2274 4.49539 24.8449 5.27633 24.8445 6.35248V6.3529Z" fill="#00324D" stroke="#002C4D"/>
<path d="M22.4554 9.72142C22.452 10.033 22.6656 10.258 22.9692 10.2627C23.2689 10.2673 23.4926 10.0406 23.4946 9.73109C23.4967 9.42452 23.2685 9.18271 22.9783 9.1844C22.6799 9.18566 22.4587 9.41317 22.4554 9.72184V9.72142Z" fill="#00324D" stroke="#002C4D"/>
</svg>
