<svg width="45" height="45" viewBox="0 0 45 45" fill="none" xmlns="http://www.w3.org/2000/svg">
<rect x="0.5" y="0.5" width="44" height="44" rx="9.5" fill="white" stroke="#00334F"/>
<path d="M23.6909 32.0891C18.5406 31.9474 14.3461 29.9821 10.7445 26.6306C10.2916 26.2101 9.90584 25.7152 9.44153 25.3075C8.88864 24.8212 8.96436 24.4206 9.46296 23.9601C9.90013 23.5567 10.2673 23.0775 10.7116 22.6841C11.1216 22.3208 11.0831 22.0505 10.7173 21.69C10.2259 21.2051 9.78155 20.6744 9.30867 20.1709C8.99293 19.8333 8.85721 19.4528 9.20437 19.0967C9.59868 18.6904 9.98442 18.8964 10.3116 19.2469C10.833 19.8033 11.3602 20.3554 11.866 20.9247C12.1403 21.2337 12.3617 21.2323 12.7174 21.0063C13.8189 20.3025 14.9475 19.6402 16.0805 18.9865C16.4176 18.792 16.5205 18.6032 16.3205 18.247C15.9933 17.6663 15.6904 17.0712 15.3776 16.4819C15.1447 16.0428 14.8975 15.5464 15.4719 15.236C16.089 14.9027 16.3633 15.4234 16.6062 15.8768C16.9205 16.4662 17.2348 17.0541 17.532 17.652C17.7334 18.0582 17.9891 18.1598 18.452 18.0482C19.6992 17.7507 20.9593 17.4961 22.2237 17.2801C22.6537 17.2071 22.788 17.0254 22.7808 16.6292C22.7694 16.0327 22.7708 15.4363 22.7851 14.8412C22.7994 14.3949 22.9551 14.0059 23.4709 14.0059C23.9909 14.0059 24.1309 14.4078 24.1438 14.8484C24.1609 15.4434 24.1581 16.0399 24.1538 16.6364C24.1509 17.034 24.3109 17.2071 24.7324 17.2815C25.9953 17.5032 27.2525 17.7678 28.5026 18.0553C28.9183 18.1512 29.1712 18.094 29.3683 17.6906C29.7027 17.0069 30.0784 16.3417 30.4413 15.6723C30.6527 15.2818 30.947 14.9814 31.4142 15.216C31.9028 15.4606 31.8856 15.8711 31.6456 16.3102C31.3142 16.9167 31.0127 17.539 30.6698 18.1383C30.4313 18.556 30.4884 18.7863 30.9356 19.0337C32.0371 19.6431 33.1243 20.2868 34.1743 20.9805C34.6001 21.2623 34.8372 21.1922 35.1358 20.8561C35.6258 20.3025 36.133 19.7647 36.6416 19.2311C36.9445 18.9136 37.2988 18.6947 37.696 19.0609C38.1117 19.4443 37.9417 19.8276 37.6159 20.1795C37.1788 20.6515 36.7616 21.145 36.2973 21.5884C35.8516 22.0133 35.7501 22.3351 36.3016 22.7843C36.8145 23.2019 37.2202 23.7484 37.6917 24.2204C37.9545 24.4836 38.016 24.7039 37.7445 25.0114C33.96 29.3026 29.3069 31.833 23.6909 32.0891ZM23.4066 30.3354C26.5268 30.3683 29.1212 27.8307 29.1512 24.7153C29.1826 21.5369 26.6839 18.9908 23.4895 18.9479C20.4221 18.9064 17.8006 21.464 17.7748 24.5251C17.7491 27.7149 20.255 30.3025 23.4052 30.3368L23.4066 30.3354ZM18.2777 29.8405C18.3335 29.7632 18.3892 29.686 18.4449 29.6073C15.8047 26.2959 15.809 22.9759 18.492 19.593C18.2477 19.6145 18.1249 19.5973 18.0234 19.6374C15.3904 20.6615 13.0917 22.1906 11.1202 24.2204C10.7773 24.5737 10.8445 24.844 11.1731 25.113C12.3488 26.0756 13.4718 27.1213 14.7275 27.9652C15.8319 28.7076 17.0877 29.2225 18.2763 29.839L18.2777 29.8405ZM28.4483 29.6702C28.6097 29.6888 28.6855 29.7217 28.7412 29.7003C31.4885 28.6875 33.8572 27.1012 35.8887 24.9957C36.1916 24.681 36.0573 24.4764 35.8101 24.219C33.8829 22.2178 31.6242 20.7145 29.0469 19.6903C28.8983 19.6316 28.7226 19.6388 28.4326 19.5987C31.1713 23.0289 31.1056 26.346 28.4483 29.6702Z" fill="#00334F"/>
</svg>
