<svg width="44" height="44" viewBox="0 0 44 44" fill="none" xmlns="http://www.w3.org/2000/svg">
<path d="M35.3074 30.1561C35.3074 30.1561 34.3416 29.5122 34.2343 29.5122C33.805 29.2976 33.3757 29.0829 32.9465 28.9756V8.69268C32.9465 7.61951 32.0879 6.76097 31.0148 6.54634H11.9123C10.8391 6.54634 9.9806 7.51219 9.9806 8.58536V35.9512C9.9806 37.1317 11.0538 38.0976 12.3416 38.0976H23.6099L24.7904 40.4585H11.5904C9.87329 40.4585 7.61963 37.9902 7.61963 36.1659V8.58536C7.83426 6.33171 9.55134 4.50732 11.805 4.18536H31.3367C33.3757 4.29268 35.5221 6.43902 35.5221 8.47805V30.1561H35.3074Z" fill="#00324D"/>
<path d="M13.9514 16.2049H28.8685C30.049 16.3122 30.049 17.8146 28.8685 17.9219H14.0587C12.9856 17.7073 12.8782 16.4195 14.0587 16.2049H13.9514Z" fill="#00324D"/>
<path d="M13.9514 25.9707H28.8684C30.0489 26.0781 30.0489 27.5805 28.8684 27.6878H14.0587C12.8782 27.5805 12.8782 26.1854 13.9514 25.9707Z" fill="#00324D"/>
<path d="M13.7368 11.3756H28.9758C29.9417 11.5902 30.049 12.878 28.9758 13.0927H13.9514C12.9856 12.9854 12.8783 11.6976 13.8441 11.3756H13.7368Z" fill="#00324D"/>
<path d="M13.7367 21.1414H28.9757C29.9415 21.3561 29.9415 22.6439 28.9757 22.8585H13.9513C12.9854 22.7512 12.9854 21.4634 13.844 21.1414H13.7367Z" fill="#00324D"/>
<path d="M13.7368 30.9073H23.3953C24.2539 30.9073 24.3612 32.5171 23.3953 32.6244H13.9514C12.9856 32.5171 12.8783 31.2293 13.8441 30.9073H13.7368Z" fill="#00324D"/>
<path d="M31.3367 31.3366C34.3416 31.3366 37.0245 32.7317 38.9562 34.9854C40.8879 37.239 39.6001 35.6293 39.7074 35.8439C39.8147 36.0585 39.7074 35.8439 39.7074 35.9512C38.5269 37.561 36.9172 39.0634 34.9855 39.8146C31.0147 41.5317 27.044 40.0293 24.2538 36.9171C24.0391 36.7024 23.6098 36.1658 23.5025 36.0585C23.3952 35.9512 23.5025 36.0585 23.5025 35.9512C23.5025 35.9512 24.1464 35.0927 24.2538 34.9854C26.0781 32.9463 28.5464 31.4439 31.3367 31.3366ZM29.1903 32.7317C27.4733 33.2683 25.8635 34.4488 24.683 35.8439C25.7562 37.239 27.4733 38.4195 29.1903 38.9561L28.6538 38.5268C27.3659 37.1317 27.2586 34.9854 28.4391 33.4829C29.6196 31.9805 28.8684 33.0537 29.1903 32.7317ZM37.6684 34.878C36.7025 33.9122 35.4147 33.161 34.0196 32.7317C34.2342 32.9463 34.4489 33.161 34.6635 33.3756C35.844 34.878 35.844 37.0244 34.5562 38.5268L34.0196 38.9561C35.844 38.4195 37.4538 37.239 38.5269 35.8439C38.5269 35.8439 37.7757 34.9854 37.6684 34.878ZM31.2294 32.9463C29.405 33.161 28.2245 34.9854 28.7611 36.7024C29.2977 38.4195 31.8733 39.4927 33.483 38.2049C35.844 36.2732 34.2342 32.6244 31.2294 32.9463Z" fill="#00324D"/>
<path d="M30.1561 35.3073C29.5122 36.9171 31.5512 38.3122 32.7317 37.1317C33.9122 35.9512 32.9463 34.1268 31.4439 34.2341C31.4439 34.5561 31.6585 34.6634 31.4439 34.9854C31.2293 35.5219 30.478 35.7366 30.0488 35.3073H30.1561Z" fill="#00324D"/>
<path d="M30.1562 35.3073C30.5855 35.7366 31.3367 35.6293 31.5513 34.9854C31.766 34.3415 31.5513 34.5561 31.5513 34.2341C33.1611 34.1268 34.0196 35.9512 32.8391 37.1317C31.6586 38.3122 29.6196 36.9171 30.2635 35.3073H30.1562Z" fill="#00324D"/>
</svg>
