<svg width="40" height="40" viewBox="0 0 40 40" fill="none" xmlns="http://www.w3.org/2000/svg">
<rect width="40" height="40" rx="20" fill="white"/>
<path d="M20 2C10.064 2 2 10.064 2 20C2 29.936 10.064 38 20 38C29.936 38 38 29.936 38 20C38 10.064 29.936 2 20 2ZM20 9.2C23.474 9.2 26.3 12.026 26.3 15.5C26.3 18.974 23.474 21.8 20 21.8C16.526 21.8 13.7 18.974 13.7 15.5C13.7 12.026 16.526 9.2 20 9.2ZM20 34.4C16.346 34.4 12.026 32.924 8.948 29.216C11.99 26.84 15.824 25.4 20 25.4C24.176 25.4 28.01 26.84 31.052 29.216C27.974 32.924 23.654 34.4 20 34.4Z" fill="#39A900"/>
</svg>
