<svg width="17" height="17" viewBox="0 0 17 17" fill="none" xmlns="http://www.w3.org/2000/svg">
<path d="M4.7417 8.56396L6.70465 10.5262C6.77381 10.5958 6.85607 10.651 6.94668 10.6887C7.03728 10.7264 7.13446 10.7459 7.23259 10.7459C7.33073 10.7459 7.4279 10.7264 7.51851 10.6887C7.60912 10.651 7.69137 10.5958 7.76054 10.5262L11.7152 6.5708" stroke="white" stroke-width="1.4" stroke-linecap="round" stroke-linejoin="round"/>
<path d="M8.5 15.5C10.3565 15.5 12.137 14.7625 13.4497 13.4497C14.7625 12.137 15.5 10.3565 15.5 8.5C15.5 6.64348 14.7625 4.86301 13.4497 3.55025C12.137 2.2375 10.3565 1.5 8.5 1.5C6.64348 1.5 4.86301 2.2375 3.55025 3.55025C2.2375 4.86301 1.5 6.64348 1.5 8.5C1.5 10.3565 2.2375 12.137 3.55025 13.4497C4.86301 14.7625 6.64348 15.5 8.5 15.5Z" stroke="white" stroke-width="1.4" stroke-linecap="round" stroke-linejoin="round"/>
</svg>
