<svg width="18" height="20" viewBox="0 0 18 20" fill="none" xmlns="http://www.w3.org/2000/svg">
<path d="M14.8979 14.8228C13.7586 15.9584 12.3086 16.7313 10.7307 17.0441C9.15273 17.3569 7.51751 17.1955 6.03116 16.5803C4.5448 15.9651 3.27384 14.9237 2.37849 13.5872C1.48314 12.2508 1.00349 10.6792 1 9.07056" stroke="white" stroke-width="1.4" stroke-miterlimit="10" stroke-linecap="round"/>
<path d="M14.2422 19.0002L15.0517 15.7193C15.089 15.5763 15.0969 15.4273 15.0749 15.2812C15.053 15.1351 15.0016 14.9949 14.9239 14.8692C14.8463 14.7435 14.7439 14.6349 14.623 14.5499C14.5022 14.4649 14.3654 14.4053 14.2208 14.3747L10.9399 13.5544" stroke="white" stroke-width="1.4" stroke-linecap="round" stroke-linejoin="round"/>
<path d="M3.1748 5.17709C4.31407 4.04112 5.76418 3.26791 7.34228 2.95495C8.92039 2.64198 10.5558 2.80328 12.0424 3.41851C13.5289 4.03374 14.8 5.07534 15.6954 6.41199C16.5908 7.74864 17.0704 9.32047 17.0737 10.9293" stroke="white" stroke-width="1.4" stroke-miterlimit="10" stroke-linecap="round"/>
<path d="M3.83141 1L3.0219 4.28086C2.98477 4.4239 2.97701 4.57298 2.9991 4.7191C3.02119 4.86522 3.07266 5.00534 3.15041 5.13101C3.22816 5.25669 3.33057 5.3653 3.45147 5.45029C3.57236 5.53528 3.70922 5.59489 3.85379 5.62551L7.13368 6.44573" stroke="white" stroke-width="1.4" stroke-linecap="round" stroke-linejoin="round"/>
</svg>
