<svg width="14" height="15" viewBox="0 0 14 15" fill="none" xmlns="http://www.w3.org/2000/svg">
<path d="M0.000624931 12.6965C0.000624931 9.23213 0.000624931 5.76839 0.000624931 2.30464C0.118112 2.0098 0.202478 1.6956 0.360585 1.4245C0.678675 0.880418 1.21487 0.639299 1.8048 0.5H10.7026C11.3406 0.625557 11.8199 0.997854 12.2505 1.46385C12.6017 1.84427 12.9767 2.20345 13.3473 2.56513C13.7866 2.99427 13.9953 3.51961 13.9959 4.12553C13.9991 6.88216 14.0041 9.63941 13.9941 12.396C13.9897 13.6129 13.1054 14.4924 11.8874 14.4955C8.63342 14.503 5.37878 14.4993 2.12476 14.4974C1.50608 14.4974 0.935521 14.31 0.556188 13.8171C0.306841 13.4929 0.18123 13.0732 0 12.6965H0.000624931ZM3.30026 13.6835C3.30026 13.5348 3.30026 13.4223 3.30026 13.3099C3.30026 11.4328 3.29901 9.5557 3.29901 7.6786C3.29901 7.2201 3.42525 7.09516 3.88957 7.09516C5.96371 7.09391 8.03786 7.09329 10.112 7.09329C10.5763 7.09329 10.7032 7.21822 10.7032 7.67672C10.7044 9.56445 10.7044 11.4515 10.7051 13.3393C10.7051 13.448 10.7051 13.5573 10.7051 13.6841C11.1244 13.6841 11.4969 13.6866 11.8687 13.6835C12.6455 13.6772 13.1842 13.1494 13.1848 12.3767C13.1879 9.62816 13.1842 6.88028 13.1848 4.13178C13.1848 3.76135 13.0654 3.44215 12.803 3.17917C12.3124 2.68756 11.8343 2.18159 11.3212 1.71309C11.1319 1.54006 10.8694 1.37577 10.6244 1.34891C10.1158 1.29332 9.59706 1.33267 9.04712 1.33267C9.04712 1.46323 9.04712 1.57504 9.04712 1.68685C9.04712 2.49579 9.05087 3.30472 9.04587 4.11366C9.044 4.47471 8.91214 4.60964 8.56468 4.61027C6.96735 4.61339 5.37065 4.61401 3.77333 4.61151C3.44899 4.61151 3.30088 4.46097 3.29838 4.1349C3.29339 3.37781 3.29651 2.62072 3.29588 1.86363C3.29588 1.6906 3.29588 1.51757 3.29588 1.31831C2.90905 1.31831 2.55847 1.31768 2.20788 1.31831C1.32548 1.32205 0.814285 1.82928 0.814285 2.70505C0.814285 4.23984 0.814285 5.77463 0.815535 7.30942C0.815535 8.99975 0.814285 10.6901 0.818034 12.3804C0.819909 13.0863 1.30486 13.6379 1.98041 13.6791C2.40286 13.7053 2.82781 13.6835 3.29963 13.6835H3.30026ZM9.87766 7.93283H4.13517V13.6641H9.87766V7.93283ZM4.12079 3.78072H8.21159V1.34079H4.12079V3.78134V3.78072Z" fill="white"/>
</svg>
