<svg width="27" height="27" viewBox="0 0 27 27" fill="none" xmlns="http://www.w3.org/2000/svg">
<path d="M20.9202 21.1424L17.291 24.7729C16.9731 25.0915 16.5955 25.3442 16.1798 25.5166C15.7641 25.6891 15.3185 25.7778 14.8685 25.7778C14.4184 25.7778 13.9728 25.6891 13.5571 25.5166C13.1414 25.3442 12.7638 25.0915 12.4459 24.7729L3.06227 15.3893C2.5851 14.913 2.20645 14.3473 1.94795 13.7246C1.68944 13.1019 1.55614 12.4343 1.55566 11.7601V5.2017C1.55637 4.29385 1.91732 3.42338 2.55927 2.78144C3.20122 2.13949 4.07168 1.77854 4.97953 1.77783H11.5379C12.8992 1.77783 14.2045 2.32048 15.1671 3.28444L24.5507 12.6681C24.8693 12.986 25.122 13.3636 25.2945 13.7793C25.4669 14.195 25.5557 14.6406 25.5557 15.0906C25.5557 15.5407 25.4669 15.9863 25.2945 16.402C25.122 16.8177 24.8693 17.1953 24.5507 17.5132L20.9202 21.1424Z" stroke="#002C4D" stroke-width="2.4" stroke-linecap="round" stroke-linejoin="round"/>
<path d="M9.72336 13.3702C10.1731 13.3702 10.6184 13.2816 11.0339 13.1095C11.4494 12.9374 11.8269 12.6852 12.1449 12.3672C12.4629 12.0492 12.7151 11.6716 12.8872 11.2562C13.0593 10.8407 13.1479 10.3954 13.1479 9.94565C13.1479 9.49593 13.0593 9.05062 12.8872 8.63514C12.7151 8.21965 12.4629 7.84214 12.1449 7.52414C11.8269 7.20614 11.4494 6.95389 11.0339 6.78179C10.6184 6.6097 10.1731 6.52112 9.72336 6.52112C8.81512 6.52112 7.94407 6.88192 7.30185 7.52414C6.65963 8.16636 6.29883 9.03741 6.29883 9.94565C6.29883 10.8539 6.65963 11.7249 7.30185 12.3672C7.94407 13.0094 8.81512 13.3702 9.72336 13.3702Z" stroke="#002C4D" stroke-width="2.4" stroke-linecap="round" stroke-linejoin="round"/>
</svg>
