<svg width="18" height="18" viewBox="0 0 18 18" fill="none" xmlns="http://www.w3.org/2000/svg">
<path d="M6.02227 10.2973H2.67092C2.22689 10.2998 1.80191 10.478 1.48882 10.7928C1.17573 11.1077 0.999994 11.5337 1 11.9777V15.3291C0.999773 15.5486 1.04284 15.766 1.12673 15.9688C1.21062 16.1716 1.33369 16.3559 1.48889 16.5111C1.6441 16.6663 1.82839 16.7894 2.03122 16.8733C2.23405 16.9572 2.45143 17.0002 2.67092 17H6.02227C6.46636 17.0005 6.89253 16.8248 7.20736 16.5116C7.52219 16.1984 7.70001 15.7732 7.70184 15.3291V11.9777C7.70161 11.5323 7.52458 11.1053 7.20965 10.7903C6.89472 10.4754 6.46765 10.2984 6.02227 10.2982M11.1181 13.5795L12.5425 15.0039C12.5924 15.0549 12.652 15.0954 12.7178 15.1231C12.7836 15.1507 12.8543 15.165 12.9256 15.165C12.997 15.165 13.0676 15.1507 13.1334 15.1231C13.1992 15.0954 13.2588 15.0549 13.3088 15.0039L16.1801 12.1334M6.02227 1H2.67092C2.45143 0.999773 2.23405 1.04284 2.03122 1.12673C1.82839 1.21062 1.6441 1.33369 1.48889 1.48889C1.33369 1.6441 1.21062 1.82839 1.12673 2.03122C1.04284 2.23405 0.999773 2.45143 1 2.67092V6.02227C0.999539 6.46636 1.17516 6.89253 1.48837 7.20736C1.80158 7.52219 2.22683 7.70001 2.67092 7.70184H6.02227C6.2429 7.70206 6.4614 7.65878 6.66528 7.57445C6.86916 7.49013 7.0544 7.36642 7.21041 7.21041C7.36642 7.0544 7.49013 6.86916 7.57445 6.66528C7.65878 6.4614 7.70206 6.2429 7.70184 6.02227V2.67092C7.70001 2.22698 7.52231 1.80186 7.20766 1.48867C6.89302 1.17549 6.46621 0.999768 6.02227 1ZM15.3291 1H11.9777C11.5336 0.999539 11.1075 1.17516 10.7926 1.48837C10.4778 1.80158 10.3 2.22683 10.2982 2.67092V6.02227C10.2984 6.46765 10.4754 6.89472 10.7903 7.20965C11.1053 7.52458 11.5323 7.70161 11.9777 7.70184H15.3291C15.7732 7.70001 16.1984 7.52219 16.5116 7.20736C16.8248 6.89253 17.0005 6.46636 17 6.02227V2.67092C17.0002 2.45143 16.9572 2.23405 16.8733 2.03122C16.7894 1.82839 16.6663 1.6441 16.5111 1.48889C16.3559 1.33369 16.1716 1.21062 15.9688 1.12673C15.766 1.04284 15.5486 0.999773 15.3291 1Z" stroke="white" stroke-width="1.4" stroke-linecap="round" stroke-linejoin="round"/>
</svg>
