<svg width="19" height="18" viewBox="0 0 19 18" fill="none" xmlns="http://www.w3.org/2000/svg">
<path d="M17.8421 8.99954H6.59431M2.62413 8.99954H1M2.62413 8.99954C2.62413 8.47319 2.83322 7.96839 3.20541 7.59619C3.5776 7.224 4.0824 7.01491 4.60876 7.01491C5.13512 7.01491 5.63992 7.224 6.01211 7.59619C6.38431 7.96839 6.5934 8.47319 6.5934 8.99954C6.5934 9.5259 6.38431 10.0307 6.01211 10.4029C5.63992 10.7751 5.13512 10.9842 4.60876 10.9842C4.0824 10.9842 3.5776 10.7751 3.20541 10.4029C2.83322 10.0307 2.62413 9.5259 2.62413 8.99954ZM17.8421 15.0145H12.6092M12.6092 15.0145C12.6092 15.5409 12.3996 16.0463 12.0273 16.4186C11.6551 16.7909 11.1501 17 10.6237 17C10.0973 17 9.59251 16.79 9.22032 16.4178C8.84813 16.0456 8.63903 15.5408 8.63903 15.0145M12.6092 15.0145C12.6092 14.488 12.3996 13.9835 12.0273 13.6112C11.6551 13.239 11.1501 13.0298 10.6237 13.0298C10.0973 13.0298 9.59251 13.2389 9.22032 13.6111C8.84813 13.9833 8.63903 14.4881 8.63903 15.0145M8.63903 15.0145H1M17.8421 2.98464H15.0154M11.0452 2.98464H1M11.0452 2.98464C11.0452 2.45828 11.2543 1.95348 11.6265 1.58129C11.9987 1.2091 12.5035 1 13.0298 1C13.2904 1 13.5485 1.05133 13.7893 1.15107C14.0301 1.25081 14.2489 1.397 14.4332 1.58129C14.6175 1.76558 14.7636 1.98436 14.8634 2.22515C14.9631 2.46594 15.0145 2.72401 15.0145 2.98464C15.0145 3.24526 14.9631 3.50334 14.8634 3.74413C14.7636 3.98491 14.6175 4.2037 14.4332 4.38799C14.2489 4.57228 14.0301 4.71847 13.7893 4.8182C13.5485 4.91794 13.2904 4.96927 13.0298 4.96927C12.5035 4.96927 11.9987 4.76018 11.6265 4.38799C11.2543 4.0158 11.0452 3.511 11.0452 2.98464Z" stroke="white" stroke-width="1.24444" stroke-miterlimit="10" stroke-linecap="round"/>
</svg>
