<svg width="33" height="33" viewBox="0 0 33 33" fill="none" xmlns="http://www.w3.org/2000/svg">
<path d="M14.8174 0.769282H18.3741C19.4343 1.10026 19.9056 1.86882 20.0178 2.92908C20.0626 3.36666 20.158 3.79862 20.2141 4.23058C20.2478 4.49985 20.3656 4.64571 20.6349 4.74108C21.1902 4.93742 21.7232 5.20109 22.2786 5.40304C22.4188 5.45353 22.632 5.4367 22.7554 5.35816C23.2659 5.02718 23.7483 4.66254 24.2476 4.30912C25.1733 3.65276 26.1213 3.69764 26.9348 4.46619C27.5855 5.08328 28.2194 5.7172 28.8365 6.36797C29.5994 7.17018 29.6555 8.11264 29.0272 9.02145C28.6794 9.52073 28.3316 10.0144 27.9614 10.4968C27.8155 10.6932 27.8043 10.8503 27.9053 11.0691C28.1409 11.5796 28.326 12.1069 28.5672 12.6118C28.6458 12.7688 28.8309 12.9315 28.9992 12.9764C29.4704 13.0942 29.9473 13.184 30.4297 13.2289C31.4788 13.313 32.18 13.8179 32.5222 14.8221V18.4741C32.1688 19.4895 31.4339 19.9832 30.3792 20.0729C29.9136 20.1122 29.4424 20.1963 28.988 20.3085C28.8197 20.3478 28.6289 20.5105 28.556 20.6676C28.3036 21.1837 28.0848 21.7166 27.8884 22.2608C27.8379 22.3954 27.8604 22.6142 27.9389 22.732C28.3148 23.3042 28.7299 23.8484 29.1058 24.4206C29.5994 25.1779 29.5714 26.0867 28.9711 26.7431C28.2643 27.5172 27.5238 28.2633 26.744 28.9646C26.0428 29.5985 25.1284 29.6041 24.3486 29.0656C23.8101 28.6953 23.2883 28.297 22.7442 27.938C22.6264 27.8594 22.4076 27.8426 22.2673 27.8931C21.7288 28.0894 21.1902 28.3082 20.6741 28.5607C20.517 28.6336 20.36 28.8299 20.3151 28.9926C20.2029 29.4302 20.1244 29.8846 20.0851 30.339C19.9953 31.4105 19.5129 32.1678 18.4751 32.5269H14.823C13.9871 32.2127 13.4093 31.6798 13.2747 30.7485C13.1905 30.165 13.1064 29.5761 12.983 28.9982C12.9437 28.8299 12.7866 28.6392 12.6296 28.5607C12.1247 28.3138 11.6029 28.1063 11.0812 27.9155C10.9466 27.865 10.7278 27.8931 10.6044 27.9716C10.1107 28.2914 9.63388 28.6504 9.15143 28.9926C8.13043 29.7163 7.23846 29.6602 6.32966 28.7851C5.71818 28.196 5.11791 27.5902 4.52327 26.9787C3.76032 26.1933 3.68739 25.2284 4.3101 24.3308C4.66352 23.8203 5.04499 23.3266 5.38719 22.8049C5.46573 22.6815 5.48256 22.4627 5.43207 22.3281C5.23011 21.7727 5.00011 21.2285 4.74766 20.6956C4.68595 20.561 4.51766 20.4263 4.37741 20.3927C3.87813 20.2749 3.36763 20.1739 2.85713 20.1234C1.79686 20.0168 1.07319 19.5119 0.764648 18.4685V14.9118C1.04515 14.0984 1.55564 13.5262 2.43639 13.3691C3.00299 13.2681 3.56959 13.1559 4.1418 13.0942C4.49522 13.055 4.66351 12.8979 4.7701 12.5669C4.92718 12.0788 5.1684 11.6188 5.33109 11.1308C5.38719 10.9681 5.37036 10.7156 5.2806 10.5754C4.94962 10.0481 4.56254 9.55999 4.20911 9.04389C3.59764 8.15191 3.6313 7.25433 4.3662 6.46895C5.02816 5.75647 5.72378 5.07206 6.43063 4.41009C7.13748 3.75374 8.1136 3.72008 8.90459 4.26985C9.20192 4.47741 9.52729 4.66254 9.78534 4.91498C10.3856 5.50402 10.9241 5.41987 11.7095 5.1506C12.7249 4.80278 13.0391 4.22497 13.1008 3.26568C13.1737 2.11565 13.5384 1.11148 14.8118 0.763672L14.8174 0.769282ZM25.4874 27.6687C25.5659 27.6126 25.6501 27.5733 25.7118 27.5116C26.3064 26.9226 26.9067 26.3392 27.4733 25.7277C27.5575 25.6323 27.5575 25.3518 27.4733 25.2284C27.047 24.5833 26.6038 23.9437 26.1325 23.3266C25.7679 22.8554 25.7847 22.4235 26.0372 21.8961C26.4186 21.1051 26.7328 20.2861 27.0413 19.4614C27.2096 19.0014 27.4733 18.7209 27.9726 18.648C28.7524 18.5358 29.5265 18.3843 30.3063 18.2665C30.6092 18.2217 30.7551 18.1095 30.7495 17.7729C30.727 17.0155 30.7326 16.2526 30.7495 15.4953C30.7551 15.1811 30.6148 15.0689 30.3343 15.024C29.5714 14.9062 28.8085 14.7604 28.0455 14.6538C27.5126 14.5808 27.2265 14.3003 27.0413 13.8011C26.7384 12.9652 26.3962 12.1349 26.0203 11.3271C25.7959 10.8447 25.7847 10.4464 26.1045 10.0144C26.5701 9.3917 26.9965 8.74656 27.4621 8.12386C27.6472 7.87703 27.6753 7.70312 27.4228 7.46751C26.8674 6.9514 26.3289 6.40724 25.8072 5.85744C25.594 5.63305 25.4257 5.62744 25.1845 5.80695C24.5393 6.28943 23.8774 6.74944 23.2266 7.22628C22.862 7.49556 22.4917 7.518 22.0766 7.33287C21.179 6.94018 20.2646 6.56432 19.3502 6.20528C18.9407 6.04821 18.6882 5.81256 18.6153 5.36938C18.4807 4.56156 18.318 3.75935 18.2002 2.94591C18.1609 2.65981 18.0599 2.54761 17.7738 2.55322C16.9828 2.56444 16.1918 2.56444 15.4008 2.55322C15.1428 2.55322 15.025 2.64298 14.9857 2.91225C14.8567 3.73691 14.694 4.55595 14.565 5.3806C14.492 5.84061 14.2228 6.08187 13.802 6.25016C12.9269 6.59237 12.063 6.95701 11.2103 7.34409C10.7783 7.54044 10.408 7.55166 10.021 7.26555C9.37021 6.78871 8.70264 6.33992 8.0575 5.86305C7.82188 5.68915 7.66481 5.67793 7.44602 5.90793C6.91308 6.47456 6.36331 7.01872 5.80232 7.55166C5.59475 7.748 5.57792 7.89386 5.74622 8.12386C6.22868 8.769 6.67747 9.44219 7.15431 10.0873C7.47407 10.5193 7.46846 10.912 7.24407 11.4C6.87381 12.191 6.54283 13.0101 6.25112 13.8347C6.0716 14.3564 5.77988 14.6538 5.23011 14.7323C4.46156 14.8389 3.70422 14.9848 2.93567 15.1026C2.6664 15.1418 2.54859 15.2484 2.5542 15.5457C2.57103 16.3199 2.57664 17.0941 2.5542 17.8682C2.54859 18.1824 2.66079 18.2834 2.95812 18.3282C3.75472 18.4461 4.5401 18.6143 5.3367 18.7378C5.81355 18.8107 6.07721 19.0687 6.24551 19.5119C6.57088 20.359 6.91308 21.2005 7.30016 22.0195C7.53578 22.5132 7.547 22.9227 7.2048 23.3715C6.73357 23.9886 6.30722 24.6337 5.8472 25.2564C5.66769 25.4977 5.6733 25.6604 5.89769 25.8735C6.44746 26.3953 6.99162 26.9282 7.50773 27.4892C7.74335 27.7416 7.91164 27.7136 8.15848 27.5285C8.80361 27.046 9.47119 26.5972 10.1219 26.1204C10.5258 25.823 10.9017 25.8399 11.3505 26.0474C12.1583 26.4177 12.9942 26.7487 13.8301 27.0572C14.2901 27.2311 14.5594 27.506 14.6267 28.0053C14.7333 28.7738 14.8903 29.5312 14.9969 30.2997C15.0474 30.6588 15.1989 30.771 15.5579 30.7541C16.2872 30.7205 17.0165 30.7205 17.7402 30.7541C18.0767 30.771 18.1946 30.6419 18.2394 30.3334C18.3572 29.5368 18.5031 28.7458 18.6265 27.9548C18.6994 27.4836 18.9799 27.2255 19.4175 27.0572C20.2646 26.7375 21.1117 26.4065 21.9363 26.025C22.4188 25.8006 22.8171 25.8006 23.2435 26.1204C23.8605 26.586 24.5057 27.018 25.1396 27.4667C25.235 27.5341 25.3415 27.5958 25.4594 27.6743L25.4874 27.6687Z" fill="white"/>
<path d="M16.6606 9.78909C20.408 9.77787 23.4822 12.8521 23.499 16.6332C23.5158 20.3862 20.4528 23.466 16.6774 23.494C12.9076 23.5221 9.81651 20.4479 9.79407 16.65C9.77163 12.8857 12.8571 9.80031 16.6606 9.78909ZM16.5932 21.6933C19.3814 21.7381 21.687 19.4718 21.7095 16.6612C21.7319 13.9011 19.4823 11.6291 16.6774 11.5786C13.9342 11.5282 11.6341 13.8002 11.5948 16.5939C11.5556 19.3708 13.7883 21.6428 16.5876 21.6877L16.5932 21.6933Z" fill="white"/>
</svg>
