<svg width="16" height="8" viewBox="0 0 16 8" fill="none" xmlns="http://www.w3.org/2000/svg">
<path d="M3.17578 4.76643L4.64062 6.21397C4.78385 6.35365 4.85872 6.52824 4.86523 6.73776C4.87174 6.94727 4.79688 7.12821 4.64062 7.28058C4.4974 7.42026 4.3151 7.4901 4.09375 7.4901C3.8724 7.4901 3.6901 7.42026 3.54688 7.28058L0.734375 4.53788C0.578125 4.3855 0.5 4.20773 0.5 4.00457C0.5 3.80141 0.578125 3.62364 0.734375 3.47127L3.54688 0.728559C3.70312 0.576186 3.88542 0.503174 4.09375 0.509523C4.30208 0.515872 4.48438 0.595233 4.64062 0.747606C4.78385 0.899978 4.85872 1.07775 4.86523 1.28091C4.87174 1.48407 4.79688 1.66184 4.64062 1.81421L3.17578 3.24271H12.8047L11.3398 1.81421C11.1836 1.66184 11.1055 1.4809 11.1055 1.27139C11.1055 1.06187 11.1836 0.880932 11.3398 0.728559C11.4961 0.576186 11.6816 0.5 11.8965 0.5C12.1113 0.5 12.2969 0.576186 12.4531 0.728559L15.2656 3.47127C15.4219 3.62364 15.5 3.80141 15.5 4.00457C15.5 4.20773 15.4219 4.3855 15.2656 4.53788L12.4531 7.28058C12.3099 7.42026 12.1309 7.49327 11.916 7.49962C11.7012 7.50597 11.5156 7.43296 11.3594 7.28058C11.2031 7.12821 11.1217 6.94727 11.1152 6.73776C11.1087 6.52824 11.1836 6.3473 11.3398 6.19493L12.8047 4.76643H3.17578Z" fill="white"/>
</svg>
