<svg width="38" height="36" viewBox="0 0 38 36" fill="none" xmlns="http://www.w3.org/2000/svg">
<rect x="0.97168" width="37.0286" height="36" rx="18" fill="#002C4D"/>
<path d="M12.2249 11.3449V25.2603C12.2247 25.6577 12.3029 26.0512 12.4549 26.4184C12.6069 26.7855 12.8298 27.1191 13.1108 27.4001C13.3917 27.6811 13.7254 27.904 14.0925 28.056C14.4597 28.208 14.8532 28.2862 15.2506 28.286H23.7217C24.5239 28.286 25.2932 27.9674 25.8604 27.4001C26.4277 26.8329 26.7463 26.0636 26.7463 25.2614V11.3438M9.80518 11.3449H29.1671" stroke="white" stroke-width="2.05718" stroke-linecap="round" stroke-linejoin="round"/>
<path d="M15.856 11.3445V9.52864C15.8557 9.29014 15.9024 9.05393 15.9936 8.83355C16.0848 8.61317 16.2185 8.41295 16.3872 8.24436C16.5559 8.07577 16.7562 7.94213 16.9767 7.85109C17.1971 7.76006 17.4333 7.71343 17.6718 7.71387H21.3014C21.5399 7.71343 21.7761 7.76006 21.9965 7.85109C22.217 7.94213 22.4173 8.07577 22.586 8.24436C22.7547 8.41295 22.8884 8.61317 22.9796 8.83355C23.0708 9.05393 23.1175 9.29014 23.1172 9.52864V11.3445M17.0669 23.5508V17.5027M21.9074 23.5508V17.5027" stroke="white" stroke-width="2.05718" stroke-linecap="round" stroke-linejoin="round"/>
</svg>
