<svg width="19" height="20" viewBox="0 0 19 20" fill="none" xmlns="http://www.w3.org/2000/svg">
<path d="M3.11719 4.17633V16.3521C3.11706 16.6998 3.18545 17.0441 3.31845 17.3654C3.45146 17.6867 3.64646 17.9786 3.89233 18.2244C4.13819 18.4703 4.4301 18.6653 4.75136 18.7983C5.07262 18.9313 5.41694 18.9997 5.76465 18.9996H13.1768C13.8787 18.9996 14.5518 18.7207 15.0481 18.2244C15.5444 17.7281 15.8232 17.055 15.8232 16.3531V4.17535M1 4.17633H17.9414" stroke="white" stroke-width="1.8" stroke-linecap="round" stroke-linejoin="round"/>
<path d="M6.29321 4.17713V2.58826C6.29296 2.37958 6.33389 2.1729 6.41366 1.98007C6.49343 1.78724 6.61047 1.61205 6.75807 1.46454C6.90567 1.31702 7.08094 1.20009 7.27382 1.12044C7.4667 1.04079 7.6734 0.999985 7.88208 1.00037H11.0579C11.2665 0.999985 11.4732 1.04079 11.6661 1.12044C11.859 1.20009 12.0343 1.31702 12.1819 1.46454C12.3295 1.61205 12.4465 1.78724 12.5263 1.98007C12.6061 2.1729 12.647 2.37958 12.6467 2.58826V4.17713M7.35278 14.8575V9.56545M11.5881 14.8575V9.56545" stroke="white" stroke-width="1.8" stroke-linecap="round" stroke-linejoin="round"/>
</svg>
