<svg width="25" height="24" viewBox="0 0 25 24" fill="none" xmlns="http://www.w3.org/2000/svg">
<path d="M12.2778 0.5C10.0034 0.5 7.77994 1.17446 5.88878 2.4381C3.99761 3.70174 2.52363 5.49779 1.65322 7.59914C0.782815 9.70049 0.555077 12.0128 0.998806 14.2435C1.44254 16.4743 2.5378 18.5234 4.14611 20.1317C5.75441 21.74 7.80352 22.8353 10.0343 23.279C12.2651 23.7228 14.5773 23.495 16.6787 22.6246C18.78 21.7542 20.5761 20.2802 21.8397 18.3891C23.1034 16.4979 23.7778 14.2745 23.7778 12C23.7749 8.95092 22.5623 6.02758 20.4063 3.87155C18.2503 1.71553 15.3269 0.50297 12.2778 0.5ZM13.1193 21.8171V2.2278C15.571 2.43147 17.8566 3.54925 19.5226 5.35942C21.1886 7.16958 22.1134 9.53985 22.1134 12C22.1134 14.4601 21.1886 16.8304 19.5226 18.6406C17.8566 20.4507 15.571 21.5685 13.1193 21.7722V21.8171Z" fill="#002C4D" stroke="#002C4D"/>
</svg>
