<svg width="1080" height="53" viewBox="0 0 1080 53" fill="none" xmlns="http://www.w3.org/2000/svg">
<path d="M421.809 40.1139C421.66 40.078 421.528 39.9821 421.45 39.8503C421.372 39.7184 421.348 39.5626 421.384 39.4068C421.45 39.1432 421.69 38.9634 421.953 38.9634C422.001 38.9634 422.049 38.9694 422.091 38.9814C422.403 39.0593 422.594 39.3769 422.516 39.6885C422.48 39.8383 422.385 39.9701 422.253 40.048C422.163 40.1019 422.055 40.1319 421.953 40.1319C421.905 40.1319 421.857 40.1319 421.809 40.1139ZM449.008 40.048C448.876 39.9701 448.78 39.8383 448.744 39.6885C448.666 39.3769 448.858 39.0593 449.17 38.9814C449.217 38.9694 449.265 38.9634 449.313 38.9634C449.415 38.9634 449.523 38.9934 449.613 39.0473C449.745 39.1252 449.841 39.257 449.877 39.4068C449.955 39.7184 449.763 40.036 449.451 40.1139C449.403 40.1259 449.355 40.1319 449.307 40.1319C449.205 40.1319 449.098 40.1019 449.008 40.048ZM434.453 37.9747C434.453 37.3276 434.98 36.8002 435.627 36.8002C436.274 36.8002 436.802 37.3276 436.802 37.9747C436.802 38.6219 436.274 39.1492 435.627 39.1492C434.98 39.1492 434.453 38.6219 434.453 37.9747ZM424.614 22.7966C424.614 22.473 424.877 22.2153 425.195 22.2153C425.512 22.2153 425.776 22.479 425.776 22.7966C425.776 23.1142 425.512 23.3778 425.195 23.3778C424.877 23.3778 424.614 23.1142 424.614 22.7966ZM445.478 22.7966C445.478 22.473 445.742 22.2153 446.066 22.2153C446.389 22.2153 446.647 22.479 446.647 22.7966C446.647 23.1142 446.383 23.3778 446.066 23.3778C445.748 23.3778 445.478 23.1142 445.478 22.7966ZM422.457 26.7754C420.869 23.7973 420.797 20.2739 422.241 17.2478C425.554 17.7392 428.443 19.7645 430.025 22.7426C431.451 25.4211 431.648 28.5371 430.63 31.3414L426.813 24.1927C427.136 23.8212 427.328 23.3359 427.328 22.8026C427.328 21.6281 426.369 20.6694 425.195 20.6694C424.02 20.6694 423.062 21.6281 423.062 22.8026C423.062 23.977 424.02 24.9358 425.195 24.9358C425.279 24.9358 425.363 24.9298 425.441 24.9178L429.258 32.0724C426.357 31.3594 423.877 29.4539 422.451 26.7754M441.23 22.7367C442.818 19.7585 445.7 17.7332 449.014 17.2418C450.458 20.2679 450.386 23.7913 448.798 26.7694C447.372 29.4479 444.891 31.3534 441.991 32.0664L445.808 24.9118C445.892 24.9238 445.97 24.9298 446.06 24.9298C447.234 24.9298 448.193 23.971 448.193 22.7966C448.193 21.6221 447.234 20.6634 446.06 20.6634C444.885 20.6634 443.926 21.6221 443.926 22.7966C443.926 23.3239 444.124 23.8092 444.442 24.1868L440.625 31.3414C439.606 28.5371 439.804 25.4211 441.23 22.7426M448.63 6.89938C448.63 6.39005 449.05 5.9706 449.559 5.9706C450.068 5.9706 450.488 6.39005 450.488 6.89938C450.488 7.08514 450.434 7.25292 450.338 7.40272C450.338 7.40272 450.326 7.40272 450.326 7.4147C450.314 7.42669 450.314 7.43867 450.302 7.45066C450.134 7.67836 449.865 7.82816 449.559 7.82816C449.05 7.82816 448.63 7.40871 448.63 6.89938ZM433.518 2.62098C433.518 2.11165 433.937 1.6922 434.447 1.6922C434.956 1.6922 435.376 2.11165 435.376 2.62098C435.376 3.13031 434.956 3.54976 434.447 3.54976C433.937 3.54976 433.518 3.13031 433.518 2.62098ZM432.032 2.08169C419.496 3.85536 410.119 14.5993 410.119 27.3326C410.119 41.3962 421.564 52.8412 435.633 52.8412C436.071 52.8412 436.502 52.8293 436.94 52.8053C450.512 52.1222 461.142 40.9348 461.142 27.3326C461.142 19.6866 457.786 12.562 451.908 7.69034C451.992 7.44467 452.04 7.18101 452.04 6.90537C452.04 5.53916 450.931 4.43061 449.565 4.43061C448.199 4.43061 447.084 5.53916 447.084 6.90537C447.084 8.27158 448.193 9.38013 449.565 9.38013C450.092 9.38013 450.584 9.21235 450.985 8.93072C456.468 13.5027 459.602 20.172 459.602 27.3326C459.602 39.3409 450.775 49.3478 439.127 51.0376C441.032 49.3838 443.165 46.8551 443.908 43.4515C444.969 42.1153 446.203 41.2225 447.594 40.797C447.761 41.0307 447.977 41.2284 448.229 41.3842C448.564 41.588 448.942 41.6898 449.325 41.6898C449.499 41.6898 449.673 41.6659 449.841 41.6239C450.979 41.3423 451.68 40.1798 451.399 39.0413C451.261 38.49 450.919 38.0226 450.428 37.729C449.937 37.4354 449.367 37.3515 448.816 37.4893C447.935 37.7111 447.318 38.4481 447.216 39.305C446.12 39.6285 445.107 40.1858 444.184 40.9588C444.184 39.9701 444.076 38.9215 443.813 37.8129C443.489 36.4467 442.854 35.0625 441.943 33.6843C445.454 32.9593 448.48 30.7182 450.188 27.5124C452.1 23.9231 452.094 19.6387 450.164 16.0494C450.014 15.7738 449.721 15.612 449.403 15.6479C445.353 16.0494 441.793 18.4343 439.882 22.0236C437.976 25.6009 437.976 29.8613 439.882 33.4446C439.912 33.5046 439.942 33.5645 439.99 33.6124C441.17 35.1524 441.949 36.6864 442.303 38.1724C443.95 45.0874 438.983 49.4437 436.424 51.1754V40.5993C437.551 40.2637 438.372 39.2211 438.372 37.9867C438.372 36.4827 437.149 35.2603 435.645 35.2603C434.141 35.2603 432.919 36.4827 432.919 37.9867C432.919 39.2211 433.746 40.2637 434.872 40.5993V51.1754C432.314 49.4437 427.34 45.0814 428.988 38.1665C429.341 36.6804 430.12 35.1464 431.301 33.6064C431.349 33.5525 431.379 33.4926 431.409 33.4326C433.314 29.8553 433.314 25.5889 431.409 22.0176C429.497 18.4283 425.938 16.0494 421.887 15.6419C421.576 15.612 421.276 15.7738 421.126 16.0434C419.197 19.6267 419.191 23.9111 421.102 27.5064C422.81 30.7122 425.836 32.9533 429.347 33.6783C428.437 35.0565 427.807 36.4407 427.478 37.8069C427.214 38.9155 427.1 39.9581 427.106 40.9468C426.184 40.1738 425.177 39.6166 424.08 39.293C423.973 38.4421 423.361 37.6991 422.48 37.4774C421.342 37.1957 420.179 37.8908 419.898 39.0353C419.76 39.5866 419.844 40.1618 420.138 40.6472C420.431 41.1326 420.899 41.4801 421.45 41.6179C421.624 41.6599 421.797 41.6839 421.965 41.6839C422.349 41.6839 422.726 41.582 423.062 41.3783C423.313 41.2284 423.529 41.0247 423.697 40.791C425.081 41.2165 426.309 42.1033 427.37 43.4396C428.113 46.8491 430.246 49.3778 432.152 51.0376C420.587 49.3418 411.677 39.3589 411.677 27.3386C411.677 15.3184 420.449 5.32943 432.194 3.63365C432.577 4.50252 433.446 5.11372 434.459 5.11372C435.825 5.11372 436.934 3.99918 436.934 2.63296C436.934 1.26675 435.825 0.158203 434.459 0.158203C433.278 0.158203 432.29 0.985121 432.044 2.09367" fill="white"/>
<mask id="mask0_452_3624" style="mask-type:luminance" maskUnits="userSpaceOnUse" x="410" y="0" width="52" height="53">
<path d="M421.807 40.1139C421.658 40.078 421.526 39.9821 421.448 39.8503C421.37 39.7184 421.346 39.5626 421.382 39.4068C421.448 39.1432 421.688 38.9634 421.951 38.9634C421.999 38.9634 422.047 38.9634 422.089 38.9814C422.401 39.0593 422.592 39.3769 422.514 39.6885C422.479 39.8383 422.383 39.9701 422.251 40.048C422.161 40.1019 422.053 40.1319 421.951 40.1319C421.903 40.1319 421.855 40.1319 421.807 40.1139ZM449.006 40.048C448.874 39.9701 448.778 39.8383 448.742 39.6885C448.664 39.3769 448.856 39.0593 449.168 38.9814C449.216 38.9694 449.263 38.9634 449.311 38.9634C449.413 38.9634 449.521 38.9934 449.611 39.0473C449.743 39.1252 449.839 39.257 449.875 39.4068C449.953 39.7184 449.761 40.036 449.449 40.1139C449.401 40.1259 449.353 40.1319 449.305 40.1319C449.204 40.1319 449.096 40.1019 449.006 40.048ZM434.451 37.9747C434.451 37.3276 434.978 36.8002 435.625 36.8002C436.272 36.8002 436.8 37.3276 436.8 37.9747C436.8 38.6219 436.272 39.1492 435.625 39.1492C434.978 39.1492 434.451 38.6219 434.451 37.9747ZM424.612 22.7966C424.612 22.473 424.875 22.2153 425.193 22.2153C425.511 22.2153 425.774 22.479 425.774 22.7966C425.774 23.1142 425.511 23.3778 425.193 23.3778C424.875 23.3778 424.612 23.1142 424.612 22.7966ZM445.476 22.7966C445.476 22.473 445.74 22.2153 446.064 22.2153C446.387 22.2153 446.645 22.479 446.645 22.7966C446.645 23.1142 446.381 23.3778 446.064 23.3778C445.746 23.3778 445.476 23.1142 445.476 22.7966ZM422.455 26.7754C420.867 23.7973 420.795 20.2739 422.239 17.2478C425.552 17.7392 428.441 19.7645 430.023 22.7426C431.449 25.4211 431.647 28.5371 430.628 31.3414L426.811 24.1927C427.134 23.8212 427.326 23.3359 427.326 22.8026C427.326 21.6281 426.367 20.6694 425.193 20.6694C424.018 20.6694 423.06 21.6281 423.06 22.8026C423.06 23.977 424.018 24.9358 425.193 24.9358C425.277 24.9358 425.361 24.9298 425.439 24.9178L429.256 32.0724C426.355 31.3594 423.875 29.4539 422.449 26.7754M441.228 22.7367C442.816 19.7585 445.698 17.7332 449.012 17.2418C450.456 20.2679 450.384 23.7913 448.796 26.7694C447.37 29.4479 444.889 31.3534 441.989 32.0664L445.806 24.9118C445.89 24.9238 445.968 24.9298 446.058 24.9298C447.232 24.9298 448.191 23.971 448.191 22.7966C448.191 21.6221 447.232 20.6634 446.058 20.6634C444.883 20.6634 443.924 21.6221 443.924 22.7966C443.924 23.3239 444.122 23.8092 444.44 24.1868L440.623 31.3414C439.604 28.5371 439.802 25.4211 441.228 22.7426M448.628 6.89938C448.628 6.39005 449.048 5.9706 449.557 5.9706C450.066 5.9706 450.486 6.39005 450.486 6.89938C450.486 7.08514 450.432 7.25292 450.336 7.40272C450.336 7.40272 450.324 7.40871 450.324 7.4147C450.312 7.42669 450.312 7.43867 450.3 7.45066C450.132 7.67836 449.863 7.82816 449.557 7.82816C449.048 7.82816 448.628 7.40871 448.628 6.89938ZM433.516 2.62098C433.516 2.11165 433.936 1.6922 434.445 1.6922C434.954 1.6922 435.374 2.11165 435.374 2.62098C435.374 3.13031 434.954 3.54976 434.445 3.54976C433.936 3.54976 433.516 3.13031 433.516 2.62098ZM432.03 2.08169C419.494 3.85536 410.117 14.5993 410.117 27.3326C410.117 41.3962 421.562 52.8412 435.631 52.8412C436.069 52.8412 436.5 52.8293 436.938 52.8053C450.51 52.1222 461.14 40.9348 461.14 27.3326C461.14 19.6866 457.784 12.562 451.906 7.69034C451.99 7.44467 452.038 7.18101 452.038 6.90537C452.038 5.53916 450.929 4.43061 449.563 4.43061C448.197 4.43061 447.082 5.53916 447.082 6.90537C447.082 8.27158 448.191 9.38013 449.563 9.38013C450.09 9.38013 450.582 9.21235 450.983 8.93072C456.466 13.5027 459.6 20.172 459.6 27.3326C459.6 39.3409 450.773 49.3478 439.125 51.0376C441.03 49.3838 443.163 46.8551 443.906 43.4515C444.967 42.1153 446.201 41.2225 447.592 40.797C447.759 41.0307 447.975 41.2284 448.227 41.3842C448.562 41.588 448.94 41.6898 449.323 41.6898C449.497 41.6898 449.671 41.6659 449.839 41.6239C450.977 41.3423 451.678 40.1798 451.397 39.0413C451.259 38.49 450.917 38.0226 450.426 37.729C449.935 37.4354 449.365 37.3515 448.814 37.4893C447.933 37.7111 447.316 38.4481 447.214 39.305C446.118 39.6285 445.105 40.1858 444.182 40.9588C444.182 39.9701 444.074 38.9215 443.811 37.8129C443.487 36.4467 442.852 35.0625 441.941 33.6843C445.452 32.9593 448.478 30.7182 450.186 27.5124C452.098 23.9231 452.092 19.6387 450.162 16.0494C450.012 15.7738 449.719 15.612 449.401 15.6479C445.351 16.0494 441.791 18.4343 439.88 22.0236C437.974 25.6009 437.974 29.8613 439.88 33.4446C439.91 33.5046 439.94 33.5645 439.988 33.6124C441.168 35.1524 441.947 36.6864 442.301 38.1724C443.948 45.0874 438.981 49.4437 436.422 51.1754V40.5993C437.549 40.2637 438.37 39.2211 438.37 37.9867C438.37 36.4827 437.147 35.2603 435.643 35.2603C434.139 35.2603 432.917 36.4827 432.917 37.9867C432.917 39.2211 433.744 40.2637 434.87 40.5993V51.1754C432.312 49.4437 427.338 45.0814 428.986 38.1665C429.34 36.6804 430.119 35.1464 431.299 33.6064C431.347 33.5525 431.377 33.4926 431.407 33.4326C433.312 29.8553 433.312 25.5889 431.407 22.0176C429.495 18.4283 425.936 16.0494 421.885 15.6419C421.574 15.612 421.274 15.7738 421.124 16.0434C419.195 19.6267 419.189 23.9111 421.1 27.5064C422.808 30.7122 425.834 32.9533 429.346 33.6783C428.435 35.0565 427.806 36.4407 427.476 37.8069C427.212 38.9155 427.098 39.9581 427.104 40.9468C426.182 40.1738 425.175 39.6166 424.078 39.293C423.971 38.4421 423.359 37.6991 422.479 37.4774C421.34 37.1957 420.178 37.8908 419.896 39.0353C419.758 39.5866 419.842 40.1618 420.136 40.6472C420.429 41.1326 420.897 41.4801 421.448 41.6179C421.622 41.6599 421.795 41.6839 421.963 41.6839C422.347 41.6839 422.724 41.582 423.06 41.3783C423.311 41.2284 423.527 41.0247 423.695 40.791C425.079 41.2165 426.308 42.1033 427.368 43.4396C428.111 46.8491 430.244 49.3778 432.15 51.0376C420.585 49.3418 411.675 39.3589 411.675 27.3386C411.675 15.3184 420.447 5.32943 432.192 3.63365C432.575 4.50252 433.444 5.11372 434.457 5.11372C435.823 5.11372 436.932 3.99918 436.932 2.63296C436.932 1.26675 435.823 0.158203 434.457 0.158203C433.276 0.158203 432.288 0.985121 432.042 2.09367L432.03 2.08169Z" fill="white"/>
</mask>
<g mask="url(#mask0_452_3624)">
<path d="M461.14 0.145508H410.117V52.8345H461.14V0.145508Z" fill="white"/>
</g>
<path d="M565.092 6.25223H570.599V6.84546C570.605 15.0607 570.611 23.2759 570.623 31.4912C570.623 33.1091 570.809 34.709 571.3 36.255C572.331 39.5087 574.494 41.6539 577.711 42.7744C582.26 44.3564 586.532 43.829 590.511 41.1266C593.776 38.9035 595.37 35.7516 595.382 31.8387C595.412 23.4617 595.394 15.0907 595.394 6.71363V6.09044C596.305 6.09044 597.198 6.0485 598.079 6.10842C598.498 6.13239 598.702 6.5099 598.75 6.92935C598.768 7.10312 598.75 7.28288 598.75 7.45666V35.1943C598.87 35.0925 598.954 35.0445 599.02 34.9726C606.995 26.0204 614.971 17.0621 622.946 8.1098C623.372 7.63642 623.797 7.15705 624.217 6.67768C624.576 6.27021 625.014 6.07247 625.565 6.08445C626.506 6.10243 627.446 6.08445 628.387 6.08445C629.142 6.08445 629.358 6.29418 629.358 7.0432C629.358 17.6973 629.364 28.3573 629.37 39.0113C629.37 40.845 629.376 42.6786 629.382 44.5122C629.382 44.7039 629.382 44.8956 629.364 45.0874C629.28 45.8424 628.992 46.0701 628.231 46.0521C627.53 46.0342 626.835 46.0521 626.086 46.0521V14.4675C626.014 14.4136 625.942 14.3536 625.87 14.2997C625.822 14.4315 625.799 14.5873 625.715 14.6892C622.413 18.4343 619.105 22.1674 615.804 25.9125C612.598 29.5497 609.392 33.187 606.192 36.8242C603.759 39.5926 601.333 42.355 598.906 45.1293C598.301 45.8244 597.587 46.1959 596.635 46.0521C596.281 45.9982 595.91 46.0461 595.508 46.0461V41.2884C595.31 41.4621 595.197 41.552 595.095 41.6539C592.015 44.8417 588.198 46.4296 583.829 46.7952C580.504 47.0708 577.232 46.885 574.092 45.6267C571.012 44.3983 568.46 42.5287 566.8 39.5866C565.607 37.4834 565.104 35.1884 565.092 32.7975C565.056 24.3426 565.056 15.8876 565.05 7.43269C565.05 7.06717 565.086 6.70164 565.116 6.26422L565.092 6.25223Z" fill="white"/>
<path d="M500.839 6.17495C501.025 7.34342 500.875 8.23026 500.222 9.07515C494.128 16.8949 488.058 24.7387 481.97 32.5704C478.578 36.9387 475.163 41.289 471.771 45.6573C471.448 46.0707 471.04 46.2805 470.549 46.2805C469.243 46.2805 467.936 46.2325 466.63 46.2085C466.295 46.2026 466.205 45.9749 466.169 45.7052C466.061 44.8903 466.277 44.1592 466.78 43.5121C472.814 35.7223 478.842 27.9325 484.876 20.1487C488.088 16.0081 491.312 11.8795 494.5 7.71493C495.339 6.61837 496.333 6.07908 497.729 6.17495C498.76 6.24686 499.797 6.18693 500.845 6.18693V6.17495H500.839Z" fill="white"/>
<path d="M539.92 42.439C540.747 41.5701 541.55 40.7312 542.383 39.8624C542.928 40.3837 543.426 40.899 543.965 41.3604C544.57 41.8817 545.169 42.421 545.841 42.8345C548.345 44.3865 551.222 43.7992 552.929 41.3904C554.194 39.6047 554.913 37.5794 554.967 35.4102C555.092 30.4487 555.104 25.4872 555.146 20.5257C555.146 20.0583 555.26 19.6868 555.554 19.3093C557.262 17.1461 558.945 14.965 560.695 12.7119C560.725 12.9037 560.755 13.0175 560.755 13.1314C560.749 19.9744 560.761 26.8175 560.713 33.6605C560.695 36.0214 560.198 38.3104 559.185 40.4676C556.501 46.1841 550.125 48.4971 544.343 45.8605C542.617 45.0756 541.155 43.949 539.914 42.439H539.92Z" fill="white"/>
<path d="M630.299 46.0225C630.754 44.9619 631.156 43.9971 631.581 43.0444C635.919 33.379 640.258 23.7077 644.596 14.0423C645.657 11.6754 646.735 9.3205 647.784 6.94761C648.065 6.31244 648.479 6.00684 649.192 6.06077C649.827 6.1087 650.468 6.08474 651.103 6.06077C651.691 6.04279 652.086 6.31244 652.314 6.82177C653.189 8.75125 654.052 10.6807 654.903 12.6222C654.95 12.736 654.932 12.9398 654.861 13.0356C653.59 14.6895 652.302 16.3313 651.02 17.9792C651.002 18.0031 650.966 18.0091 650.924 18.0271C650.139 16.3373 649.354 14.6535 648.521 12.8619C648.377 13.1615 648.263 13.3712 648.167 13.5929C644.884 20.9093 641.6 28.2317 638.316 35.5482C636.902 38.7 635.488 41.8459 634.074 44.9978C633.624 45.9925 633.511 46.0464 632.444 46.0225C631.779 46.0045 631.108 46.0225 630.293 46.0225H630.299Z" fill="white"/>
<path d="M656.215 15.5225C660.769 25.6672 665.305 35.77 669.883 45.9626C669.512 45.9866 669.284 46.0165 669.056 46.0165C667.654 46.0165 666.246 45.9746 664.844 46.0165C664.149 46.0345 663.789 45.699 663.526 45.1357C662.897 43.7815 662.261 42.4272 661.632 41.073C658.552 34.4397 655.472 27.8004 652.38 21.1731C652.218 20.8255 652.224 20.5978 652.464 20.2922C653.657 18.8002 654.819 17.2842 656 15.7741C656.053 15.7022 656.119 15.6363 656.215 15.5285V15.5225Z" fill="white"/>
<path d="M502.039 46.0225C502.494 44.9619 502.896 43.9971 503.321 43.0444C507.659 33.379 511.998 23.7077 516.336 14.0423C517.397 11.6754 518.475 9.3205 519.524 6.94761C519.805 6.31244 520.219 6.00684 520.932 6.06077C521.567 6.1087 522.208 6.08474 522.843 6.06077C523.431 6.04279 523.826 6.31244 524.054 6.82177C524.929 8.75125 525.792 10.6807 526.643 12.6222C526.69 12.736 526.672 12.9398 526.601 13.0356C525.33 14.6895 524.042 16.3313 522.76 17.9792C522.742 18.0031 522.706 18.0091 522.664 18.0271C521.879 16.3373 521.094 14.6535 520.261 12.8619C520.117 13.1615 520.003 13.3712 519.907 13.5929C516.624 20.9093 513.34 28.2317 510.056 35.5482C508.642 38.7 507.228 41.8459 505.814 44.9978C505.364 45.9925 505.251 46.0464 504.184 46.0225C503.519 46.0045 502.848 46.0225 502.033 46.0225H502.039Z" fill="white"/>
<path d="M527.955 15.5215C532.509 25.6662 537.045 35.769 541.623 45.9616C541.252 45.9856 541.024 46.0156 540.796 46.0156C539.394 46.0156 537.986 45.9736 536.584 46.0156C535.889 46.0335 535.529 45.698 535.266 45.1347C534.637 43.7805 534.001 42.4263 533.372 41.072C530.292 34.4387 527.212 27.7994 524.12 21.1721C523.958 20.8245 523.964 20.5968 524.204 20.2912C525.397 18.7992 526.559 17.2832 527.74 15.7732C527.793 15.7012 527.859 15.6353 527.955 15.5275V15.5215Z" fill="white"/>
<path d="M474.133 46.1961C474.99 45.0935 475.775 44.0689 476.584 43.0682C476.668 42.9603 476.889 42.9304 477.051 42.9304C478.627 42.9184 480.209 42.9244 481.785 42.9184C488.167 42.9184 494.542 42.9064 500.924 42.9004C501.901 42.9004 502.164 43.17 502.146 44.1528C502.14 44.4883 502.122 44.8239 502.086 45.1534C502.014 45.8306 501.673 46.1422 500.99 46.1721C500.558 46.1901 500.127 46.1901 499.695 46.1901H474.127H474.133V46.1961Z" fill="white"/>
<path d="M492.744 6.37207C491.929 7.4207 491.192 8.39143 490.413 9.33819C490.306 9.47601 490.03 9.52994 489.826 9.52994C485.572 9.54192 481.311 9.53593 477.057 9.53593H468.063C467.32 9.53593 467.308 9.52395 467.308 8.7929V6.37207H492.744Z" fill="white"/>
<path d="M555.265 15.4993V6.27734H560.748C560.748 6.98442 560.754 7.67951 560.742 8.3746C560.742 8.48845 560.658 8.61428 560.586 8.71016C558.885 10.8973 557.183 13.0844 555.475 15.2716C555.433 15.3315 555.373 15.3794 555.265 15.4993Z" fill="white"/>
</svg>
