<svg width="264" height="41" viewBox="0 0 264 41" fill="none" xmlns="http://www.w3.org/2000/svg">
<rect width="264" height="41" rx="20.5" fill="#00AA00"/>
<mask id="mask0_65_4764" style="mask-type:luminance" maskUnits="userSpaceOnUse" x="64" y="8" width="25" height="25">
<path d="M70.4432 26.9224C70.3716 26.904 70.3122 26.8609 70.2734 26.7973C70.2365 26.7338 70.2242 26.6599 70.2427 26.5902C70.2734 26.4651 70.3859 26.3811 70.5087 26.3811C70.5312 26.3811 70.5538 26.3831 70.5742 26.3893C70.7216 26.4262 70.8117 26.5759 70.7748 26.7235C70.7564 26.7953 70.7134 26.8547 70.65 26.8937C70.607 26.9204 70.5579 26.9327 70.5087 26.9327C70.4862 26.9327 70.4637 26.9306 70.4412 26.9245M83.2456 26.8916C83.1822 26.8547 83.1392 26.7932 83.1208 26.7235C83.0839 26.5759 83.174 26.4262 83.3213 26.3893C83.3439 26.3831 83.3664 26.3811 83.3889 26.3811C83.438 26.3811 83.4871 26.3954 83.5301 26.42C83.5936 26.4569 83.6365 26.5185 83.655 26.5902C83.6918 26.7379 83.6017 26.8875 83.4544 26.9224C83.4319 26.9286 83.4093 26.9306 83.3868 26.9306C83.3377 26.9306 83.2886 26.9163 83.2456 26.8916ZM76.3911 25.9156C76.3911 25.6101 76.6387 25.3599 76.9457 25.3599C77.2527 25.3599 77.5004 25.608 77.5004 25.9156C77.5004 26.2232 77.2527 26.4713 76.9457 26.4713C76.6387 26.4713 76.3911 26.2232 76.3911 25.9156ZM71.7613 18.7573C71.7613 18.6056 71.8841 18.4826 72.0356 18.4826C72.1871 18.4826 72.3099 18.6056 72.3099 18.7573C72.3099 18.9091 72.1871 19.0321 72.0356 19.0321C71.8841 19.0321 71.7613 18.9091 71.7613 18.7573ZM81.5816 18.7573C81.5816 18.6056 81.7044 18.4826 81.8559 18.4826C82.0073 18.4826 82.1301 18.6056 82.1301 18.7573C82.1301 18.9091 82.0073 19.0321 81.8559 19.0321C81.7044 19.0321 81.5816 18.9091 81.5816 18.7573ZM70.7441 20.6315C69.997 19.2269 69.9643 17.566 70.6418 16.1368C72.2034 16.3705 73.5604 17.324 74.3075 18.7286C74.9788 19.9897 75.0709 21.4599 74.592 22.7824L72.797 19.4094C72.9484 19.233 73.0406 19.0054 73.0406 18.7553C73.0406 18.1996 72.5903 17.7485 72.0356 17.7485C71.4809 17.7485 71.0307 18.1996 71.0307 18.7553C71.0307 19.311 71.4809 19.7621 72.0356 19.7621C72.0745 19.7621 72.1134 19.758 72.1523 19.7539L73.9493 23.1269C72.5841 22.7907 71.4154 21.8925 70.7441 20.6294M79.584 18.7286C80.331 17.3261 81.688 16.3705 83.2497 16.1368C83.9292 17.5639 83.8944 19.2269 83.1494 20.6315C82.4781 21.8946 81.3094 22.7927 79.9442 23.129L81.7413 19.7539C81.7801 19.758 81.819 19.7621 81.8579 19.7621C82.4105 19.7621 82.8608 19.311 82.8608 18.7553C82.8608 18.1996 82.4105 17.7485 81.8579 17.7485C81.3053 17.7485 80.853 18.1996 80.853 18.7553C80.853 19.0054 80.9451 19.233 81.0965 19.4094L79.3015 22.7824C78.8206 21.4599 78.9147 19.9897 79.586 18.7286M83.0655 11.2607C83.0655 11.0187 83.262 10.8219 83.5035 10.8219C83.745 10.8219 83.9395 11.0187 83.9395 11.2607C83.9395 11.3468 83.9128 11.4288 83.8699 11.4965C83.8678 11.4986 83.8658 11.5006 83.8637 11.5027C83.8596 11.5088 83.8576 11.515 83.8535 11.5211C83.7737 11.6277 83.6468 11.6995 83.5035 11.6995C83.262 11.6995 83.0655 11.5027 83.0655 11.2607ZM75.9531 9.243C75.9531 9.00104 76.1496 8.8042 76.3911 8.8042C76.6326 8.8042 76.827 9.00104 76.827 9.243C76.827 9.48496 76.6305 9.68181 76.3911 9.68181C76.1516 9.68181 75.9531 9.48496 75.9531 9.243ZM75.2531 8.98669C69.3523 9.82329 64.9375 14.888 64.9375 20.8939C64.9375 27.5273 70.3245 32.9242 76.9478 32.9242C77.1545 32.9242 77.3551 32.9181 77.5639 32.9078C83.9517 32.5859 88.956 27.31 88.956 20.896C88.956 17.2892 87.3759 13.9304 84.6087 11.6339C84.6476 11.517 84.6701 11.3919 84.6701 11.2627C84.6701 10.6189 84.1462 10.094 83.5035 10.094C82.8608 10.094 82.3369 10.6168 82.3369 11.2627C82.3369 11.9087 82.8608 12.4315 83.5035 12.4315C83.7512 12.4315 83.9824 12.3516 84.1707 12.2183C86.7517 14.3754 88.2253 17.5188 88.2253 20.896C88.2253 26.5595 84.0704 31.2797 78.5872 32.0753C79.4837 31.2941 80.4886 30.1027 80.8366 28.4972C81.336 27.8656 81.9173 27.4453 82.5702 27.2443C82.648 27.3551 82.7503 27.4473 82.869 27.5212C83.0266 27.6175 83.2047 27.6647 83.3848 27.6647C83.4667 27.6647 83.5485 27.6544 83.6283 27.6339C84.1646 27.5006 84.4941 26.9532 84.3611 26.4159C84.2956 26.1555 84.1339 25.9341 83.9047 25.7967C83.6754 25.6593 83.4053 25.6183 83.1453 25.6819C82.7298 25.7844 82.4412 26.135 82.3921 26.5369C81.8763 26.6907 81.3994 26.9532 80.9655 27.3182C80.9655 26.8506 80.9144 26.3585 80.7895 25.8356C80.636 25.1918 80.3392 24.5397 79.9094 23.8897C81.5632 23.5473 82.9877 22.4913 83.7921 20.9801C84.6927 19.2863 84.6886 17.2666 83.7798 15.5749C83.7102 15.4458 83.571 15.3699 83.4216 15.3842C81.5161 15.5749 79.8398 16.6986 78.9393 18.3903C78.0428 20.0758 78.0428 22.0873 78.9393 23.7749C78.9515 23.8036 78.9679 23.8303 78.9884 23.8549C79.5431 24.5807 79.9094 25.3046 80.0773 26.0058C80.853 29.2661 78.5135 31.3207 77.3101 32.1389V27.1521C77.8402 26.9942 78.227 26.5021 78.227 25.9197C78.227 25.2102 77.6519 24.6341 76.9437 24.6341C76.2355 24.6341 75.6604 25.2102 75.6604 25.9197C75.6604 26.5021 76.0493 26.9942 76.5814 27.1521V32.1409C75.3779 31.3248 73.0365 29.2682 73.8101 26.0058C73.978 25.3046 74.3443 24.5807 74.899 23.8569C74.9195 23.8323 74.9358 23.8036 74.9502 23.7749C75.8466 22.0873 75.8466 20.0778 74.9502 18.3903C74.0496 16.6986 72.3754 15.5749 70.4678 15.3842C70.3225 15.3719 70.1813 15.4458 70.1096 15.5749C69.2009 17.2666 69.1968 19.2863 70.0973 20.9801C70.9017 22.4913 72.3262 23.5473 73.978 23.8897C73.5481 24.5397 73.2514 25.1918 73.0979 25.8356C72.973 26.3565 72.9218 26.8506 72.9218 27.3161C72.4879 26.9511 72.0131 26.6907 71.4994 26.5369C71.4502 26.135 71.1596 25.7864 70.7462 25.6819C70.2099 25.5486 69.6634 25.8767 69.5283 26.4159C69.4628 26.6763 69.5038 26.947 69.643 27.1767C69.7821 27.4063 70.0011 27.5683 70.2611 27.6339C70.3429 27.6544 70.4228 27.6647 70.5046 27.6647C70.6848 27.6647 70.8628 27.6155 71.0204 27.5212C71.1391 27.4494 71.2394 27.3551 71.3192 27.2443C71.9701 27.4453 72.5493 27.8656 73.0487 28.4931C73.3967 30.0986 74.4016 31.2941 75.2981 32.0753C69.8599 31.2715 65.6661 26.5656 65.6661 20.8939C65.6661 15.2223 69.7965 10.5143 75.3247 9.71462C75.5048 10.1247 75.9162 10.4118 76.3911 10.4118C77.0337 10.4118 77.5577 9.88686 77.5577 9.243C77.5577 8.59915 77.0337 8.07422 76.3911 8.07422C75.8364 8.07422 75.3718 8.46586 75.2531 8.98669Z" fill="white"/>
</mask>
<g mask="url(#mask0_65_4764)">
<path d="M88.956 8.07422H64.9375V32.9242H88.956V8.07422Z" fill="white"/>
</g>
<path d="M149.335 10.928H151.929C151.929 11.0202 151.929 11.1145 151.929 11.2089C151.933 15.0843 151.935 18.9577 151.939 22.8332C151.939 23.5959 152.025 24.3485 152.256 25.0784C152.743 26.6122 153.758 27.6252 155.273 28.1521C157.412 28.8965 159.424 28.6504 161.296 27.375C162.834 26.3272 163.583 24.8406 163.591 22.9931C163.605 19.0438 163.595 15.0925 163.595 11.1433V10.85C164.025 10.85 164.442 10.8316 164.858 10.8582C165.056 10.8705 165.153 11.0489 165.173 11.2458C165.181 11.3278 165.173 11.4119 165.173 11.4939C165.173 15.7815 165.173 20.0711 165.173 24.3587V24.574C165.23 24.5269 165.269 24.5023 165.3 24.4694C169.056 20.2475 172.809 16.0234 176.563 11.7994C176.764 11.5739 176.962 11.3504 177.161 11.1248C177.329 10.9321 177.537 10.8398 177.795 10.8439C178.237 10.8521 178.681 10.8459 179.124 10.8459C179.48 10.8459 179.58 10.9464 179.58 11.2991C179.58 16.3249 179.582 21.3506 179.586 26.3764C179.586 27.2417 179.59 28.107 179.592 28.9723C179.592 29.0626 179.592 29.1528 179.584 29.243C179.545 29.5998 179.41 29.7064 179.05 29.6962C178.72 29.688 178.391 29.6962 178.041 29.6962V14.7972C178.008 14.7706 177.973 14.7439 177.941 14.7173C177.916 14.7788 177.908 14.8547 177.867 14.8998C176.313 16.6652 174.756 18.4266 173.2 20.1921C171.69 21.9063 170.181 23.6226 168.675 25.3389C167.529 26.643 166.387 27.9491 165.245 29.2553C164.958 29.5834 164.622 29.7597 164.174 29.69C164.006 29.6634 163.832 29.6859 163.644 29.6859V27.4427C163.552 27.5247 163.497 27.5657 163.45 27.6149C161.998 29.1179 160.203 29.8684 158.147 30.0386C156.583 30.1678 155.042 30.0817 153.564 29.4891C152.115 28.9088 150.913 28.0271 150.131 26.6409C149.571 25.6485 149.333 24.5658 149.327 23.4401C149.311 19.4539 149.311 15.4657 149.307 11.4795C149.307 11.3073 149.325 11.1351 149.337 10.93L149.335 10.928Z" fill="white"/>
<path d="M119.489 10.9309C119.577 11.4824 119.508 11.9007 119.199 12.2985C116.329 15.9874 113.472 19.6865 110.608 23.3774C109.012 25.4361 107.405 27.4886 105.807 29.5473C105.655 29.7442 105.463 29.8426 105.23 29.8406C104.614 29.8385 104 29.818 103.383 29.8057C103.228 29.8016 103.185 29.697 103.169 29.5678C103.119 29.1824 103.218 28.8399 103.455 28.5323C106.296 24.8599 109.135 21.1854 111.974 17.513C113.484 15.5588 115.005 13.6129 116.503 11.6506C116.898 11.1339 117.367 10.8796 118.022 10.9227C118.507 10.9555 118.994 10.9288 119.487 10.9288L119.489 10.9309Z" fill="white"/>
<path d="M137.887 28.035C138.278 27.6269 138.654 27.2312 139.047 26.819C139.303 27.063 139.538 27.3071 139.792 27.5265C140.077 27.7705 140.359 28.0247 140.674 28.2216C141.853 28.9536 143.208 28.6768 144.011 27.5388C144.606 26.696 144.946 25.7425 144.97 24.7173C145.028 22.3777 145.036 20.038 145.054 17.6984C145.054 17.477 145.108 17.3027 145.247 17.1243C146.051 16.1052 146.843 15.0758 147.668 14.0137C147.68 14.1059 147.695 14.1572 147.695 14.2105C147.691 17.438 147.699 20.6655 147.676 23.893C147.668 25.0064 147.435 26.087 146.958 27.102C145.693 29.7984 142.695 30.8893 139.97 29.6446C139.158 29.2735 138.47 28.7424 137.887 28.0309V28.035Z" fill="white"/>
<path d="M180.434 29.7257C180.649 29.2274 180.837 28.7722 181.038 28.3211C183.078 23.7608 185.123 19.2025 187.166 14.6443C187.665 13.5288 188.173 12.4174 188.668 11.2999C188.801 11.0005 188.993 10.857 189.329 10.8816C189.628 10.9021 189.929 10.8939 190.229 10.8816C190.506 10.8714 190.692 11.0005 190.801 11.2384C191.212 12.1468 191.617 13.0592 192.018 13.9738C192.041 14.0271 192.033 14.1235 191.998 14.1686C191.398 14.9478 190.794 15.7228 190.189 16.5C190.18 16.5102 190.162 16.5143 190.144 16.5225C189.775 15.7269 189.405 14.9313 189.014 14.0865C188.946 14.226 188.893 14.3285 188.846 14.4331C187.301 17.8841 185.755 21.3371 184.208 24.7881C183.543 26.2727 182.878 27.7593 182.21 29.2438C182 29.7113 181.944 29.738 181.443 29.7277C181.13 29.7195 180.814 29.7277 180.43 29.7277L180.434 29.7257Z" fill="white"/>
<path d="M192.63 15.3418C194.773 20.1256 196.91 24.891 199.063 29.6973C198.889 29.7096 198.781 29.724 198.675 29.724C198.013 29.724 197.352 29.7035 196.693 29.7219C196.366 29.7302 196.196 29.5723 196.073 29.3077C195.776 28.668 195.478 28.0303 195.181 27.3905C193.73 24.2615 192.28 21.1324 190.825 18.0054C190.75 17.8414 190.752 17.7327 190.866 17.5891C191.427 16.8838 191.976 16.1702 192.53 15.4587C192.557 15.4238 192.588 15.3931 192.633 15.3438L192.63 15.3418Z" fill="white"/>
<path d="M120.055 29.7257C120.27 29.2274 120.458 28.7722 120.659 28.3211C122.699 23.7608 124.744 19.2025 126.787 14.6443C127.286 13.5288 127.794 12.4174 128.289 11.2999C128.422 11.0005 128.614 10.857 128.95 10.8816C129.249 10.9021 129.55 10.8939 129.851 10.8816C130.127 10.8714 130.313 11.0005 130.422 11.2384C130.833 12.1468 131.238 13.0592 131.639 13.9738C131.662 14.0271 131.654 14.1235 131.619 14.1686C131.019 14.9478 130.415 15.7228 129.81 16.5C129.801 16.5102 129.783 16.5143 129.765 16.5225C129.396 15.7269 129.026 14.9313 128.635 14.0865C128.567 14.226 128.514 14.3285 128.467 14.4331C126.922 17.8841 125.376 21.3371 123.829 24.7881C123.164 26.2727 122.499 27.7593 121.831 29.2438C121.621 29.7113 121.565 29.738 121.064 29.7277C120.751 29.7195 120.436 29.7277 120.051 29.7277L120.055 29.7257Z" fill="white"/>
<path d="M132.252 15.3418C134.395 20.1256 136.531 24.891 138.684 29.6973C138.511 29.7096 138.402 29.724 138.296 29.724C137.635 29.724 136.973 29.7035 136.314 29.7219C135.987 29.7302 135.817 29.5723 135.694 29.3077C135.397 28.668 135.099 28.0303 134.802 27.3905C133.351 24.2615 131.902 21.1324 130.446 18.0054C130.371 17.8414 130.373 17.7327 130.487 17.5891C131.048 16.8838 131.597 16.1702 132.151 15.4587C132.178 15.4238 132.209 15.3931 132.254 15.3438L132.252 15.3418Z" fill="white"/>
<path d="M106.918 29.808C107.323 29.2872 107.692 28.8053 108.07 28.3337C108.109 28.2845 108.216 28.2701 108.291 28.2701C109.034 28.266 109.777 28.266 110.52 28.266C113.523 28.264 116.525 28.2619 119.53 28.2578C119.988 28.2578 120.113 28.3849 120.105 28.8484C120.103 29.0062 120.095 29.1641 120.079 29.322C120.046 29.6398 119.884 29.7895 119.563 29.8018C119.36 29.81 119.157 29.81 118.955 29.81C115.029 29.81 111.102 29.81 107.176 29.81C107.108 29.81 107.043 29.81 106.92 29.81L106.918 29.808Z" fill="white"/>
<path d="M115.679 11.0254C115.296 11.5175 114.948 11.9789 114.582 12.4259C114.53 12.4894 114.399 12.5161 114.305 12.5161C112.301 12.5202 110.298 12.5202 108.292 12.5202C106.882 12.5202 105.469 12.5202 104.059 12.5182C103.707 12.5182 103.703 12.512 103.703 12.1696C103.703 11.7943 103.703 11.4191 103.703 11.0274H115.677L115.679 11.0254Z" fill="white"/>
<path d="M145.113 15.3296V10.9805H147.694C147.694 11.3147 147.698 11.6428 147.69 11.9709C147.69 12.0242 147.651 12.0836 147.616 12.1287C146.816 13.1601 146.014 14.1916 145.212 15.223C145.191 15.2496 145.164 15.2742 145.113 15.3296Z" fill="white"/>
</svg>
