<svg width="41" height="41" viewBox="0 0 41 41" fill="none" xmlns="http://www.w3.org/2000/svg">
<rect width="41" height="41" rx="20.5" fill="#00AA00"/>
<path d="M12.9821 27.4789C12.9043 27.4589 12.8398 27.4121 12.7975 27.343C12.7575 27.274 12.7441 27.1937 12.7642 27.118C12.7975 26.9821 12.9198 26.8908 13.0533 26.8908C13.0777 26.8908 13.1022 26.893 13.1244 26.8997C13.2845 26.9398 13.3824 27.1024 13.3423 27.2628C13.3223 27.3408 13.2756 27.4054 13.2067 27.4477C13.16 27.4767 13.1066 27.4901 13.0533 27.4901C13.0288 27.4901 13.0043 27.4878 12.9799 27.4811M26.8921 27.4455C26.8232 27.4054 26.7765 27.3386 26.7565 27.2628C26.7164 27.1024 26.8143 26.9398 26.9744 26.8997C26.9989 26.893 27.0233 26.8908 27.0478 26.8908C27.1012 26.8908 27.1545 26.9063 27.2012 26.9331C27.2702 26.9732 27.3169 27.04 27.3369 27.118C27.3769 27.2784 27.2791 27.441 27.1189 27.4789C27.0945 27.4856 27.07 27.4878 27.0456 27.4878C26.9922 27.4878 26.9388 27.4722 26.8921 27.4455ZM19.4445 26.385C19.4445 26.0531 19.7136 25.7813 20.0472 25.7813C20.3808 25.7813 20.6498 26.0508 20.6498 26.385C20.6498 26.7192 20.3808 26.9888 20.0472 26.9888C19.7136 26.9888 19.4445 26.7192 19.4445 26.385ZM14.4142 18.6074C14.4142 18.4425 14.5477 18.3089 14.7122 18.3089C14.8768 18.3089 15.0102 18.4425 15.0102 18.6074C15.0102 18.7723 14.8768 18.9059 14.7122 18.9059C14.5477 18.9059 14.4142 18.7723 14.4142 18.6074ZM25.0841 18.6074C25.0841 18.4425 25.2176 18.3089 25.3821 18.3089C25.5467 18.3089 25.6801 18.4425 25.6801 18.6074C25.6801 18.7723 25.5467 18.9059 25.3821 18.9059C25.2176 18.9059 25.0841 18.7723 25.0841 18.6074ZM13.309 20.6437C12.4973 19.1176 12.4617 17.313 13.1978 15.7601C14.8946 16.0141 16.369 17.0501 17.1807 18.5762C17.9101 19.9464 18.0102 21.5438 17.4898 22.9808L15.5395 19.3159C15.7041 19.1243 15.8041 18.877 15.8041 18.6052C15.8041 18.0014 15.3149 17.5113 14.7122 17.5113C14.1096 17.5113 13.6203 18.0014 13.6203 18.6052C13.6203 19.2089 14.1096 19.6991 14.7122 19.6991C14.7545 19.6991 14.7967 19.6946 14.839 19.6902L16.7915 23.3551C15.3082 22.9897 14.0384 22.0139 13.309 20.6415M22.9137 18.5762C23.7254 17.0523 25.1998 16.0141 26.8966 15.7601C27.6349 17.3108 27.5971 19.1176 26.7876 20.6437C26.0582 22.0161 24.7884 22.9919 23.3051 23.3573L25.2576 19.6902C25.2999 19.6946 25.3421 19.6991 25.3844 19.6991C25.9848 19.6991 26.474 19.2089 26.474 18.6052C26.474 18.0014 25.9848 17.5113 25.3844 17.5113C24.7839 17.5113 24.2925 18.0014 24.2925 18.6052C24.2925 18.877 24.3925 19.1243 24.5571 19.3159L22.6068 22.9808C22.0842 21.5438 22.1865 19.9464 22.9159 18.5762M26.6964 10.4622C26.6964 10.1993 26.9099 9.9854 27.1723 9.9854C27.4347 9.9854 27.646 10.1993 27.646 10.4622C27.646 10.5557 27.6171 10.6449 27.5704 10.7184C27.5682 10.7206 27.5659 10.7228 27.5637 10.7251C27.5593 10.7317 27.557 10.7384 27.5526 10.7451C27.4659 10.861 27.328 10.9389 27.1723 10.9389C26.9099 10.9389 26.6964 10.7251 26.6964 10.4622ZM18.9686 8.26991C18.9686 8.00701 19.1821 7.79313 19.4445 7.79313C19.7069 7.79313 19.9182 8.00701 19.9182 8.26991C19.9182 8.5328 19.7047 8.74668 19.4445 8.74668C19.1843 8.74668 18.9686 8.5328 18.9686 8.26991ZM18.2081 7.99142C11.7968 8.9004 7 14.4033 7 20.9289C7 28.1362 12.8531 34 20.0494 34C20.274 34 20.4919 33.9933 20.7188 33.9822C27.6593 33.6324 33.0966 27.9 33.0966 20.9311C33.0966 17.0122 31.3798 13.3629 28.3732 10.8676C28.4154 10.7407 28.4399 10.6048 28.4399 10.4644C28.4399 9.76483 27.8706 9.19449 27.1723 9.19449C26.474 9.19449 25.9047 9.7626 25.9047 10.4644C25.9047 11.1662 26.474 11.7343 27.1723 11.7343C27.4414 11.7343 27.6927 11.6474 27.8973 11.5026C30.7015 13.8464 32.3027 17.2617 32.3027 20.9311C32.3027 27.0846 27.7883 32.2132 21.8307 33.0777C22.8047 32.2288 23.8966 30.9344 24.2747 29.19C24.8173 28.5038 25.4489 28.047 26.1583 27.8287C26.2428 27.949 26.3539 28.0493 26.4829 28.1295C26.6542 28.2342 26.8476 28.2854 27.0433 28.2854C27.1323 28.2854 27.2212 28.2743 27.308 28.252C27.8906 28.1072 28.2486 27.5123 28.1041 26.9286C28.0329 26.6457 27.8573 26.4051 27.6082 26.2558C27.3591 26.1065 27.0656 26.062 26.7831 26.131C26.3317 26.2424 26.0181 26.6234 25.9648 27.0601C25.4044 27.2272 24.8862 27.5123 24.4148 27.9089C24.4148 27.4009 24.3592 26.8662 24.2235 26.2981C24.0567 25.5986 23.7343 24.8901 23.2673 24.1838C25.0641 23.8118 26.6119 22.6644 27.4859 21.0224C28.4644 19.1822 28.4599 16.9877 27.4725 15.1497C27.3969 15.0093 27.2457 14.9269 27.0834 14.9425C25.013 15.1497 23.1917 16.3706 22.2132 18.2086C21.2392 20.0399 21.2392 22.2255 22.2132 24.0591C22.2265 24.0903 22.2443 24.1192 22.2666 24.146C22.8692 24.9347 23.2673 25.7211 23.4496 26.483C24.2925 30.0254 21.7506 32.2578 20.443 33.1467V27.7284C21.019 27.5569 21.4393 27.0222 21.4393 26.3895C21.4393 25.6186 20.8144 24.9926 20.045 24.9926C19.2755 24.9926 18.6506 25.6186 18.6506 26.3895C18.6506 27.0222 19.0731 27.5569 19.6513 27.7284V33.1489C18.3437 32.2622 15.7997 30.0276 16.6403 26.483C16.8226 25.7211 17.2207 24.9347 17.8234 24.1482C17.8456 24.1215 17.8634 24.0903 17.879 24.0591C18.853 22.2255 18.853 20.0422 17.879 18.2086C16.9005 16.3706 15.0814 15.1497 13.0088 14.9425C12.8509 14.9291 12.6974 15.0093 12.6196 15.1497C11.6322 16.9877 11.6278 19.1822 12.6063 21.0224C13.4802 22.6644 15.028 23.8118 16.8226 24.1838C16.3556 24.8901 16.0332 25.5986 15.8664 26.2981C15.7307 26.864 15.6751 27.4009 15.6751 27.9067C15.2037 27.5101 14.6878 27.2272 14.1296 27.0601C14.0762 26.6234 13.7604 26.2447 13.3112 26.131C12.7286 25.9862 12.1348 26.3427 11.988 26.9286C11.9169 27.2116 11.9614 27.5057 12.1126 27.7552C12.2638 28.0047 12.5017 28.1807 12.7842 28.252C12.8731 28.2743 12.9599 28.2854 13.0488 28.2854C13.2445 28.2854 13.438 28.232 13.6092 28.1295C13.7382 28.0515 13.8472 27.949 13.9339 27.8287C14.6411 28.047 15.2704 28.5038 15.813 29.1855C16.1911 30.9299 17.283 32.2288 18.257 33.0777C12.3483 32.2043 7.79168 27.0913 7.79168 20.9289C7.79168 14.7665 12.2794 9.65121 18.2859 8.78233C18.4816 9.22791 18.9286 9.53981 19.4445 9.53981C20.1428 9.53981 20.7121 8.96947 20.7121 8.26991C20.7121 7.57034 20.1428 7 19.4445 7C18.8419 7 18.3371 7.42553 18.2081 7.99142Z" fill="white"/>
</svg>
