<svg width="19" height="19" viewBox="0 0 19 19" fill="none" xmlns="http://www.w3.org/2000/svg">
<path d="M13.4779 11.9482H12.664L12.3755 11.6706C13.3852 10.4984 13.9931 8.97653 13.9931 7.321C13.9931 3.62949 10.9949 0.637207 7.29609 0.637207C3.5973 0.637207 0.599121 3.62949 0.599121 7.321C0.599121 11.0125 3.5973 14.0048 7.29609 14.0048C8.95488 14.0048 10.4797 13.3981 11.6543 12.3904L11.9325 12.6783V13.4907L17.084 18.6218L18.6191 17.0896L13.4779 11.9482ZM7.29609 11.9482C4.73064 11.9482 2.65973 9.88141 2.65973 7.321C2.65973 4.7606 4.73064 2.69376 7.29609 2.69376C9.86155 2.69376 11.9325 4.7606 11.9325 7.321C11.9325 9.88141 9.86155 11.9482 7.29609 11.9482Z" fill="#00304D"/>
</svg>
