<svg width="78" height="78" viewBox="0 0 78 78" fill="none" xmlns="http://www.w3.org/2000/svg">
<g filter="url(#filter0_d_83_1466)">
<circle cx="39" cy="37" r="35" fill="#FFC400"/>
<circle cx="39" cy="37" r="33.5" stroke="white" stroke-width="3"/>
</g>
<path d="M22.7404 50.5608L22.7404 50.5609C22.745 51.4085 23.0307 52.0776 23.4937 52.5367C23.9573 52.9965 24.6369 53.2831 25.4977 53.2932L22.7404 50.5608ZM22.7404 50.5608C22.7252 47.9081 22.7252 45.257 22.7404 42.6043L22.7404 50.5608ZM33.7109 39.9186L33.7107 39.9186C30.8896 39.8521 28.0651 39.8476 25.2462 39.9231L33.7109 39.9186ZM33.7109 39.9186C34.4543 39.9358 35.064 40.1954 35.4915 40.6101C35.918 41.0238 36.1908 41.6184 36.215 42.3582L36.215 42.3583L33.7109 39.9186ZM33.5217 53.2917L33.5217 53.2917C34.3363 53.2809 34.9941 53.0303 35.4497 52.6179C35.9009 52.2096 36.1925 51.6082 36.2195 50.8138C36.2195 50.8137 36.2195 50.8137 36.2195 50.8137L36.7192 50.8306L33.5217 53.2917ZM33.5217 53.2917C32.5874 53.3042 31.656 53.301 30.7202 53.2977C30.293 53.2962 29.8648 53.2947 29.4351 53.2947H29.228M33.5217 53.2917L29.228 53.2947M29.228 53.2947L29.2264 53.2963M29.228 53.2947L29.2264 53.2963M29.2264 53.2963C28.8887 53.2966 28.5518 53.2976 28.2154 53.2985C27.3075 53.3011 26.4034 53.3037 25.4978 53.2932L29.2264 53.2963ZM24.17 47.7762L24.1749 47.7713C24.1785 48.6581 24.1817 49.5387 24.164 50.4217L24.164 50.4221C24.1569 50.7935 24.2239 51.1831 24.4858 51.4794C24.7575 51.7868 25.1443 51.8894 25.5393 51.8904L25.5399 51.8904C27.1161 51.8922 28.6927 51.8924 30.2691 51.8926C31.3197 51.8927 32.3702 51.8928 33.4204 51.8934H33.4207C33.8045 51.8934 34.1874 51.8001 34.4707 51.5194C34.755 51.2379 34.8518 50.8544 34.8518 50.4651L34.8518 50.4645C34.8503 49.1762 34.8503 47.8878 34.8503 46.5992C34.8503 45.3106 34.8503 44.0217 34.8488 42.7327C34.8487 42.3473 34.7514 41.9655 34.4696 41.6833C34.1876 41.4008 33.8043 41.3019 33.4131 41.3019L33.4128 41.3019L33.4114 41.3019C30.8093 41.3034 28.2093 41.3049 25.6078 41.3019H25.6072C25.2131 41.3019 24.8136 41.3905 24.524 41.6878C24.2354 41.9843 24.1544 42.3875 24.1625 42.7884C24.1796 43.679 24.1762 44.5674 24.1728 45.4627C24.1714 45.8298 24.17 46.198 24.17 46.5681V47.7762ZM22.7404 42.6042C22.7496 41.0682 23.7579 39.9638 25.246 39.9232L22.7404 42.6042Z" fill="#002C4D" stroke="#002C4D"/>
<path d="M49.0993 53.2956V53.2976C49.339 53.298 49.5784 53.2987 49.8175 53.2994C50.7254 53.302 51.6295 53.3046 52.5351 53.2941C53.4104 53.284 54.0863 53.0032 54.5429 52.5517C54.9986 52.1011 55.2803 51.4365 55.2864 50.5732L55.2864 50.5729C55.3061 47.9208 55.3061 45.2702 55.2864 42.618V42.618C55.2803 41.7983 55.0183 41.1374 54.59 40.6804C54.1641 40.2259 53.5398 39.9363 52.7348 39.9165L52.7347 39.9164C49.9405 39.8469 47.14 39.8484 44.3453 39.9165C43.564 39.9355 42.9435 40.2229 42.5158 40.6739C42.0863 41.1267 41.8224 41.7749 41.8151 42.5626C41.7923 45.2384 41.7939 47.916 41.8151 50.5924L49.0993 53.2956ZM49.0993 53.2956H48.5993M49.0993 53.2956H48.5993M48.5993 53.2956C48.1819 53.2956 47.7662 53.297 47.3515 53.2984C46.4025 53.3016 45.4588 53.3048 44.5132 53.2911L44.5132 53.2911M48.5993 53.2956L44.5132 53.2911M44.5132 53.2911C43.6725 53.279 43.0091 52.9968 42.5558 52.5441M44.5132 53.2911L42.5558 52.5441M44.7538 41.3073C44.3427 41.3103 43.8905 41.3537 43.5767 41.662C43.2592 41.9738 43.2143 42.4259 43.2128 42.8369L43.2128 42.837C43.2037 45.3381 43.2037 47.8407 43.2128 50.3418M44.7538 41.3073C45.6481 41.2998 46.543 41.3014 47.4353 41.3029C47.8061 41.3036 48.1765 41.3043 48.5462 41.3043V41.3012C48.939 41.3012 49.3325 41.3005 49.7266 41.2997C50.5958 41.2981 51.4674 41.2965 52.3382 41.3027L52.3382 41.3027C52.7479 41.3057 53.2033 41.3443 53.5187 41.6496C53.8401 41.9605 53.8826 42.4159 53.8841 42.8261C53.8891 44.0291 53.8884 45.2205 53.8876 46.4105C53.8868 47.7382 53.8859 49.0641 53.8932 50.4025L53.8932 50.4031C53.895 50.823 53.8018 51.2349 53.4967 51.5318C53.1947 51.8256 52.7848 51.9088 52.382 51.9079L52.3817 51.9079C51.2433 51.9045 50.1005 51.9051 48.9567 51.9057C47.547 51.9063 46.1358 51.907 44.7296 51.9003L44.7292 51.9003C44.3208 51.8981 43.8639 51.8557 43.5536 51.5305C43.2506 51.2131 43.2143 50.7552 43.2128 50.3418M44.7538 41.3073C44.7539 41.3073 44.754 41.3073 44.7541 41.3073L44.7577 41.8073L44.7535 41.3073C44.7536 41.3073 44.7537 41.3073 44.7538 41.3073ZM43.2128 50.3418L43.7128 50.34L43.2128 50.3418ZM42.5558 52.5441C42.1029 52.0919 41.8218 51.4318 41.8151 50.5924L42.5558 52.5441Z" fill="#002C4D" stroke="#002C4D"/>
<path d="M33.4746 20.7088L33.4743 20.7088C32.5547 20.6974 31.6377 20.7003 30.7161 20.7032C30.2996 20.7045 29.8821 20.7058 29.4631 20.7058H29.4616C29.041 20.7058 28.6221 20.7043 28.2042 20.7027C27.2591 20.6992 26.3192 20.6957 25.3762 20.7103C24.5576 20.7237 23.9036 21.0048 23.454 21.454C23.0049 21.9028 22.7257 22.5534 22.7183 23.3699L33.4746 20.7088ZM33.4746 20.7088C34.3173 20.7189 34.9854 20.9996 35.4425 21.4507M33.4746 20.7088L35.4425 21.4507M33.6767 34.0804L33.6768 34.0804C34.4588 34.0601 35.0738 33.7723 35.4965 33.3212C35.9215 32.8678 36.1823 32.2166 36.1896 31.4205C36.1896 31.4205 36.1896 31.4205 36.1896 31.4204L33.6767 34.0804ZM33.6767 34.0804C30.8568 34.1546 28.0328 34.1561 25.2136 34.0789M33.6767 34.0804L25.2136 34.0789M28.9282 22.1068V22.105L29.4288 22.1056C29.7523 22.106 30.0753 22.1069 30.3978 22.1077C31.3626 22.1103 32.3235 22.1128 33.2855 22.1026L28.9282 22.1068ZM28.9282 22.1068C28.7323 22.1065 28.5362 22.1062 28.3399 22.1058C27.4654 22.1043 26.5881 22.1027 25.713 22.1102L28.9282 22.1068ZM35.4425 21.4507C35.8988 21.9009 36.1823 22.5576 36.1896 23.3912L35.4425 21.4507ZM25.2136 34.0789C24.4361 34.0566 23.8248 33.7655 23.4045 33.3107M25.2136 34.0789L23.4045 33.3107M23.4045 33.3107C22.9815 32.8529 22.7229 32.1972 22.7168 31.4001L23.4045 33.3107ZM24.1761 23.0137C24.1327 23.207 24.1214 23.426 24.1206 23.655L25.7128 22.1102C25.4756 22.1122 25.253 22.1236 25.0584 22.1633C24.8598 22.2039 24.6523 22.2813 24.4812 22.4437C24.3075 22.6085 24.2211 22.8132 24.1761 23.0137ZM24.1206 23.6551C24.1115 26.1562 24.1115 28.6573 24.1206 31.1584L24.1206 31.1584C24.1221 31.5726 24.1664 32.0258 24.4791 32.3391C24.7923 32.6527 25.2447 32.6957 25.6531 32.6972L25.6534 32.6972C28.1795 32.7048 30.7057 32.7048 33.2303 32.6972C33.6453 32.6964 34.1006 32.6576 34.418 32.3559C34.7437 32.0463 34.7888 31.5924 34.7904 31.1845C34.7956 29.9441 34.795 28.7237 34.7944 27.5049C34.7938 26.2119 34.7932 24.9207 34.7995 23.6092L34.7995 23.609C34.8013 23.1947 34.7116 22.7821 34.4101 22.483C34.1088 22.184 33.6964 22.0982 33.2856 22.1026L24.1206 23.6551ZM24.6045 31.1566L24.6206 31.1566L24.6045 31.1566ZM22.7168 31.4001C22.6971 28.7235 22.6956 26.0474 22.7183 23.3701L22.7168 31.4001Z" fill="#002C4D" stroke="#002C4D"/>
<path d="M55.2955 27.454L55.2955 27.4539C55.3435 23.788 52.4223 20.772 48.7782 20.7155L55.2955 27.454ZM55.2955 27.454C55.2475 31.1807 52.1768 34.1786 48.509 34.1068M55.2955 27.454L48.509 34.1068M48.509 34.1068C44.8006 34.0332 41.877 31.0289 41.9137 27.3381L48.509 34.1068ZM41.9137 27.338C41.9518 23.5757 44.968 20.6575 48.7781 20.7155L41.9137 27.338Z" fill="#002C4D" stroke="#002C4D"/>
<defs>
<filter id="filter0_d_83_1466" x="0" y="0" width="78" height="78" filterUnits="userSpaceOnUse" color-interpolation-filters="sRGB">
<feFlood flood-opacity="0" result="BackgroundImageFix"/>
<feColorMatrix in="SourceAlpha" type="matrix" values="0 0 0 0 0 0 0 0 0 0 0 0 0 0 0 0 0 0 127 0" result="hardAlpha"/>
<feOffset dy="2"/>
<feGaussianBlur stdDeviation="2"/>
<feComposite in2="hardAlpha" operator="out"/>
<feColorMatrix type="matrix" values="0 0 0 0 0 0 0 0 0 0 0 0 0 0 0 0 0 0 0.25 0"/>
<feBlend mode="normal" in2="BackgroundImageFix" result="effect1_dropShadow_83_1466"/>
<feBlend mode="normal" in="SourceGraphic" in2="effect1_dropShadow_83_1466" result="shape"/>
</filter>
</defs>
</svg>
